<svg viewBox="0 0 261 63" xmlns="http://www.w3.org/2000/svg"><g id="Page-1" stroke="none" stroke-width="1" fill="none" fill-rule="evenodd"><g id="prereview-logo" transform="translate(1 1)"><g id="PreReview-Logo---Horizontal---Colour"><path d="M84.7 26c.1 2-.7 4-2.2 5.3-1.8 1.3-4 2-6.2 1.8h-2v7.7h-4.6V19.2h6.9c2.1-.2 4.3.4 6 1.7a6.4 6.4 0 012.1 5.1zm-10.4 3.4h1.5c1.1.1 2.2-.2 3.2-.8.7-.6 1.1-1.5 1.1-2.4.1-.9-.2-1.8-.9-2.4a4 4 0 00-2.8-.8h-2.1v6.4zM97.6 32.5v8.3h-4.5V19.2h6.3c2.9 0 5.1.5 6.5 1.6a6.4 6.4 0 011.1 8.3c-.8 1-1.8 1.8-3 2.3l6.4 9.4h-5.1l-5.2-8.3h-2.5zm0-3.7h1.5a6 6 0 003.2-.7c.7-.5 1.1-1.4 1-2.3.1-.9-.3-1.7-1.1-2.2-1-.5-2.1-.7-3.3-.7h-1.4l.1 5.9zM129.7 40.8h-12.5V19.2h12.5V23h-7.9v4.8h7.3v3.8h-7.3v5.6h7.9z" id="Shape" fill="#F33" fill-rule="nonzero"/><path d="M140.3 31.4v9.4h-1.5V19.2h5.1c2.7 0 4.6.5 5.9 1.5 1.3 1.1 2 2.8 1.9 4.5a7 7 0 01-1.1 3.7 6.8 6.8 0 01-3.5 2.2l5.9 9.8h-1.8l-5.6-9.4-5.3-.1zm0-1.3h4.1c1.5.1 3-.3 4.2-1.2 1-.9 1.6-2.2 1.5-3.6.1-1.4-.4-2.7-1.5-3.6-1-.7-2.6-1.1-4.8-1.1h-3.6l.1 9.5zM172.9 40.8h-11.8V19.2h11.8v1.4h-10.3v8.2h9.7v1.4h-9.7v9.3h10.3zM194.8 19.2h1.6l-8 21.6h-1.3L179 19.2h1.6l5.5 14.7 1.7 5 1.2-3.4 5.8-16.3zM203.8 40.8V19.2h1.5v21.6h-1.5zM227.4 40.8h-11.8V19.2h11.8v1.4h-10.3v8.2h9.7v1.4h-9.7v9.3h10.3zM253.8 40.8h-1.2l-4.8-16.7-.9-3.4-.7 3-4.8 17.1h-1.3l-6-21.6h1.6l3.8 13.9.4 1.6.4 1.3.3 1.2.2 1.2c.2-1.3.7-3.4 1.5-6.1l3.7-13.1h1.7l4.3 15a45 45 0 011.1 4.2l.5-2.3 4.6-17h1.5l-5.9 21.7z" id="Shape" fill="#000" fill-rule="nonzero"/><path d="M37.9 57.7H2c-.9 0-1.7-.8-1.7-1.7h0V1.8C.3.9 1.1.1 2 .1h44.6c.9 0 1.7.8 1.7 1.7h0V56" id="Shape" stroke="#000"/><path id="Shape" fill="#F33" fill-rule="nonzero" d="M33.9 61.5l6.5-3.8-6.5-3.8"/><path d="M11 15h26.9M11 29.1h26.9M11 43.3h26.9" id="Shape" stroke="#000"/></g></g></g></svg>
