<svg viewBox="20 0 462 205" xmlns="http://www.w3.org/2000/svg"><g id="Page-1" stroke="none" stroke-width="1" fill="none" fill-rule="evenodd" stroke-linecap="round" stroke-linejoin="round"><g id="epidemics"><path d="M.67 4.99l6.6-.01 5.97-.07 6.6-.02 6.4-.45 6.6-.44 6.4-1.75 6.6 1.12 6.61.84 6.39.55 6.61.07 6.39.14h6.6l6.61.02 5.97-.04 6.6-.09 6.4-.02 6.6-.23 6.39-.22 6.61-.3 6.61.61 6.39.14 6.6.09h6.4l6.6-.06 6.61.08 5.96-.21 6.61-.25 6.39-1.72L188.4 0l6.39.81 6.61 3.44 6.6.39 6.4-.03 6.6.2 6.39.14 6.61.01 6.61.02 6.18-.06 6.6-.16 6.39-.16 6.61-.46h6.39l6.61.18 6.6.23 6.4.11 6.6.24 6.4.06 6.6.04 6.61-.01 5.96-.01 6.61-.03 6.39-.15 6.61-.21 6.39.03 6.61.02 6.6.14 6.39.02 6.61.12 6.39.03 6.61-.06 6.6.06 5.97-.08 6.61.06 6.39-.28 6.61-.59 6.39-1.63 6.6.33 6.61.68 6.39 1.12 6.61.36 6.39.06M.67 7h6.6l5.97-.07 6.6.02 6.4-.33 6.6-.37 6.4-.9 6.6.18 6.61.47 6.39.7 6.61.03 6.39.25 6.6-.03 6.61.02 5.97-.02 6.6-.08 6.4-.37 6.6-.07 6.39.09 6.61.08 6.61.22 6.39-.02 6.6.07 6.4.05 6.6.03 6.61.02 5.96-.12 6.61-.4 6.39-1.12 6.61-.31L194.79 2l6.61 4.33 6.6.37h6.4l6.6.13 6.39.17 6.61-.17 6.61.15 6.18-.06 6.6-.02 6.39-.08 6.61-.19 6.39-.01 6.61-.02 6.6.1h6.4l6.6.07 6.4.18 6.6.03 6.61-.01 5.96.01h6.61l6.39-.13 6.61-.3 6.39-.25 6.61-.02 6.6.12 6.39.03 6.61.45 6.39.02 6.61.03 6.6.02 5.97-.05 6.61.02 6.39-.17 6.61-.57 6.39-.81 6.6-.35 6.61 1.03 6.39.67 6.61.21 6.39.02" id="Stroke-1" stroke="#000" stroke-width=".38"/><path d="M.67 8.97l6.6.01 5.97-.07 6.6.02 6.4-.19 6.6-.31 6.4-1 6.6.74 6.61.54 6.39.18 6.61.03 6.39.03 6.6.02 6.61.01 5.97-.11 6.6-.11 6.4-.53 6.6-.26 6.39-.08 6.61-.09 6.61.6 6.39.25 6.6.1 6.4.04 6.6-.02 6.61.11 5.96-.21 6.61-.57 6.39-1.58L188.4 4l6.39 1.43 6.61 3.15 6.6.27h6.4l6.6.1 6.39.03H234l6.61.01 6.18-.01 6.6-.08 6.39-.29 6.61-.28h6.39l6.61.16 6.6.13 6.4.21 6.6-.02 6.4.14 6.6.01h6.61l5.96-.03 6.61-.13 6.39-.39 6.61-.57 6.39.3 6.61.28 6.6.29 6.39.1 6.61.19 6.39-.03 6.61-.01 6.6.01 5.97-.02 6.61-.05 6.39-.23 6.61-.46 6.39-1.03 6.6.56 6.61.66 6.39.32 6.61.17 6.39.06M.67 10.98h6.6l5.97.02 6.6-.02 6.4-.12 6.6-.13 6.4-.44 6.6-.09 6.61.33 6.39.29 6.61.16 6.39-.02 6.6.02 6.61.02 5.97-.16 6.6-1.92 6.4.1 6.6-1.2L117.01 6l6.61.59 6.61 2.19 6.39 1.67 6.6.39h6.4l6.6-.08 6.61.06 5.96.06 6.61-.02 6.39-.57 6.61-2.72 6.39-.14 6.61 2.61 6.6.8 6.4-.04 6.6.04 6.39.16 6.61-.02 6.61.02 6.18-.04 6.6-.04 6.39-.16 6.61-.45 6.39-.02 6.61.12 6.6.18 6.4.1 6.6.23 6.4.04 6.6-.04 6.61.06 5.96-.06 6.61-.21 6.39-.38 6.61-.41 6.39-2.59 6.61 1.87 6.6.98 6.39.47 6.61.31 6.39.02h13.21l5.97-.06 6.61-.04 6.39-.98 6.61-.74 6.39-1.89 6.6.1 6.61 1.53 6.39 1.39 6.61.51 6.39.16" id="Stroke-2" stroke="#000" stroke-width=".38"/><path d="M.67 12.9l6.6-.03 5.97-.01h6.6l6.4-.15 6.6-.04 6.4-.22 6.6.04 6.61.05 6.39-.11 6.61.44 6.39.11h6.6l6.61-.03 5.97-.02 6.6-.03 6.4-.16 6.6-.25 6.39-.63 6.61.16 6.61.03 6.39.37 6.6.29 6.4.14 6.6-.15 6.61.02 5.96-.25 6.61-.35 6.39-2.07L188.4 8l6.39 1.65 6.61 2.97 6.6.3 6.4-.01 6.6.02 6.39.05 6.61.01h6.61l6.18-.01 6.6-.02 6.39-.07 6.61-.26h6.39l6.61.03 6.6-.03 6.4-.02 6.6.2 6.4.13 6.6.02 6.61-.01 5.96-.1 6.61-.15 6.39-.66 6.61-.16 6.39.47 6.61.34 6.6.09 6.39.06 6.61.12h6.39l6.61-.01 6.6-.02 5.97-.04 6.61.05 6.39-.25 6.61-.15 6.39-.6 6.6.15 6.61.39 6.39.22 6.61.16 6.39.1M.67 14.86l6.6.09 5.97-.04 6.6-.05 6.4-.16 6.6-.3 6.4-.95 6.6.28 6.61.84 6.39.38 6.61-.12 6.39.08 6.6-.01h6.61l5.97-.02 6.6-.05 6.4-.69 6.6-1.27 6.39-1.6 6.61-.98 6.61 2.09 6.39 1.96 6.6.45 6.4.03 6.6-.13 6.61.15 5.96-.18 6.61-.38 6.39-1.19L188.4 10l6.39.12 6.61 3.74 6.6.71 6.4-.02 6.6.31 6.39.01 6.61.01 6.61.05 6.18-.05 6.6-.24 6.39-.44 6.61-.08h6.39l6.61.27 6.6.04 6.4-.03 6.6.37 6.4.15 6.6.03 6.61.02 5.96-.08 6.61.01 6.39-.29 6.61-.4 6.39-.17 6.61.23 6.6.45 6.39.16 6.61.08h6.39l6.61.03 6.6-.02 5.97-.01 6.61-.03 6.39-.03 6.61-.21 6.39-.51 6.6-.45 6.61.5 6.39.31 6.61.31 6.39.04" id="Stroke-3" stroke="#000" stroke-width=".38"/><path d="M.67 16.95l6.6.04 5.97-.02 6.6-.06 6.4-.26h6.6l6.4-.14 6.6.23 6.61.01 6.39.15 6.61.07 6.39.02h6.6l6.61.01 5.97-.01 6.6.01 6.4-.06 6.6-.03 6.39.01 6.61.03 6.61-.03 6.39.02h6.6l6.4-.03 6.6.03 6.61.01 5.96-.24 6.61-.95 6.39-1.34L188.4 12l6.39 2.04 6.61 2.79 6.6.14h6.4l6.6.02h13l6.61.01h6.18l6.6-.09 6.39-.06 6.61.08 6.39-.01h6.61l6.6-.03 6.4-.07 6.6.04 6.4.12 6.6.01h6.61l5.96-.08 6.61-.05 6.39-.04 6.61-.2 6.39.14 6.61-.07 6.6.13 6.39.04 6.61.13h6.39l6.61-.02 6.6.01 5.97-.04 6.61-.07 6.39-.34 6.61-.9 6.39-.52 6.6.93 6.61.38 6.39.24 6.61.23 6.39.08M.67 18.9l6.6-.01 5.97.01 6.6-.05 6.4-.18 6.6-.21 6.4-.29 6.6-.16 6.61.25 6.39.24 6.61.24 6.39.16h6.6l6.61.06 5.97-.06 6.6-.19 6.4-.87 6.6-.6 6.39-.75 6.61-.66 6.61.48 6.39 1.18 6.6.52 6.4.16 6.6.27 6.61.17 5.96-.03 6.61-.72 6.39-1.74L188.4 14l6.39.61 6.61 3.46 6.6.67 6.4-.01 6.6.16 6.39.07 6.61.01 6.61.01 6.18-.01 6.6.01 6.39-.12 6.61-.83h6.39l6.61.22 6.6.08 6.4.29 6.6.06 6.4.13 6.6.08 6.61-.02 5.96-.08 6.61-.13 6.39-.63 6.61-.71 6.39-.02 6.61.23 6.6.59 6.39.29 6.61.47 6.39.05 6.61.01h6.6l5.97-.02 6.61-.04 6.39-.24 6.61-.41 6.39-.69 6.6.06 6.61.69 6.39.22 6.61.29 6.39.03" id="Stroke-4" stroke="#000" stroke-width=".38"/><path d="M.67 20.96h12.57l6.6-.04 6.4.08 6.6-.2 6.4-.11 6.6.23 6.61-.08 6.39-.04 6.61.08 6.39.04 6.6.08h6.61l5.97-1.42 6.6 1.38 6.4-.39 6.6-4.57 6.39 4.29 6.61.43 6.61.16 6.39.12 6.6-.04h13l6.61-.04 5.96-.16 6.61-.39 6.39-1.22 6.61.39 6.39-.74 6.61 2 6.6.16h6.4l6.6.04h13l6.61-.08 6.18.08 6.6-.04 6.39-.16 6.61-.11h6.39l6.61.07 6.6-.19 6.4.27 6.6.12 6.4-.04 6.6.08 6.61-.08h5.96l6.61-.39 6.39-1.3 6.61-2.88 6.39 2.76 6.61.71 6.6 1.06 6.39.12h32.18l6.61-.08 6.39-.2h6.61l6.39-.39 6.6.32 6.61.23 6.39-.04 6.61.08M.67 22.73l6.6.23 5.97-.08 6.6-.11 6.4-.5 6.6-.77 6.4 1.04 6.6-.16 6.61.2 6.39.27 6.61-.08 6.39.23 6.6-.15 6.61.15h5.97l6.6-.08 6.4-.11 6.6.07 6.39-.19 6.61.12 6.61-.12 6.39.23 6.6-.19 6.4.08 6.6-.27 6.61.08 5.96-.27 6.61-.23 6.39-2.77L188.4 18l6.39 3.54 6.61 1.15 6.6.08h6.4l6.6.23h6.39l6.61-.04h6.61l6.18.04h6.6l6.39-.08h19.61l6.6-.23 6.4.19 6.6-.11h6.4l6.6.08 6.61-.04 5.96-.19 6.61-.58h6.39l6.61.08 6.39.07 6.61.39 6.6.11 6.39.08 6.61.19 6.39-.08 6.61.08 6.6-.15 5.97-.04 6.61.08 6.39-.47 6.61-.15 6.39-.54 6.6.77 6.61-.11 6.39.23 6.61.27 6.39-.08" id="Stroke-5" stroke="#000" stroke-width=".38"/><path d="M.67 24.97l6.6.03h5.97l6.6-.1 6.4-.1 6.6-.54 6.4.1 6.6-.27 6.61.3 6.39.27 6.61.14 6.39.17 6.6.03h6.61l5.97-.1 6.6.07h6.4l6.6-.61 6.39-.41 6.61.41 6.61.47h6.39l6.6.14 6.4.03h13.21l5.96-.14 6.61-.1 6.39-1.15 6.61-2.33 6.39-1.28 6.61 3.18 6.6 1.14 6.4-.03 6.6.47h6.39l6.61.17 6.61-.1h6.18l6.6-.3 6.39-.41 6.61-1.32 6.39-.03 6.61 1.25 6.6.3 6.4.44 6.6.21 6.4.03 6.6-.07 6.61.04 5.96.03 6.61-.07 6.39-.17 6.61-.27 6.39.27 6.61-.1 6.6.31 6.39-.11 6.61.07 6.39-.03 6.61.07 6.6-.04h5.97l6.61.07 6.39-.03 6.61-.31 6.39-.4 6.6-.04 6.61-.23 6.39.57 6.61.41h6.39M.67 26.77l6.6.08 5.97-.02 6.6.08 6.4-.02 6.6-.12 6.4-.27 6.6-.32 6.61.05 6.39-.14 6.61.34 6.39.19 6.6.08 6.61.04 5.97-.02 6.6-.13 6.4-.16 6.6-.26 6.39-.62 6.61-.74 6.61.28 6.39.51 6.6-.14 6.4.18 6.6.48 6.61.47 5.96.08 6.61-.34 6.39-.94 6.61-2.04 6.39-1.35 6.61 3.16 6.6.94 6.4-.03 6.6.48 6.39.25 6.61.06 6.61.09h6.18l6.6-.04 6.39-.22 6.61-.69 6.39-.01 6.61-.11 6.6-.31 6.4-.19 6.6.3 6.4.82 6.6.14 6.61.09 5.96-.03 6.61-.1 6.39-.3 6.61-.65 6.39-.12 6.61.24 6.6.49 6.39-.02 6.61.59 6.39-.11 6.61.09 6.6.04 5.97-.1 6.61.12 6.39-.11 6.61-.1 6.39-.61 6.6-.42 6.61.13 6.39.38 6.61.32 6.39.06" id="Stroke-6" stroke="#000" stroke-width=".38"/><path d="M.67 29h6.6l5.97-.11 6.6-.53 6.4-.85 6.6-2.02 6.4-.32 6.6 1.38 6.61 1.49 6.39.75 6.61.1 6.39.11 6.6-.11 6.61.11h12.57l6.4-.21 6.6.1 6.39-.21 6.61.21 6.61.11h6.39l6.6-.32 6.4.21 6.6.11 6.61-.11 5.96-.21 6.61.21 6.39-.21 6.61-.96 6.39-.42h6.61l6.6 1.06h6.4l6.6.43 6.39.21h13.22l6.18-.21h6.6l6.39-.96 6.61-2.98h6.39l6.61 3.3 6.6.32h6.4l6.6-.53 6.4.42 6.6.32 6.61.32 5.96-.32 6.61-.11 6.39-.21 6.61-2.34 6.39-2.02 6.61.64 6.6 2.13 6.39.63 6.61.96 6.39.53 6.61-.21 6.6.32 5.97-.21 6.61-.11 6.39-.11 6.61-.31 6.39-2.77 6.6 1.28 6.61 1.27 6.39.53 6.61.32M.67 30.99l6.6.01 5.97-.02 6.6.01 6.4-.1 6.6-.24 6.4.18 6.6-.13 6.61.11 6.39.04 6.61-.02 6.39.11 6.6.03 6.61-.03 5.97.01 6.6-.04 6.4-.06 6.6-.45 6.39-.55 6.61-.15 6.61.11 6.39.59 6.6.07 6.4.21 6.6.05 6.61.15 5.96-.11 6.61-.4 6.39-1.89L188.4 26l6.39 1.53 6.61 2.89 6.6.36h6.4l6.6.13 6.39.08 6.61-.03h6.61l6.18.01 6.6-.03 6.39-.09 6.61-.21h6.39l6.61.03 6.6-.03 6.4.06 6.6.12 6.4.11 6.6.04h6.61l5.96-.04 6.61-.21 6.39-.07 6.61-.16 6.39-.09 6.61.01 6.6.29 6.39.12 6.61.12 6.39.01 6.61.04 6.6.01 5.97-.02 6.61-.02 6.39-.05 6.61-.08 6.39-.26 6.6-.09 6.61.01 6.39.22 6.61.14 6.39.09" id="Stroke-7" stroke="#000" stroke-width=".38"/><path d="M.67 32.97l6.6.02 5.97-.02h6.6l6.4-.02 6.6-.13 6.4-.24 6.6.02 6.61.18 6.39.11 6.61.06 6.39.02 6.6-.01 6.61.02 5.97-.03 6.6-.01 6.4-.12 6.6-.09 6.39-.19 6.61-.23 6.61.19 6.39.21 6.6.11 6.4.06 6.6-.09 6.61.13 5.96-.27 6.61-.48 6.39-.98 6.61-3.12 6.39-.07 6.61 3.8 6.6.63h6.4l6.6.33 6.39.05 6.61.04 6.61.08 6.18-.07 6.6-.14 6.39-.21 6.61-.16h6.39l6.61-.23 6.6.11 6.4.06 6.6.33 6.4.29 6.6.04h6.61l5.96-.01 6.61-.12 6.39-.06 6.61-.47 6.39-.52 6.61-.02 6.6.5 6.39.37 6.61.34 6.39-.06 6.61.07 6.6-.02 5.97-.02 6.61.01 6.39-.04 6.61-.24 6.39-.75 6.6-.38 6.61.52 6.39.5 6.61.33 6.39.03M.67 35h84.38l5.97-.42 6.6.42h6.4l6.6-1.67 6.39.42 6.61.83 6.61.42 6.39-.42 6.6.42 6.4-.42 6.6.42h12.57l6.61-.42 6.39-.83 6.61-.83 6.39-1.67L201.4 35h39.21l6.18-.42 6.6-.41 6.39.83 6.61-.83h19.6l6.4.41 6.6-.41 6.4.83h25.78l6.39-.42h13l6.61-.83h6.6l6.39 1.25 6.61-.83 6.39.41 6.61.42h6.6l5.97-.42h19.61l6.39-4.58 6.6 2.08 6.61 2.5M.67 36.99h6.6l5.97.01h6.6l6.4-.01h6.6l6.4-.28 6.6.07 6.61.01 6.39.09 6.61-.03 6.39.13 6.6.02h12.58l6.6-.01 6.4-.29 6.6.03 6.39-1.02 6.61.5 6.61.59 6.39.18 6.6-.07 6.4.05 6.6.02 6.61-.02 5.96.04 6.61-.04 6.39-.25 6.61-3.07 6.39-1.64 6.61 3.46 6.6 1.52h13l6.39.02h32.39l6.61-.1h6.39l6.61-.04 6.6-.13 6.4-.16 6.6.42 6.4.01 6.6-.02 6.61.01 5.96-.03 6.61.03 6.39-.13 6.61-.05 6.39-.02 6.61.02 6.6.1 6.39-.03 6.61.1 6.39.01 6.61-.01 6.6.02 5.97-.01 6.61.01 6.39-.01 6.61-.09 6.39-.12 6.6-.14 6.61.15 6.39.14h6.61l6.39.06" id="Stroke-8" stroke="#000" stroke-width=".38"/><path d="M.67 39l6.6-.01h5.97l6.6-.01 6.4-.02 6.6-.15 6.4-.75 6.6.48 6.61.01 6.39.25 6.61.13 6.39.06h6.6l6.61.01 5.97-.01 6.6.01 6.4-.03 6.6-.1 6.39-.13 6.61.02 6.61-.02 6.39.01 6.6.19 6.4-.02 6.6-.01 6.61.04 5.96-.04 6.61-.53 6.39-.93L188.4 34l6.39 1.23 6.61 3.6 6.6.13h6.4l6.6.02 6.39.02 6.61-.01 6.61.01h12.78l6.39-.02 6.61-.12h6.39l6.61.02 6.6-.07 6.4.1 6.6-.02 6.4.09 6.6.01 6.61-.02h5.96l6.61-.04 6.39-.18 6.61-.19 6.39.14 6.61.1 6.6.08 6.39.08 6.61.04 6.39-.01h6.61l6.6-.01h5.97l6.61.01 6.39-.04 6.61-.01 6.39-.24 6.6-.08 6.61.21 6.39.07 6.61.06 6.39.03M.67 41l6.6-.02 5.97.02h6.6l6.4-.02 6.6.02h19.61l6.39-.05 6.61.05h38.57l6.6-.05 6.39.03 6.61.02 6.61-.02h6.39l6.6.02h58.18l6.6-.02 6.4.02h12.99l6.61-.02 6.61.02h12.78l6.39-.28 6.61-.95 6.39 1.18 6.61-.16 6.6-.55 6.4-.35 6.6-.16 6.4 1.15 6.6.1 6.61.02 5.96-.02 6.61-.05 6.39-1.64 6.61-3.29 6.39.09 6.61 2.36 6.6 1.35 6.39.48 6.61.6 6.39.03 6.61.07h6.6l5.97-.03 6.61.05 6.39-.02 6.61-.1 6.39-.09 6.6.02 6.61-.43 6.39.11 6.61.09 6.39.33M.67 42.98l6.6-.12 5.97.03 6.6-.04 6.4-.44 6.6-.29 6.4-.33 6.6.86 6.61-.02 6.39.07 6.61-.09 6.39.09 6.6.27 6.61.01 5.97.01 6.6-.01 6.4-.04 6.6-.12 6.39-.14 6.61-.03 6.61-.71 6.39.84 6.6.07 6.4-.07 6.6.2 6.61.01 5.96-.1 6.61-.05 6.39.07 6.61-.12 6.39-.25 6.61.2 6.6-.6 6.4.51 6.6.22 6.39.12 6.61-.1 6.61.03 6.18.07 6.6-.02 6.39-.14 6.61-.05 6.39-.13 6.61-.02 6.6.03 6.4.28 6.6-.08 6.4.13 6.6-.01 6.61-.01 5.96.03 6.61-.02 6.39.02 6.61-.08 6.39-.32 6.61.3 6.6.1 6.39-.01 6.61-.01 6.39.01 6.61.01 6.6-.06 5.97-.05 6.61-.65 6.39-1.2 6.61-.03 6.39-3.01 6.6 2.13 6.61.82 6.39 1.39 6.61.59h6.39" id="Stroke-9" stroke="#000" stroke-width=".38"/><path d="M.67 44.96l6.6-.05 5.97-1.12 6.6.84 6.4-.52 6.6-.49 6.4-.36 6.6.61 6.61.6 6.39-.1 6.61.1 6.39-.01 6.6.31 6.61.1 5.97-.16 6.6.14 6.4-.15 6.6-.17 6.39-.5 6.61.09h6.61l6.39.09 6.6.1 6.4-.82 6.6 1.18 6.61-.03 5.96.02 6.61-.11 6.39.05 6.61-.28 6.39-.51 6.61-.73 6.6.59 6.4.75 6.6.09 6.39.1 6.61-.06 6.61-.1 6.18-.01 6.6.14 6.39-.27 6.61-1.12 6.39.82 6.61.11 6.6-.25 6.4.27 6.6.24 6.4.17 6.6.26 6.61-.1 5.96-.08 6.61-.25 6.39.22 6.61-.36 6.39.01 6.61.08 6.6.03 6.39.28 6.61.15 6.39.01 6.61.08 6.6-.12 5.97.03 6.61-.21 6.39-.28 6.61-.49 6.39-2.7 6.6.21 6.61-1.32 6.39 2.93 6.61 1.24 6.39.65M.67 47h84.38l5.97-1 6.6 1h13l6.39-1 6.61 1H221l6.39-1 6.61 1h45.39l6.6-1 6.4 1h6.6l6.4-1 6.6 1h45.18l6.6-1h19.39l6.61 1h32.18l6.39-2 6.6-3 6.61 1 6.39 2 6.61 2h6.39M.67 49h32.17l6.4-.23 6.6.23h84.39l6.39-.23 6.6.23h181.34l6.61-.11 6.39.11 6.61-.23 6.39.12 6.61.11 6.6-.45 6.39-.12 6.61-.11 6.39.23 6.61.45 6.6-.23 5.97-.22 6.61-.23 6.39-.12 6.61.69 6.39-.34 6.6-2.05 6.61-2.5 6.39 1.7 6.61 1.82 6.39 1.25" id="Stroke-10" stroke="#000" stroke-width=".38"/><path d="M.67 51l6.6-.01h18.97l6.6.01 6.4-.15 6.6.04 6.61.11 6.39-.1 6.61.08 6.39.01h25.78l6.4-.01 6.6-.16 6.39.02 6.61.14 6.61-.1 6.39.03 6.6.08h6.4l6.6.01h12.57l6.61-.01 6.39-.02 6.61.01 6.39-.2 6.61.15 6.6.04 6.4-.04 6.6-.02 6.39.06L234 51l6.61-.09 6.18-.03 6.6-.06 6.39-.46 6.61-.25 6.39.8 6.61.02 6.6-.01 6.4-.1 6.6-.46 6.4-.25 6.6.89h25.57l6.61-.05 6.39-.12 6.61-.01 6.6-1.55 6.39.82 6.61.43 6.39.48 6.61-.04 6.6.03h18.97l6.61-.15 6.39-.73 6.6-.86 6.61-3.25 6.39 3.09 6.61 1.28 6.39.59M.67 53h103.35l6.6-.02h6.39l6.61-.04 6.61.04 6.39-.04 6.6.06h32.18l6.39-.02 6.61.02 6.39-.02 6.61.02h149.16l6.61-.02 6.6-.29 6.39.19 6.61-.15 6.39-.1 6.61.35 6.6.02h18.97l6.61-.23 6.39-2.19 6.6 1.05 6.61-2.63 6.39-1 6.61 1.54 6.39 2.72M.67 54.99l6.6-.01 5.97.01 6.6-.04 6.4-.07 6.6-.21 6.4-1.52 6.6.97 6.61-.17 6.39.57 6.61.28 6.39.19 6.6.01 6.61-.01 5.97.01 6.6-.11 6.4-.16 6.6-.18 6.39-.68 6.61-.22 6.61.23 6.39.14 6.6.26 6.4.31 6.6.22 6.61.16 5.96-.09 6.61-.12 6.39-.31 6.61-.63 6.39-1.23 6.61.22 6.6-.29 6.4 1.81 6.6.58 6.39.09 6.61-.01h12.79l6.6.01 6.39-.01 6.61-.05 6.39-.01 6.61.05 6.6.01 6.4-.05 6.6.05 6.4.01h32.17l6.61-.01 6.39-.07 6.61-.13 6.6-.09 6.39.2 6.61-.11 6.39.19 6.61.01h6.6l5.97-.11 6.61-.2 6.39.09 6.61-1.59 6.39-3.18 6.6 1.48 6.61-.02 6.39 2.56 6.61.83 6.39.15" id="Stroke-11" stroke="#000" stroke-width=".38"/><path d="M.67 56.99l6.6-.07 5.97.03 6.6-.07 6.4.01 6.6-.12 6.4-.06 6.6.19 6.61.04 6.39-.16 6.61.14 6.39.08 6.6-.03 6.61.01 5.97-.01 6.6.01 6.4-.13 6.6-.14 6.39-.13 6.61-.11 6.61.12 6.39.33 6.6-.16 6.4-.03 6.6.22 6.61-.07 5.96-.1 6.61.18 6.39-.04 6.61-.05 6.39-.08 6.61-.17 6.6.25 6.4-.05 6.6.14 6.39-.01 6.61.04 6.61-.06 6.18-.04 6.6.1 6.39-.03 6.61-.23 6.39-.03 6.61-.01 6.6-.1 6.4.01 6.6-.06 6.4.25 6.6.13 6.61-.02 5.96.03 6.61-.08 6.39-.04 6.61-.05h6.39l6.61-.09 6.6-.18 6.39-.13 6.61-.11h6.39l6.61.54 6.6-.49 5.97.32 6.61-.06 6.39-.36 6.61-.66 6.39-3.2 6.6-.34 6.61.31 6.39 2.12 6.61 1.84 6.39.5M.67 58.98l6.6.02 5.97-.02 6.6-.06 6.4-.01 6.6-.17 6.4-.09 6.6-.07 6.61-.01 6.39.01 6.61.18 6.39.11 6.6.08 6.61-.02 5.97.05 6.6-.02 6.4-.1 6.6-.4 6.39-1.01 6.61.06 6.61.33 6.39.13 6.6.12 6.4.01 6.6.72 6.61.09 5.96.02h6.61l6.39.02 6.61-.17 6.39-.6 6.61.03 6.6-.37 6.4.28 6.6.36 6.39.17 6.61.24 6.61.1 6.18-.04 6.6.04 6.39-.04 6.61-.05 6.39-.26 6.61-.04h6.6l6.4.23 6.6-.1 6.4.03 6.6.13 6.61.08 5.96-.01 6.61-.01 6.39-.06 6.61-.17 6.39-.77 6.61-.16 6.6-.35 6.39-.16 6.61.08 6.39.6 6.61.61 6.6.07 5.97.1 6.61-.08 6.39-.11 6.61-.3 6.39-2.55 6.6-1.7 6.61.67 6.39 1.98 6.61 1.53 6.39.68" id="Stroke-12" stroke="#000" stroke-width=".38"/><path d="M.67 61h12.57l6.6-.59 6.4-3.28 6.6-.27 6.4-.86 6.6.32 6.61 4.5h6.39l6.61.18 6.39-.05 6.6.05 6.61-1.71 5.97 1.39 6.6.27 6.4.05 6.6-.05 6.39-4.9 6.61 4.95 6.61-.14 6.39.14h38.78l6.39-.05 6.61-.31 6.39-2.79 6.61 1.39 6.6-1.57 6.4 3.28 6.6.05 6.39-.05L234 61h19.39l6.39-.09 6.61-.18 6.39-.59 6.61.54 6.6.27 6.4-.09 6.6.05 6.4.04 6.6.05h19.18l6.39-.05 6.61-.58 6.39.13 6.61-1.17 6.6 1.17 6.39.27h6.61l6.39.23h19.18l6.61-.09 6.39.09 6.61-1.04 6.39-.94 6.6.22 6.61-.09 6.39 1.13 6.61.72 6.39-.23M.67 63h116.34l6.61-.26 6.61.26h129.55l6.61-.13 6.39.13h58.39l6.39-5 6.61.77 6.39 4.1 6.61-1.15 6.6 1.28h58.18l6.39-1.15 6.6-2.44 6.61-.77 6.39 3.72 6.61.38h6.39M.67 62.69l6.6.74 5.97.41 6.6.46 6.4-.16 6.6-.49 6.4-.42 6.6-.67 6.61-.55 6.39-.18 6.61.74 6.39-.61 6.6.04 6.61.18 5.97.56 6.6 1.09 6.4-.37 6.6-.06 6.39.01 6.61-.25 6.61.36 6.39.18 6.6-.37 6.4.12 6.6-1.39 6.61.6 5.96.72 6.61-.16 6.39-.88 6.61.5 6.39-.72 6.61-.26 6.6 1.57 6.4-.57 6.6.32 6.39-.06 6.61-.32 6.61.21 6.18.56 6.6-1.27 6.39.02 6.61.38 6.39-1.16 6.61.22 6.6.87 6.4-.52 6.6.27 6.4-.76 6.6 1.22 6.61.21 5.96.32 6.61-.94 6.39.75 6.61.3 6.39-.06 6.61.2 6.6.18 6.39-.12 6.61.02 6.39-.48 6.61-.18 6.6.06 5.97-.29 6.61.22 6.39-.37 6.61-1.84 6.39.45 6.6.8 6.61-2.07 6.39.59 6.61 1.97 6.39.24" id="Stroke-13" stroke="#000" stroke-width=".38"/><path d="M.67 65.04l6.6.49 5.97.33 6.6.16 6.4-.3 6.6-.97 6.4.86 6.6-1.49 6.61.13 6.39.41 6.61.73 6.39-.15 6.6.56 6.61-.18 5.97-.77 6.6.93 6.4-.84 6.6-.03 6.39.05 6.61.46 6.61.55 6.39.13 6.6-.79 6.4.03 6.6-.68 6.61 1.41 5.96-.21 6.61-.06 6.39-1.7 6.61.75 6.39.11 6.61-.13 6.6.97 6.4-.05 6.6-.13 6.39-.09 6.61-.33 6.61.42 6.18-.01 6.6-.51 6.39.37 6.61-.29 6.39-.93 6.61.6 6.6.43 6.4-.13 6.6.19 6.4-.6 6.6.39 6.61.78 5.96.09 6.61-.68 6.39.56 6.61-.51 6.39.59 6.61.17 6.6-.25 6.39-.05 6.61-.43 6.39-.93 6.61.25 6.6-2.72 5.97 2.93 6.61-.1 6.39-.82 6.61-1.06 6.39 2.34 6.6.76 6.61.19 6.39.16 6.61-.03 6.39.09M.67 65.14l6.6-.37 5.97 2.47 6.6.74 6.4.16 6.6-1.73 6.4.58 6.6-.55 6.61.65 6.39-.7 6.61.17 6.39.14 6.6.51 6.61.2 5.97-.05 6.6.59 6.4-.62 6.6-.51 6.39.33 6.61.12 6.61.05 6.39.68 6.6-1.36 6.4-.06 6.6-1.53 6.61 2.42 5.96-.34 6.61-.74 6.39-2.39 6.61.97 6.39-.23 6.61-.15 6.6 1.91 6.4-1.64 6.6.3 6.39 3.44 6.61-2.69 6.61 1.08 6.18.93 6.6-.25 6.39.25 6.61-.05 6.39-.34 6.61.08 6.6-.17 6.4-.34 6.6.22 6.4-1.1 6.6.63 6.61.82 5.96.33 6.61.12 6.39-.14 6.61-.21 6.39-.14 6.61.51 6.6-.02 6.39-.09 6.61-.39 6.39.42 6.61-.43 6.6-.45 5.97-.33 6.61 1.01 6.39-.09 6.61-2.18 6.39 1.02 6.6.2 6.61.17 6.39-.26 6.61-.45 6.39-.57" id="Stroke-14" stroke="#000" stroke-width=".38"/><path d="M.67 68.25l6.6-.97 5.97 1.47 6.6.92 6.4-.51 6.6-.72 6.4.51 6.6.13 6.61.89 6.39-1.7 6.61 1.22 6.39-1.42 6.6 1.41 6.61-.34 5.97-.03 6.6.85 6.4.1 6.6-.29 6.39-.14 6.61-.13 6.61.37 6.39-.1 6.6-.54 6.4-.16 6.6-.82 6.61.41 5.96.35 6.61.44 6.39-1.26 6.61.82 6.39.08 6.61-.13 6.6.71 6.4-.51 6.6-.03 6.39-.66L234 67l6.61.62 6.18 1.51 6.6-1.72 6.39.34 6.61 1.36 6.39-.13 6.61.34 6.6-1.01 6.4-2.31 6.6 1.97 6.4-1 6.6.1 6.61.22 5.96.91 6.61.18 6.39.24 6.61.49 6.39-.03 6.61.56 6.6.39 6.39.28 6.61.09 6.39-.14 6.61-.15 6.6-.11 5.97-.8 6.61.45 6.39.09 6.61-1.67 6.39.75 6.6.05 6.61.03 6.39.55 6.61.43 6.39-.33M.67 71.72l6.6-1.17 5.97-.32 6.6 1.6 6.4-.64 6.6-1.38 6.4-1.28 6.6.85 6.61.53 6.39-1.27 6.61.32 6.39 1.81 6.6.63h6.61l5.97-.31 6.6 1.48 6.4-.53 6.6.22 6.39-.32 6.61-1.28 6.61-.11 6.39.85 6.6-1.8 6.4.95 6.6-.42 6.61 1.06h5.96l6.61-2.13 6.39-.74 6.61-.32 6.39 1.7 6.61.75h6.6l6.4.64 6.6.53 6.39.1H234l6.61.22 6.18.63 6.6-2.23 6.39 1.06h6.61l6.39.32 6.61-.32 6.6.64 6.4-1.38 6.6.53 6.4-1.17 6.6 1.6 6.61-.22 5.96.11 6.61-1.81 6.39-.53 6.61.74 6.39 1.18 6.61 1.48 6.6-.31 6.39-.54 6.61.32 6.39.64 6.61-.64 6.6-.74 5.97.96 6.61-.54 6.39-.53h6.61l6.39-.64 6.6.11 6.61-1.17 6.39.32 6.61 1.49 6.39.32" id="Stroke-15" stroke="#000" stroke-width=".38"/><path d="M.67 73.29l6.6.22 5.97.61 6.6.13 6.4-.21 6.6-.12 6.4-.1 6.6-.63 6.61-2.3 6.39-.89 6.61 3.25 6.39.38 6.6.76 6.61-.14 5.97-.62 6.6.81 6.4-.21 6.6.07 6.39-.48 6.61-.28 6.61.05 6.39-.28 6.6-2.04 6.4 1.34 6.6.03 6.61 1.51 5.96.09 6.61-.17 6.39-.75 6.61-.08 6.39.03 6.61-.34 6.6-.42 6.4.38 6.6.51 6.39.48 6.61-.11 6.61.42 6.18.13 6.6-.28 6.39.15 6.61-.32 6.39-.05 6.61.15 6.6-.03 6.4-.94 6.6.17 6.4-.01 6.6-.22 6.61.86 5.96.08 6.61-1.07 6.39.44 6.61.45 6.39-.07 6.61.64 6.6-.09 6.39.04 6.61-.1 6.39-.24 6.61.42 6.6.05 5.97.04 6.61.17 6.39-.08 6.61-.34 6.39-.14 6.6-.14 6.61-.75 6.39.62 6.61.21 6.39-.3M.67 75.54l6.6.42 5.97.25 6.6.41 6.4-.16 6.6-.18 6.4.34 6.6-.23 6.61-.02 6.39-.1 6.61.25 6.39-.05 6.6.01 6.61-.01 5.97-.32 6.6.11 6.4-.38 6.6.2 6.39-.2 6.61-.06 6.61.38 6.39-.01 6.6-.54 6.4-.1 6.6-.66 6.61.89 5.96.33 6.61.14 6.39-.25 6.61.19 6.39-.02 6.61-.01 6.6.18 6.4.02 6.6.09 6.39-.02 6.61-.15 6.61.18 6.18.05 6.6-.17 6.39-.12 6.61.2 6.39-.21 6.61.07 6.6.17 6.4-.08 6.6-.08 6.4-.09 6.6-4.2 6.61 1.12 5.96-.1 6.61.24 6.39.98 6.61.47 6.39.02 6.61.68 6.6-.03 6.39.09 6.61.06 6.39-1.12 6.61-.65 6.6-.27 5.97-.69 6.61 1.05 6.39.77 6.61-.55 6.39.58 6.6.52 6.61-.03 6.39.23 6.61.17 6.39-.03" id="Stroke-16" stroke="#000" stroke-width=".38"/><path d="M.67 78.73l6.6-.05 5.97-.04 6.6-.14 6.4-.23 6.6-.03 6.4-.12 6.6.44 6.61.2 6.39.07 6.61.07 6.39.03 6.6.02 6.61.02h5.97l6.6-.05 6.4-.04 6.6-.04 6.39.06 6.61-.1 6.61.06 6.39.02 6.6-.14 6.4.13 6.6-.13 6.61.12h5.96l6.61-.2 6.39-.19 6.61-.46 6.39-.87 6.61 1.26 6.6.28 6.4.05 6.6.19 6.39-.02 6.61-.07 6.61.09 6.18-.03 6.6.07 6.39.01 6.61-.07 6.39-.05 6.61-.03 6.6.08 6.4-.03 6.6.1 6.4.01 6.6-.06 6.61-.01 5.96-.09 6.61.1 6.39-.02 6.61-.11 6.39-.35 6.61-.23 6.6.35 6.39.16 6.61-.31 6.39.47 6.61-.51 6.6.13 5.97-.09 6.61.01 6.39-.87 6.61-2.19 6.39-1.36 6.6 2.26 6.61 1.47 6.39.7 6.61.41 6.39.13M.67 80.54l6.6.12 5.97.15 6.6.07 6.4-.05 6.6-.2 6.4-.86 6.6-.44 6.61.99 6.39.48 6.61-.1 6.39-.02 6.6-.27 6.61.22 5.97.06 6.6.04h6.4l6.6-.52 6.39-.78 6.61-.32 6.61-.18 6.39 1.62 6.6.38 6.4.03 6.6-.1 6.61.06 5.96.05 6.61.01 6.39-.03 6.61-.1 6.39-.39 6.61-.13 6.6.08 6.4-.03 6.6.2 6.39.11 6.61-.38 6.61.13 6.18.28 6.6.06 6.39-.17 6.61-.67 6.39-1 6.61.24 6.6.89 6.4.41 6.6.24 6.4.19 6.6-.26 6.61.17 5.96.06 6.61.04 6.39-.07 6.61-.4 6.39-.01 6.61.05 6.6.08 6.39.11 6.61.13 6.39.08 6.61-.47 6.6.31 5.97.11h6.61l6.39.06 6.61-.19 6.39-1.28 6.6-3.01 6.61-.42 6.39 3.01 6.61.39 6.39.55" id="Stroke-17" stroke="#000" stroke-width=".38"/><path d="M.67 82.91l6.6.03 5.97-.02 6.6.01h6.4l6.6-.11 6.4-.26 6.6-.16 6.61.22 6.39.22 6.61.03 6.39.07 6.6.02 6.61.02h5.97l6.6-.01h6.4l6.6-.02 6.39-.03 6.61-.45 6.61-1.06 6.39.85 6.6.43 6.4.26 6.6-.01h6.61l5.96.04h13l6.61-.05 6.39-.2 6.61-.24 6.6-.23 6.4-.07 6.6.21 6.39.11 6.61.28 6.61-.05 6.18.19 6.6-.03 6.39.06 6.61-.06 6.39-.19 6.61-.18 6.6.05 6.4-.08 6.6.12 6.4.31 6.6-.06 6.61.01 5.96.05 6.61-.04 6.39-.07 6.61-.14 6.39-.72 6.61.21 6.6.36 6.39.12 6.61.17 6.39.13 6.61-.43 6.6.27h5.97l6.61.03 6.39-.02 6.61-.1 6.39-1.85 6.6-1.67 6.61-1.18 6.39 3.37 6.61.57 6.39.5M.67 84.86l6.6.08 5.97.04 6.6.01 6.4-.02 6.6-.04 6.4.02 6.6-.11 6.61.03h6.39l6.61.02 6.39.02 6.6-.07 6.61.07 5.97.06 6.6-.01 6.4-.01 6.6-.01 6.39-.01 6.61-.12 6.61-.79 6.39.28 6.6.21 6.4.06 6.6-.7 6.61.58 5.96.19 6.61.26 6.39.02 6.61-.14 6.39.02 6.61-.11 6.6-.03 6.4-.28 6.6.01 6.39-.11 6.61-.31 6.61.49 6.18.39 6.6.08 6.39.03h6.61l6.39-.05 6.61-.15 6.6-.01 6.4.01 6.6-.05 6.4.04 6.6-.04 6.61.15 5.96-.01 6.61.11 6.39-.05 6.61-.21 6.39-.35 6.61-.34 6.6.17 6.39.18 6.61-.19 6.39.59 6.61-.55 6.6.37 5.97.19 6.61.07 6.39-.12 6.61-.04 6.39-1.37 6.6-2.24 6.61-1.07 6.39 1.84 6.61 1.22 6.39.26" id="Stroke-18" stroke="#000" stroke-width=".38"/><path d="M.67 85.74l6.6.32 5.97-.1 6.6.28 6.4.15 6.6-.25 6.4-.29 6.6.65 6.61-.54 6.39.68 6.61.25 6.39.04 6.6-.25 6.61.03 5.97-.21 6.6.03 6.4.15 6.6-.08 6.39-.18 6.61-.03h6.61l6.39.18 6.6-.54 6.4.68 6.6-.21 6.61.1 5.96-.14 6.61.07 6.39-.21 6.61-.15 6.39-.61 6.61-.07 6.6.04 6.4.89 6.6-.18 6.39-.18 6.61.08 6.61.43 6.18-.15 6.6-.39 6.39.18 6.61-.43 6.39.25 6.61.11 6.6.32 6.4-.14 6.6.03 6.4.43 6.6-.86 6.61.58 5.96-.18h6.61l6.39.14 6.61-1.11 6.39.5 6.61.57 6.6-.64 6.39.43 6.61-.54 6.39-1.37 6.61.04 6.6.32 5.97.72 6.61.25 6.39.58 6.61-3.13 6.39-1.08 6.6.65 6.61 2.01 6.39 1.15 6.61.29 6.39.5M.67 88.62l6.6.09 5.97.09 6.6.07 6.4-.02 6.6-.34 6.4-.26 6.6-.05 6.61.17 6.39.36 6.61.11 6.39.07 6.6-.25 6.61.02 5.97.05 6.6.06 6.4.09 6.6-.23 6.39-.17 6.61.19 6.61-.46 6.39.33 6.6.04 6.4.16 6.6-.11 6.61.08 5.96-.01 6.61.1 6.39-.1 6.61-.46 6.39-.57 6.61-.22 6.6.54 6.4.3 6.6.15 6.39.08 6.61.04 6.61.01 6.18.07 6.6-.06 6.39-.05 6.61-.19 6.39-.28 6.61.13 6.6.01 6.4.08 6.6.06 6.4.23 6.6-.21 6.61.17 5.96-.11 6.61-.02 6.39.02 6.61-.41 6.39.25 6.61-.13 6.6-.06 6.39.06 6.61.33 6.39-.44 6.61.06 6.6.09 5.97.16 6.61.2 6.39-.6 6.61-1.47 6.39-2.46 6.6 1.06 6.61 1.62 6.39 1.3 6.61.48 6.39.3" id="Stroke-19" stroke="#000" stroke-width=".38"/><path d="M.67 89.69l6.6-.58 5.97.72 6.6.25 6.4.68 6.6-.34h6.4l6.6-.34 6.61.77h6.39l6.61-.24 6.39.34 6.6-.44 6.61.15 5.97-.44 6.6.44 6.4.05h6.6l6.39-.29 6.61.05 6.61-.2 6.39.49 6.6-.49 6.4.44 6.6.05 6.61.09 5.96.05 6.61-.19 6.39.19 6.61-.19 6.39-.83 6.61.2 6.6.09 6.4.2 6.6.39 6.39-.29 6.61.29 6.61-.25 6.18.2 6.6.05 6.39-.05 6.61-.1 6.39-.14 6.61-.25 6.6.44h13l6.4.24 6.6-.34 6.61-.48 5.96.19 6.61-.29 6.39.29 6.61-.19 6.39-.54 6.61-.43 6.6-.93 6.39.1 6.61 1.6 6.39-1.26 6.61.34 6.6-.48 5.97-.1 6.61 1.41 6.39-.49 6.61-1.75 6.39-1.55 6.6.1 6.61 1.6 6.39 2.13 6.61.88 6.39.05M.67 92.95l6.6.02 5.97.02h6.6l6.4-.02 6.6-.1 6.4-.12 6.6-.04 6.61.19 6.39.08h6.61l6.39.01 6.6-.03 6.61.03 5.97-.01h13l6.6-.06 6.39-.29 6.61.09h6.61l6.39.11 6.6.06 6.4.06 6.6-.04 6.61.02 5.96.01 6.61.01h6.39l6.61-.16 6.39-.52 6.61-.22 6.6.3 6.4.19 6.6.27 6.39.12 6.61-.03 6.61-.01 6.18.04h6.6l6.39.01 6.61-.06 6.39-.1 6.61.11 6.6-.02 6.4.06 6.6-.01h6.4l6.6.02 6.61.02 5.96-.01 6.61-.01 6.39-.21 6.61-.24 6.39-.23 6.61.37 6.6.12 6.39.03 6.61.14 6.39-.05 6.61-.03 6.6.02 5.97.04 6.61.03 6.39-.17 6.61-.28 6.39-1.76 6.6-2.72 6.61 2.01 6.39 2.35 6.61.5 6.39.1" id="Stroke-20" stroke="#000" stroke-width=".38"/><path d="M.67 94.86l6.6.12 5.97-.08 6.6.08 6.4-.17 6.6-.12 6.4-.53 6.6.38 6.61-.02 6.39.19 6.61-.05 6.39.22h13.21l5.97.05 6.6-.07 6.4.07h6.6l6.39-.29 6.61-.63 6.61-1.56 6.39.84 6.6.63 6.4.86 6.6-.36 6.61.17 5.96.03 6.61-.29 6.39.26 6.61-.77 6.39-1.51 6.61.43 6.6-.38 6.4.14 6.6.1 6.39.38 6.61.72 6.61.77 6.18.24 6.6-.24 6.39.15 6.61-.27 6.39-.89 6.61.41 6.6.14 6.4.34 6.6-.14 6.4.6 6.6-.6 6.61.31 5.96-.17 6.61.07 6.39-1.68 6.61-2.07 6.39-.67 6.61 2.02 6.6 1.25 6.39.48 6.61.31 6.39.65 6.61-.65 6.6.6 5.97.22 6.61-.05 6.39-.05 6.61-.02 6.39-1.37 6.6-2.43 6.61.29 6.39.89 6.61.89 6.39-.12M.67 96.95l6.6.03h5.97l6.6.01 6.4-.02 6.6.02 6.4-.03 6.6-.02 6.61.02h6.39l6.61.01 6.39.01 6.6-.03h6.61l5.97.02h6.6l6.4.01 6.6-.03 6.39-.07 6.61.02 6.61-.1 6.39.04 6.6.02 6.4.09 6.6-.07 6.61-.02 5.96.07 6.61.02 6.39.03 6.61-.06 6.39-.23 6.61-.03 6.6.15 6.4-.17 6.6-.02 6.39.18 6.61-.08 6.61.14 6.18.1 6.6.02 6.39-.01 6.61.01 6.39-.02 6.61-.3 6.6.07 6.4.03 6.6.02 6.4.11 6.6-.14h6.61l5.96.14 6.61.01 6.39.03 6.61-.13 6.39-.12 6.61-.05 6.6.09 6.39.16 6.61.02 6.39.04 6.61-.66 6.6.32 5.97.04 6.61.09 6.39-.18 6.61-.17 6.39-1.37 6.6-2.94 6.61-.07 6.39 1.6 6.61 1.78 6.39.2" id="Stroke-21" stroke="#000" stroke-width=".38"/><path d="M.67 98.65l6.6.19 5.97.03 6.6.02 6.4.01 6.6-.02 6.4-.21 6.6-.59 6.61.06 6.39.41 6.61.05 6.39.06 6.6.04 6.61.01 5.97-.03 6.6.02 6.4.06 6.6-.05 6.39-.42 6.61-.67 6.61-1.05 6.39.74 6.6.96 6.4.23 6.6.05 6.61.17 5.96.08 6.61.08 6.39.04 6.61-.08 6.39-.31 6.61-.32 6.6-.28 6.4-.37 6.6-.06 6.39.2 6.61.58 6.61.18 6.18.18 6.6.16 6.39.03 6.61-.19 6.39-.28 6.61-.73 6.6.39 6.4.52 6.6-.3 6.4.32 6.6-.19 6.61.2 5.96.11 6.61.09 6.39-.15 6.61-.38 6.39-.44 6.61-.11 6.6-.02 6.39-.05 6.61.54 6.39.19 6.61-.23 6.6.44 5.97.1 6.61.1 6.39.01 6.61-.02 6.39-.89 6.6-2.4 6.61-1.46 6.39 1.83 6.61.85 6.39 2.31M.67 98.35l6.6.89 5.97.68 6.6.28 6.4.08 6.6-.63 6.4-.81 6.6-1.29 6.61.84 6.39 1.07 6.61.38 6.39.66 6.6.06 6.61-.2 5.97.29 6.6.07 6.4.05 6.6-.09 6.39-.11 6.61-.12 6.61-.21 6.39.14 6.6.05 6.4.04 6.6-.09 6.61.14 5.96-.16 6.61.2 6.39-.07 6.61-.14 6.39-1.16 6.61-.66 6.6-.27 6.4-.24 6.6 1.34 6.39.32 6.61.14 6.61.41 6.18.39 6.6.1 6.39-.01 6.61-.09 6.39.03 6.61-.03 6.6.06 6.4.03 6.6-.01 6.4.22 6.6-.63 6.61.03 5.96-.21 6.61.43 6.39.17 6.61-.13 6.39-.79 6.61-.19 6.6.17 6.39.82 6.61-1.32 6.39 1.11 6.61-1.35 6.6.15 5.97.36 6.61.56 6.39-.34 6.61-.72 6.39-2.18 6.6-.86 6.61 1.25 6.39 1.77 6.61.63 6.39.97" id="Stroke-22" stroke="#000" stroke-width=".38"/><path d="M.67 102.25l6.6.3 5.97.38 6.6-.22 6.4.09 6.6-.8 6.4-3.21 6.6-.79 6.61 3.38 6.39.52 6.61.16 6.39-.11 6.6.45 6.61.03 5.97.2 6.6.22 6.4-.04 6.6-.4 6.39-.86 6.61-.82 6.61 1.35 6.39.85 6.6.02 6.4.03 6.6-.78 6.61.51 5.96.24 6.61-.06 6.39-.01 6.61.02 6.39-.45 6.61-.6 6.6.09 6.4.48 6.6-.4 6.39-.16 6.61-.45 6.61.8 6.18.24 6.6.24 6.39.07 6.61-.55 6.39-.59 6.61-.08 6.6.05 6.4-.09 6.6 1.2 6.4-1.1 6.6.25 6.61 1.13 5.96-.01 6.61-.17 6.39-.24 6.61-.62 6.39.06 6.61-.09 6.6.15 6.39.18 6.61-.47 6.39.6 6.61-.44 6.6.34 5.97.35 6.61.12h6.39l6.61.05 6.39-.74 6.6-2.91 6.61-.99 6.39 1.04 6.61-.61 6.39-.57M.67 104.98l6.6-.01 5.97.02 6.6-.02 6.4-.02 6.6-.02 6.4-.12 6.6.08 6.61.06 6.39.03 6.61.01h6.39l6.6-.14 6.61.02 5.97.05 6.6-.01 6.4-.02 6.6-.17 6.39-.18 6.61-.13 6.61-1.05 6.39.79 6.6.14 6.4.46 6.6-.65 6.61.23 5.96.34 6.61.12 6.39.06 6.61-.06 6.39-.95 6.61-.72 6.6.42 6.4-.05 6.6.37 6.39.88 6.61-.56 6.61.26 6.18.08 6.6.14 6.39.08 6.61-.04 6.39.01 6.61-.03 6.6.17h6.4l6.6.06 6.4.05 6.6-.06 6.61-.03 5.96-.24 6.61.12 6.39-.09 6.61-.68 6.39-.19 6.61.74 6.6.01 6.39-.03 6.61-.15 6.39.48 6.61-.29 6.6.05 5.97-.08 6.61.12 6.39-.1 6.61-.32 6.39-1.49 6.6-2.73 6.61 1.34 6.39 2.14 6.61.74 6.39.58" id="Stroke-23" stroke="#000" stroke-width=".38"/><path d="M.67 106.55l6.6.2 5.97.18h6.6l6.4.01 6.6.02 6.4-.13 6.6-.19 6.61.07 6.39.19h6.61l6.39-.01 6.6-.06 6.61-.01 5.97-.01 6.6.06 6.4-.18 6.6-.56 6.39-.76 6.61.26 6.61-1.35 6.39 1.3 6.6 1.01 6.4.12 6.6-.7 6.61.42 5.96.28 6.61.1 6.39.09 6.61-.06 6.39-.5 6.61-.55 6.6.66 6.4-.09h6.6l6.39.01 6.61-2.02 6.61 1.07 6.18.26 6.6.48 6.39.28 6.61-.55 6.39-.2 6.61-.57 6.6 1.04 6.4.4 6.6-.04 6.4.32 6.6-.62 6.61.05 5.96-.11 6.61.28 6.39.3 6.61-.61 6.39-.78 6.61.04 6.6.22 6.39-.17 6.61.92 6.39-.02 6.61-.19 6.6.22 5.97.06 6.61.19 6.39-.18 6.61.15 6.39-1.36 6.6-2.52 6.61-.71 6.39 3.11 6.61.12 6.39.29M.67 108.57l6.6.02 5.97-.15 6.6-.19 6.4-.33 6.6-2.25 6.4-.34 6.6 1.72 6.61.99 6.39.46 6.61.18 6.39.08 6.6-.05 6.61.05 5.97-.06 6.6.11 6.4-.25 6.6-.2 6.39.23 6.61-.01 6.61-.24 6.39-.07 6.6.02 6.4.3 6.6.12 6.61-.11 5.96.02 6.61.06 6.39-.11 6.61-.5 6.39-.86 6.61.39 6.6.28 6.4.12 6.6.12 6.39-.13 6.61-.18 6.61-.37 6.18-.29 6.6.25 6.39-.28 6.61.51 6.39.18 6.61.45 6.6.14 6.4.18 6.6-.03 6.4-.12 6.6-.15 6.61.27 5.96-.19 6.61.02 6.39-.22 6.61-.49 6.39.04 6.61.37 6.6.38 6.39-.16 6.61-.06 6.39-.3 6.61-.17 6.6.05 5.97.04 6.61.32 6.39-.51 6.61-2.6 6.39-1.07 6.6 1.07 6.61 1.46 6.39 1.19 6.61.83 6.39.27" id="Stroke-24" stroke="#000" stroke-width=".38"/><path d="M.67 108.91l6.6.13 5.97.72 6.6.29 6.4-.21 6.6-1.33 6.4-.32 6.6-1.16 6.61-1.03 6.39 2.07 6.61 1.4 6.39.82 6.6.21 6.61.03 5.97.02 6.6.17 6.4-.34 6.6-.04 6.39-.05 6.61.02 6.61.27 6.39.08 6.6-.06 6.4.03 6.6-.06 6.61.06 5.96-.13 6.61-.21 6.39-.97 6.61-.72 6.39-.54 6.61.36 6.6 1.06 6.4.03 6.6.56 6.39-.02 6.61.06 6.61.15 6.18.17 6.6-.29 6.39-.09 6.61-.26 6.39-.06 6.61.14 6.6.12 6.4-.49 6.6.41 6.4-.62 6.6.52 6.61.25 5.96.33 6.61-.28 6.39.1 6.61.05 6.39.1 6.61.07 6.6.06 6.39-.02 6.61.02 6.39-.13 6.61-.08 6.6.05 5.97-.01 6.61.18 6.39.02 6.61-.48 6.39.01 6.6-.06 6.61-.5 6.39.37 6.61.4 6.39-.11M.67 113h12.57l6.6-2 6.4 2 6.6-2 6.4 2 6.6-1 6.61 1h6.39l6.61-1 6.39 1h32.18l6.6-1h13l6.61 1h6.39l6.6-1 6.4 1h38.78l6.39-1 6.61 1h6.6l6.4-3 6.6 2 6.39 1H234l6.61-1 6.18 1h19.6l6.39-4 6.61 3 6.6 1h13l6.4-1h13.21l5.96-1 6.61 2 6.39-1 6.61-2 6.39-1 6.61-1 6.6 2 6.39 3 6.61-2 6.39 1 6.61 1 6.6-2 5.97 1 6.61 1h6.39l6.61-1h12.99l6.61-2 6.39 3h13M.67 115h38.57l6.6-.83 6.61.83h6.39l6.61-.83 6.39.83h19.18l6.6-.83 6.4.83h12.99l6.61-.83 6.61.83 6.39-.83 6.6.83h38.57l6.61-5 6.39 5 6.61-.83h6.6l6.4.83h51.99l6.39-.83 6.61.83 6.6-.83 6.4.83h32.17l6.61-.83 6.39.83h26.21l6.39-.83 6.61.83 6.39-.83 6.61.83 6.6-.83h5.97l6.61.83h13l6.39-2.5 6.6 1.67h6.61l6.39-.84 6.61.84 6.39-1.67" id="Stroke-25" stroke="#000" stroke-width=".38"/><path d="M.67 117h84.38l5.97-1.25 6.6 1.25h13l6.39-2.5 6.61 1.25h19.6l6.4 1.25 6.6-1.25 6.61 1.25h31.96l6.61-1.25L208 117l6.4-2.5 6.6 2.5h13l6.61-1.25 6.18 1.25h12.99l6.61-2.5 6.39 1.25 6.61-3.75 6.6 2.5 6.4 1.25 6.6 1.25h6.4l6.6-2.5 6.61 1.25 5.96 1.25h13l6.61-1.25 6.39-1.25 6.61 1.25h12.99l6.61 1.25h13l6.6-1.25h5.97l6.61 1.25 6.39-1.25h6.61l6.39 1.25 6.6-5 6.61 3.75 6.39-1.25 6.61 2.5h6.39M.67 119h32.17l6.4-2.5 6.6 2.5 6.61-2.5 6.39 2.5 6.61-2.5 6.39 2.5h109.95l6.61-2.5 6.39 2.5H234l6.61-5 6.18 5h77.77l6.61-5 6.39 2.5 6.61 2.5h52.2l5.97-2.5 6.61 2.5h25.99l6.61-2.5 6.39 2.5h13M.67 121h32.17l6.4-5 6.6 5h64.78l6.39-5 6.61 5h45.17l6.61-5 6.39 5h19.61l6.6-5h6.4l6.6 5h25.79l6.6-5 6.39 5h52.21l6.61-5 5.96 5h19.61l6.39-5 6.61 5h39.2l5.97-5 6.61 5h19.39l6.6-5 6.61 5h13l6.39-5M.67 122.89l6.6.05 5.97.06h13l6.6-.02h6.4l6.6-.25 6.61-.06 6.39-.16 6.61-.27 6.39.62 6.6.14 6.61-.03 5.97.03 6.6-.02 6.4-.01 6.6-.02 6.39-.76 6.61-.82 6.61-.89 6.39-1.78 6.6.79 6.4 1.87 6.6 1.4 6.61.24 5.96-.06 6.61.06 6.39-.02 6.61-.06 6.39-.63 6.61.45 6.6.15 6.4-.35 6.6-.53 6.39.84 6.61.1 6.61.05 6.18-.03 6.6.01h6.39l6.61-.07 6.39-.49 6.61-.53 6.6.49 6.4-1.37 6.6.04 6.4 1.66 6.6.26 6.61.01 5.96-.04 6.61.04 6.39-.01h6.61l6.39-.09 6.61-.81 6.6.38 6.39-1.61 6.61-2.73 6.39 1.97 6.61 2.34 6.6.53h5.97l6.61-.03 6.39.03 6.61-.01h6.39l6.6-.88 6.61-2.57 6.39-1.49 6.61.76 6.39 2.04" id="Stroke-26" stroke="#000" stroke-width=".38"/><path d="M.67 125h32.17l6.4-1.67 6.6-1.66 6.61 3.33h6.39l6.61-1.67 6.39 1.67H188.4l6.39-1.67 6.61-1.66 6.6 1.66 6.4 1.67h64.99l6.6-1.67 6.4-1.66 6.6 1.66 6.4 1.67h19.17l6.61-5 6.39 5h6.61l6.39-3.33 6.61 3.33h51.78l6.39-1.67 6.61 1.67 6.39-1.67 6.6-1.66 6.61 3.33 6.39-5 6.61 5h6.39M.67 127h25.57l6.6-1.67h6.4l6.6 1.67h39.21l5.97-1.67 6.6 1.67h45.6l6.4-1.67 6.6 1.67 6.61-1.67 5.96 1.67h13l6.61-1.67 6.39-1.66 6.61 3.33h13l6.6-3.33 6.39 3.33h39l6.39-1.67 6.61 1.67 6.6-1.67h6.4l6.6 1.67h19.61l5.96-1.67 6.61 1.67h6.39l6.61-1.67 6.39 1.67h26.21l6.39-1.67 6.61 1.67h6.6l5.97-1.67 6.61 1.67h19.39l6.6-5 6.61 3.33 6.39 1.67h13M.67 129h343.5l6.39-5 6.61 5h103.77M.67 130.74l6.6.13h5.97l6.6.13h6.4l6.6-.13 6.4.13 6.6-.53 6.61.53 6.39-.26 6.61.26 6.39-.13 6.6.13h6.61l5.97-.13 6.6.13h6.4l6.6-.13h6.39l6.61-.53 6.61-.26 6.39.92 6.6-.13h6.4l6.6.13h19.18l6.39-.13h19.61l6.6.13 6.4-.13H234l6.61.13h25.78l6.39-.66 6.61.4 6.6.13h6.4l6.6.13h19.61l5.96-.13h6.61l6.39.13h6.61l6.39-.13h6.61l6.6-.26 6.39-2.64 6.61-1.97 6.39 3.29 6.61 1.71h12.57l6.61-.13 6.39.13h6.61l6.39-.13 6.6-.13h6.61l6.39-.27 6.61-.26 6.39.66" id="Stroke-27" stroke="#000" stroke-width=".38"/><path d="M.67 133l6.6-.62 5.97.62h6.6l6.4-.62 6.6-1.26 6.4 1.88 6.6-.62 6.61-.63 6.39.63 6.61.62 6.39-1.25 6.6 1.25h19.18l6.4-.62 6.6-1.26 6.39.63 6.61-1.25 6.61 2.5 6.39-.62 6.6.62 6.4-1.25 6.6 1.25h19.18l6.39-.62 6.61-2.5 6.39 1.87 6.61-1.87 6.6 2.5 6.4-1.26 6.6 1.26 6.39-1.88 6.61 1.88 6.61-.63 6.18 1.25 6.6-.62 6.39.62 6.61-1.88h6.39l6.61.63h6.6l6.4-1.25 6.6 1.25h6.4l6.6-2.5 6.61 3.13 5.96.62 6.61-.62 6.39-.63h6.61l6.39.63 6.61-1.26 6.6-.62 6.39 1.88 6.61-1.26 6.39 1.88h6.61l6.6-1.88 5.97 1.26h13l6.61-1.26 6.39-1.87 6.6 1.25 6.61-2.5 6.39 3.12 6.61.63 6.39-.63M.67 135h12.57l6.6-.01 6.4.01h6.6l6.4-.01 6.6-.01 6.61.02 6.39-.2 6.61-.01 6.39.09 6.6.1 6.61.02 5.97-.01h6.6l6.4.01 6.6-.01h6.39l6.61.01 6.61-.02 6.39-.02 6.6.03 6.4.01h6.6l6.61-.02 5.96.01 6.61-.02 6.39.03 6.61-.37 6.39-.73 6.61-.61 6.6-.02 6.4-3.27 6.6.02 6.39 3.52 6.61 1.31 6.61.14 6.18-.03 6.6.04h6.39l6.61-.03h6.39l6.61-.01 6.6.03 6.4-.03h6.6l6.4.03 6.6.01h25.57l6.61-.02 6.39.02 6.61-.03 6.6.03 6.39-.05 6.61.02 6.39-.01 6.61.03 6.6-.01 5.97.02h6.61l6.39-.01 6.61.01h6.39l6.6-.17 6.61-.94 6.39-1.03 6.61 1.26 6.39.71" id="Stroke-28" stroke="#000" stroke-width=".38"/><path d="M.67 137h12.57l6.6-.12h13l6.4-.5 6.6-.13 6.61.37 6.39-.12 6.61.25 6.39-.37 6.6.62 6.61-.25 5.97-.25 6.6.5 6.4-.12 6.6-.13 6.39-.25 6.61.25 6.61-.62 6.39-.38 6.6 1 6.4.13 6.6-.13 6.61.13 5.96.12 6.61-.62 6.39.12 6.61.12 6.39-.24 6.61-.76 6.6.88 6.4-.37 6.6-.51 6.39.38 6.61.5 6.61.38 6.18-.5 6.6-.25h6.39l6.61-.38 6.39-.75 6.61-3 6.6 2.88 6.4.87 6.6.25 6.4.13 6.6-.13 6.61.88h5.96l6.61-.88 6.39.62 6.61-.49 6.39-.51 6.61.51 6.6.25 6.39-.13 6.61.37 6.39-.24 6.61.24 6.6-.37h5.97l6.61.37 6.39-.12 6.61-.88 6.39-.37 6.6-2.37 6.61 1.62 6.39.38 6.61.87h6.39M.67 139h12.57l6.6-1.25 6.4 1.25h13l6.6-5 6.61 3.75 6.39 1.25h58.17l6.61-2.5 6.61 2.5h246.54l6.39-1.25 6.61 1.25h45.17l6.61-1.25 6.39 1.25h13M.67 140.62l6.6.38h5.97l6.6-.77 6.4.39h6.6l6.4-.77 6.6-.77 6.61 1.15 6.39.39h13l6.6-.39 6.61.77 5.97-.38 6.6.38 6.4-.77h6.6l6.39.77 6.61-1.54h6.61l6.39 1.54 6.6-.77h13l6.61.39 5.96.38 6.61-.38 6.39.38 6.61-.38 6.39-.39 6.61-.77L208 141l6.4-.38 6.6-.39 6.39.39H234l6.61.38 6.18-.38 6.6-.39 6.39.77 6.61-.38 6.39-1.93 6.61.39 6.6.77 6.4-.77 6.6.38 6.4.39h6.6l6.61.38 5.96.39 6.61-.39h6.39l6.61-.77 6.39.77 6.61-2.31 6.6 2.7 6.39-.39 6.61-1.15 6.39.77 6.61 1.15 6.6-1.92 5.97 1.54 6.61.38 6.39-.38 6.61-.77 6.39-1.16 6.6-2.69 6.61 2.31 6.39 2.31 6.61.38 6.39-.77" id="Stroke-29" stroke="#000" stroke-width=".38"/><path d="M.67 143l6.6-2.5h12.57l6.4 2.5h26.21l6.39-2.5 6.61 2.5h64.78l6.39-2.5 6.6 2.5h38.57l6.61-2.5 6.39-2.5 6.61 5h13l6.6-2.5 6.39 2.5h19.4l6.6-2.5 6.39 2.5h6.61l6.39-2.5 6.61 2.5h19.6l6.4-5 6.6 5h19.18l6.39-2.5h6.61l6.39 2.5h13.21l6.39-5 6.61 5h19.6l5.97-2.5 6.61 2.5h13l6.39-2.5 6.6-2.5 6.61 2.5 6.39 2.5h13M.67 144.38l6.6-1.36 5.97.94 6.6-.42 6.4-2.29 6.6 1.98 6.4.52 6.6-.73 6.61.83 6.39.21h19.6l6.61-.21 5.97-.31 6.6.21 6.4-.1 6.6-.42 6.39 1.25 6.61-.73 6.61.31h6.39l6.6-.41 6.4 1.35 6.6-.62 6.61.62 5.96-.1 6.61-.42 6.39-.21 6.61-.83 6.39-.32 6.61-1.77 6.6.84 6.4.41 6.6-.93 6.39-.94 6.61-.63 6.61-.1 6.18.73 6.6.31 6.39 1.15 6.61-.63 6.39-1.14 6.61 1.77 6.6.83 6.4-1.77 6.6 1.67 6.4.93h6.6l6.61.21h5.96l6.61.73h6.39l6.61-.1 6.39-.21 6.61.42 6.6-.32 6.39-.1 6.61-.31 6.39.83 6.61-.62 6.6-.21 5.97-.11 6.61.42 6.39.42 6.61-1.05 6.39.11 6.6-1.46 6.61.83 6.39 1.05 6.61.41 6.39.21m-460.27.81l6.6.33 5.97.11 6.6.03 6.4-1.8 6.6.3 6.4.07 6.6.46 6.61-.22 6.39.37 6.61-.21 6.39.74 6.6-.6 6.61.43 5.97-.19 6.6.64 6.4-1.98 6.6-.36 6.39.39 6.61.58 6.61-.1 6.39-.03 6.6.12 6.4-.32 6.6.5 6.61 1.01 5.96-.01 6.61.08 6.39-.52 6.61-.93 6.39.08 6.61-.18 6.6-.24 6.4.07 6.6-.4 6.39 1.22H234l6.61.12 6.18-.22 6.6-.22 6.39-.13 6.61-1.12 6.39-.57 6.61-.64 6.6 2.66 6.4-3.13 6.6 1.63 6.4.86 6.6 1.2 6.61.48 5.96.02 6.61.04 6.39-.29 6.61-1.09 6.39.26 6.61-.41 6.6.28 6.39-.36 6.61-.55 6.39.5 6.61.9 6.6-.12 5.97.12 6.61.63 6.39-.03 6.61-.42 6.39-.87 6.6-1.37 6.61-.69 6.39-.09 6.61.68 6.39 3.22" id="Stroke-30" stroke="#000" stroke-width=".38"/><path d="M.67 148.87l6.6-.09 5.97-.01 6.6.01 6.4-.23 6.6-.31 6.4-.23h6.6l6.61.4 6.39.27 6.61.15 6.39.14h6.6l6.61-.04 5.97-.11 6.6-.08 6.4-.71 6.6-.75 6.39-.35 6.61.25 6.61 1.35 6.39.22 6.6.16 6.4.05 6.6-.04 6.61.04 5.96-.14 6.61-.62 6.39-.1 6.61-1.8 6.39.58 6.61.07 6.6.88 6.4.92 6.6.07h6.39l6.61-.13 6.61.09 6.18-.01 6.6-.1 6.39-.52 6.61-.54 6.39-.36 6.61.21 6.6.96 6.4.25 6.6.18 6.4.08h6.6l6.61-.01 5.96-.04 6.61-.1 6.39-.48 6.61-.91 6.39.22 6.61-.54 6.6 1.24 6.39.14 6.61.16 6.39.21 6.61-.14 6.6-.22 5.97-.24 6.61.1 6.39-.17 6.61-.9 6.39-1.71 6.6-1.54 6.61 1.37 6.39 2.43 6.61.72 6.39.44M.67 150.66l6.6.08 5.97-.23 6.6-.26 6.4-.7 6.6.28 6.4-.02 6.6-.65 6.61.31 6.39.36 6.61.7 6.39.06 6.6-.08 6.61.36 5.97-.03 6.6-.12 6.4-.21 6.6-.55 6.39-.51 6.61-.34 6.61.49 6.39-.05 6.6.08 6.4.72 6.6.21 6.61.23 5.96-.05 6.61-.15 6.39-1.33 6.61-1.27 6.39.45 6.61.8 6.6.44 6.4.41 6.6-.98 6.39 1.24 6.61.18 6.61-.49 6.18-.23 6.6-.34 6.39-.15 6.61-2.98 6.39-.34 6.61 1.24 6.6.65 6.4.67 6.6 1.2 6.4.26 6.6.51 6.61-.15 5.96.05 6.61-.03 6.39-.15 6.61-1.14 6.39.52 6.61-.44 6.6.57 6.39.13 6.61-.08 6.39.62 6.61-.36 6.6-.21 5.97.16 6.61-.11 6.39.05 6.61-.31 6.39-1.42 6.6-.34 6.61.23 6.39.42 6.61-.03 6.39 2.28" id="Stroke-31" stroke="#000" stroke-width=".38"/><path d="M.67 151.98l6.6.22 5.97-.11 6.6.68 6.4-1.13 6.6-.69 6.4-.22 6.6-1.37 6.61 1.25 6.39 1.25h6.61l6.39.46 6.6.23 6.61-.35 5.97-.22 6.6.68 6.4.23 6.6-1.03 6.39-.56 6.61.79 6.61-.45 6.39-.69 6.6 1.37 6.4.57 6.6-.12 6.61.23 5.96-.34 6.61-.23 6.39.34 6.61-.79h6.39l6.61-1.48 6.6 1.25 6.4.11 6.6-.68 6.39-.91 6.61.23 6.61 1.7 6.18-1.7 6.6-.68 6.39-1.14 6.61-.68 6.39.57 6.61 2.84 6.6-1.14 6.4 1.48 6.6.23 6.4.68 6.6-.11 6.61.11 5.96.23 6.61-.69 6.39-.34h6.61l6.39.46 6.61.45h6.6l6.39.12 6.61-.34 6.39.34 6.61-.34 6.6.22 5.97-.34 6.61-.57 6.39.57 6.61.34 6.39-.22 6.6-.91 6.61.34 6.39.34 6.61.11 6.39.46M.67 155l6.6-.25 5.97-.35 6.6.05 6.4-1.45 6.6-1.35 6.4 1.05 6.6.8 6.61.4 6.39.05 6.61.75 6.39.25 6.6-.1 6.61.1 5.97-.3 6.6-.5 6.4-.6 6.6-.95 6.39-.05 6.61 1.6 6.61-.05 6.39-.4 6.6.15 6.4.75 6.6.15 6.61-.2 5.96.15 6.61.05 6.39-1.25 6.61-1.75 6.39 1.4 6.61-.55 6.6.6h6.4l6.6.95 6.39.4 6.61.05 6.61.25 6.18-.1 6.6-.55 6.39-1.5 6.61-.65 6.39-1.6 6.61 2.85 6.6.3 6.4.5 6.6.2 6.4.5h6.6l6.61-.15 5.96.25 6.61-.15 6.39-.9 6.61.45 6.39-.8 6.61.5 6.6-.4 6.39.35 6.61.25 6.39.3h6.61l6.6-.1 5.97-.55 6.61.4 6.39-.85 6.61-1.5 6.39-1.9 6.6.85 6.61 1.95 6.39 1.25 6.61.35 6.39.55" id="Stroke-32" stroke="#000" stroke-width=".38"/><path d="M.67 156.84l6.6-.07h5.97l6.6-.41 6.4-1.52 6.6.21 6.4.57 6.6.58 6.61.27 6.39.12 6.61.09 6.39.21 6.6-.07 6.61.07 5.97-.21 6.6.18 6.4-.82 6.6-.32 6.39.64 6.61.25 6.61-.11 6.39.36 6.6-.04 6.4.07h6.6l6.61.09 5.96-.23 6.61-.28 6.39-1.08 6.61-.32 6.39.49 6.61.13 6.6.58 6.4.23 6.6-.14 6.39.23 6.61.27 6.61-.3 6.18-.57 6.6-.07 6.39-1.67 6.61-.16 6.39 1.47 6.61.36 6.6.51 6.4.18 6.6.11 6.4.21 6.6-.02 6.61.07 5.96-.05 6.61-.27 6.39-.19 6.61-.16 6.39.07 6.61-.3 6.6.48 6.39-.04 6.61-.07 6.39-.07 6.61.23 6.6-.5 5.97-.17 6.61-.45 6.39-2.69 6.61-.8 6.39.57 6.6 1.61 6.61.96 6.39.99 6.61.71 6.39.16M.67 158.99l6.6-.01h5.97l6.6-.05 6.4-.44 6.6-.08 6.4.14 6.6.15 6.61.14 6.39.05 6.61.03 6.39.07 6.6-.01 6.61.01 5.97-.01 6.6-.04 6.4-.28 6.6-.55 6.39.3 6.61.13 6.61.36 6.39.01 6.6.05 6.4.02 6.6.01 6.61.01 5.96-.01 6.61-.03 6.39-.09 6.61-.17 6.39-.16 6.61.01 6.6.15 6.4.19 6.6.02 6.39.07 6.61-.03 6.61-.02 6.18.02 6.6-.15 6.39-.39 6.61-1.05 6.39-.93 6.61-.09 6.6 1.05 6.4.6 6.6.32 6.4.41 6.6.05 6.61.15 5.96-.06 6.61.04 6.39-.37 6.61-.31 6.39.1 6.61-.01 6.6.3 6.39.02 6.61-.04 6.39.27 6.61.01 6.6.05 5.97-.02 6.61-.03 6.39-.3 6.61-.79 6.39-2.65 6.6-1.13 6.61 3.09 6.39 1.06 6.61.66 6.39.17" id="Stroke-33" stroke="#000" stroke-width=".38"/><path id="Stroke-34" stroke="red" stroke-width="1.12" d="M.67 160.96l6.6.04h12.57l6.4-.24 6.6.03 6.4-.05 6.6.11 6.61.02 6.39-.06 6.61.17 6.39.02 6.6-.02 6.61.02 5.97-.02 6.6-.04h6.4l6.6-.01 6.39-.02 6.61-.17 6.61.2h6.39l6.6.02 6.4.02 6.6.02h12.57l6.61-.02 6.39-.95 6.61-3.13 6.39 3.67 6.61.22 6.6.1h6.4l6.6.09 6.39.02 6.61-.02h12.79l6.6-.02 6.39-1.1 6.61-.58 6.39.41 6.61-.76 6.6 1.12 6.4-.28 6.6.19 6.4.95 6.6.05h6.61l5.96-.05h6.61l6.39-.75 6.61-.47 6.39.21 6.61-.39 6.6.35 6.39.51 6.61.14 6.39.3 6.61.04 6.6.06 5.97.03 6.61-.05 6.39-.39 6.61-1.61 6.39-2.44 6.6-.45 6.61 1.68 6.39.86 6.61 1.6 6.39.8"/><path d="M.67 162.88l6.6.04 5.97.03 6.6-.18 6.4-.55 6.6.58 6.4.14 6.6-.06 6.61.03 6.39.04h6.61l6.39.03 6.6-.04 6.61.01 5.97-.04 6.6-.08 6.4.08 6.6-.02 6.39-.01 6.61-.03 6.61.03 6.39.04h6.6l6.4.08 6.6-.05 6.61.05 5.96-.06 6.61-.03 6.39-.06 6.61-.26 6.39-.37 6.61.52 6.6.08 6.4.01 6.6.12 6.39.02 6.61.01 6.61-.09 6.18-.19 6.6-.26 6.39-2.11 6.61-1.59 6.39-.74h6.61l6.6 1.16 6.4.93 6.6.54 6.4 1.6 6.6.03 6.61.3 5.96-.27 6.61-.09 6.39-1.63 6.61-1.08 6.39 1.11 6.61 1.15 6.6-.27 6.39-.12 6.61.17 6.39.52 6.61-.37 6.6.01 5.97.14 6.61-.11 6.39-.72 6.61-.42 6.39-1.42 6.6-.44 6.61.14 6.39 2.08 6.61.75 6.39 1.28M.67 164.18h6.6l5.97-.53 6.6.47 6.4.35 6.6-.47 6.4.41 6.6.3 6.61-.18 6.39.18 6.61.17 6.39.12 6.6-.12 6.61-.06 5.97-.06 6.6-.05 6.4-.77 6.6-.18 6.39.12 6.61.47 6.61.06 6.39.18 6.6-.18 6.4.35 6.6-.47 6.61.53 5.96-.35 6.61-1.23 6.39-1.18 6.61-.94 6.39.29 6.61.12 6.6 1.29 6.4 1.3 6.6-.24 6.39.65 6.61-.65 6.61.18 6.18-.06 6.6-1 6.39-1.29 6.61.94 6.39.88 6.61-.06 6.6.59 6.4.12 6.6.17 6.4.59 6.6-.35 6.61-.53 5.96.29 6.61-.59 6.39-3.76 6.61 2.24 6.39 1.64 6.61.59 6.6.35 6.39-.06 6.61.18 6.39-.18 6.61-.41 6.6.36 5.97-.77 6.61-.06 6.39-.12 6.61-.58 6.39.11h6.6l6.61-.76 6.39.12 6.61 1.17 6.39 1.18" id="Stroke-35" stroke="#000" stroke-width=".38"/><path d="M.67 166.95l6.6-.06h5.97l6.6-.05 6.4-1.1 6.6-.48 6.4.37 6.6.53 6.61.21 6.39.1h6.61l6.39.42 6.6-.05 6.61-.21 5.97.11 6.6-.42 6.4-.95 6.6-1.48 6.39.27 6.61.21 6.61.37 6.39 1.42 6.6-.69 6.4.74 6.6.32 6.61.05 5.96-.63 6.61-.32 6.39.16 6.61-2.37 6.39-1.37 6.61-.05 6.6.89 6.4 2.06 6.6.89 6.39.53H234l6.61.21 6.18.05 6.6.05 6.39-.42 6.61-1 6.39.37 6.61-.95 6.6 1.95 6.4-.1h6.6l6.4.31 6.6.05 6.61.06 5.96-.42 6.61-.48 6.39-.58 6.61-.05 6.39-.79 6.61 1.05 6.6.06 6.39.31 6.61.11 6.39.63h6.61l6.6-1 5.97.74 6.61.05 6.39-.95 6.61-2.37 6.39.79 6.6-.16 6.61-.1 6.39 2.16 6.61.63 6.39.42M.67 168.75l6.6-.49 5.97.33 6.6-.71 6.4-.7 6.6.66 6.4.09 6.6-.5 6.61.74 6.39-.57 6.61.37 6.39-.09 6.6.67 6.61-.13 5.97-.21 6.6.13h6.4l6.6-2.15 6.39-.79 6.61.75 6.61 1.94 6.39.37 6.6-.12 6.4.21 6.6.04 6.61.04 5.96-.46 6.61-.04 6.39-.12 6.61-2.4 6.39.33 6.61.42 6.6 1.65 6.4.16 6.6-.04 6.39.37 6.61-.16 6.61-.25 6.18-.66 6.6-.79 6.39-.33 6.61-2.02 6.39-.29 6.61 2.11 6.6.78 6.4.46 6.6.25 6.4.66 6.6.53 6.61-.08 5.96-.08 6.61.08 6.39-.21 6.61-.62 6.39-.49 6.61.41 6.6.41 6.39.29 6.61.17 6.39-.04 6.61-.37 6.6.12 5.97-.45 6.61.41h6.39l6.61-.13 6.39-.7 6.6-.41 6.61.74 6.39.09 6.61.74 6.39.25" id="Stroke-36" stroke="#000" stroke-width=".38"/><path d="M.67 169.24l6.6-.37 5.97.48 6.6-.8 6.4-1.27 6.6-1.28 6.4.9 6.6 2.13 6.61-.32 6.39.91 6.61.21 6.39.85 6.6-.21 6.61-.16h5.97l6.6-.32 6.4.37 6.6-1.33 6.39.69 6.61-.53 6.61.8 6.39-.11 6.6.38 6.4.1 6.6.27 6.61-.27 5.96-.05 6.61.26 6.39-1.33 6.61-2.55 6.39.59 6.61-1.28 6.6 2.55 6.4-.37 6.6.64 6.39 1.22 6.61-.26 6.61-.27 6.18-.58 6.6-.22 6.39-1.7 6.61-.37 6.39.26 6.61 1.12 6.6.27 6.4-.32h6.6l6.4 1.54 6.6.32 6.61.27 5.96-.54 6.61.16 6.39-.85 6.61-1.81 6.39 1.07 6.61-.8 6.6 1.12 6.39-.43 6.61.59 6.39 1.38 6.61-.59 6.6-.16 5.97.11 6.61.8 6.39-.16 6.61-.85 6.39-1.23 6.6-.21 6.61.43 6.39 1.38 6.61.11 6.39 1.27M.67 172.29l6.6.34 5.97-.1 6.6.1 6.4-1.56 6.6.14 6.4-.07 6.6-.2 6.61.67 6.39.17 6.61.14 6.39.54 6.6.24 6.61.06 5.97-.13 6.6-.68 6.4-1.72 6.6-.61 6.39-1.62 6.61 1.45 6.61.64 6.39.51 6.6.71 6.4 1.22 6.6.03 6.61.24 5.96-.78 6.61.1 6.39-1.69 6.61-.67 6.39.33 6.61.71 6.6.78 6.4.47 6.6.27 6.39.54 6.61.07 6.61-.1 6.18-.03 6.6-.21 6.39-.84 6.61-1.08 6.39-.03 6.61.81 6.6.1 6.4.37 6.6.2 6.4.61 6.6.07 6.61.13 5.96-.23 6.61-.11 6.39-.74 6.61-3.28 6.39 2.27 6.61-.64 6.6.77 6.39.31 6.61.67 6.39.58 6.61.2 6.6-.37 5.97-.2 6.61.54 6.39-.44 6.61-1.19 6.39-.37 6.6.07 6.61.14 6.39.57 6.61 1.15 6.39.37" id="Stroke-37" stroke="#000" stroke-width=".38"/><path d="M.67 174.64l6.6.08 5.97.07 6.6-.23 6.4-.97 6.6-1.62 6.4.39 6.6.33 6.61.72 6.39.08 6.61.41 6.39.41 6.6.36 6.61.28 5.97-.13 6.6-.05 6.4.05 6.6-.2 6.39.28 6.61-.13 6.61-.05 6.39.18 6.6-.28 6.4.3 6.6-.02 6.61-.03 5.96.03 6.61-.28 6.39-.83 6.61-.89 6.39 1.18 6.61.1 6.6.54 6.4-.13 6.6-.15 6.39-.18 6.61.05 6.61.13 6.18-.08 6.6-.39 6.39-.28 6.61.16 6.39.18 6.61.12 6.6.29 6.4-.18h6.6l6.4.23 6.6-.16 6.61.11 5.96.05 6.61-.8 6.39-.79 6.61.74 6.39.59 6.61-.44 6.6.42 6.39.25 6.61-.13 6.39.26 6.61-.51 6.6.1 5.97-.13 6.61.23 6.39-1.38 6.61-1.31 6.39-1.59 6.6.97 6.61 1.67 6.39 1.1 6.61.85 6.39.41M.67 176.94l6.6-.07 5.97.1 6.6-.2 6.4-1 6.6.94 6.4-.23 6.6-.22 6.61.29 6.39.1 6.61.19 6.39.06 6.6.07h12.58l6.6-.29 6.4-.2 6.6-.32 6.39.42 6.61.19 6.61.2 6.39-.03 6.6.06 6.4-.1 6.6.1h6.61l5.96-.06 6.61-.17 6.39-.32 6.61-.22 6.39.22 6.61.2 6.6.29 6.4.03H234l6.61-.03 6.18.03 6.6-.16 6.39-.36 6.61-1.8 6.39-.46 6.61.94 6.6 1.03 6.4.32 6.6-.32 6.4.68h6.6l6.61.03 5.96-.03 6.61.06 6.39-.22 6.61-.42 6.39.19 6.61.13 6.6.26 6.39.03 6.61-.03 6.39.03h6.61l6.6-.03 5.97-.07 6.61.04 6.39-.23 6.61-.48 6.39-1.2 6.6-2.9 6.61 3.13 6.39 1.03 6.61.61 6.39.23" id="Stroke-38" stroke="#000" stroke-width=".38"/><path d="M.67 179l6.6-.09 5.97-.27 6.6.36 6.4-1.25 6.6-.8 6.4-.72 6.6-2.23 6.61 2.95 6.39 1.34 6.61.17 6.39.36 6.6.09 6.61-.09h5.97l6.6-.27 6.4-.89 6.6-.71 6.39-.18 6.61.35 6.61 1.08 6.39.35 6.6.45h25.57l6.61-.18 6.39-.53 6.61-.54 6.39-2.23 6.61.89 6.6-1.16 6.4 1.7 6.6 1.34 6.39.44 6.61-.35 6.61.26 6.18.18 6.6-.18h13l6.39-2.32 6.61.63 6.6-.18 6.4 1.34 6.6.18 6.4.71h13.21l5.96-.09 6.61.09 6.39-.09 6.61-1.16 6.39.45 6.61.26 6.6.09 6.39.36 6.61-.27 6.39.36 6.61-.09 6.6.09 5.97-.18h6.61l6.39-.27 6.61-.09 6.39.27 6.6-.35 6.61.53 6.39-.53 6.61.44 6.39.18M.67 180.94l6.6.06h5.97l6.6-.22 6.4-.68 6.6-.17 6.4.06 6.6.5h13l6.61.23 6.39.06 6.6.22 6.61-.06 5.97-.78h6.6l6.4-.79 6.6-.62 6.39.12 6.61.5 6.61 1.18 6.39-.22 6.6.05 6.4.51 6.6-.17 6.61.28 5.96-.06h6.61l6.39-.56 6.61-.45 6.39.62 6.61.17 6.6.06 6.4.11 6.6.05 6.39-.11 6.61.11 6.61.06 6.18-.17 6.6-.34 6.39-.28 6.61-.39 6.39.28 6.61.39 6.6-.22 6.4.28 6.6.11 6.4.28 6.6-.11 6.61.11 5.96-.11 6.61-.11 6.39-.73 6.61.34 6.39.05 6.61.06 6.6-.28 6.39.22 6.61.45 6.39-.11 6.61.17 6.6-.51 5.97.23 6.61-.34 6.39-.84 6.61-3.43 6.39 1.29 6.6.79 6.61 1.91 6.39.62 6.61.28 6.39.05" id="Stroke-39" stroke="#000" stroke-width=".38"/><path d="M.67 182.15l6.6.41 5.97.23 6.6-.18 6.4-.91 6.6-.41 6.4-.65 6.6.52 6.61-.05 6.39.47 6.61.82 6.39.5 6.6-.08 6.61.08 5.97-.78h6.6l6.4-.31 6.6-.65 6.39-.26 6.61.44 6.61.6 6.39-.55 6.6.29 6.4.44 6.6.75 6.61-.08h5.96l6.61-.05 6.39-.02 6.61-.57 6.39.1 6.61-.7 6.6.49 6.4-.39 6.6-.1 6.39.49 6.61.08 6.61-.57 6.18.08 6.6.28 6.39-1.27 6.61-.2 6.39-.37 6.61 1.56 6.6.26 6.4-.57 6.6.57 6.4.46 6.6.21 6.61-.03 5.96.19 6.61-.06 6.39-.39 6.61-.2 6.39.31 6.61-.39 6.6.73 6.39-.34 6.61.02 6.39.44 6.61-.28 6.6-.6 5.97.03 6.61.47 6.39.1 6.61-.39 6.39-2.56 6.6-1.61 6.61 1.55 6.39 2.78 6.61.02 6.39.6M.67 185h12.57l6.6-.07 6.4-.07h6.6l6.4.07 6.6-.36 6.61.29 6.39-.15 6.61.29h25.57l6.6-.07 6.4.07 6.6-.29 6.39-.21 6.61.43 6.61.07h51.56l6.61-2.07 6.39.57 6.61 1.21 6.6.29 6.4-.36 6.6.22 6.39.14h13.22l6.18-.07 6.6-.29 6.39-.07 6.61-.78 6.39.21 6.61.29 6.6-.08 6.4-.35 6.6.43 6.4.5 6.6.07h6.61l5.96-.15 6.61.15 6.39-1 6.61-.43 6.39-.72 6.61-.57 6.6 1.15 6.39.21 6.61.57 6.39.72 6.61.07 6.6.07 5.97.07 6.61-.36 6.39-1 6.61-.35 6.39-2.43 6.6-.86 6.61 2.79 6.39 1.85 6.61.29 6.39.07" id="Stroke-40" stroke="#000" stroke-width=".38"/><path d="M.67 186.63l6.6-.17 5.97.42 6.6.08 6.4-.5 6.6-.38 6.4.09 6.6.25 6.61.33 6.39.13 6.61-.17 6.39.21 6.6.04 6.61-.04 5.97-.09 6.6.05 6.4-.76 6.6-.66 6.39.66 6.61.3 6.61.41 6.39-.16 6.6-.13 6.4.21 6.6.25 6.61-.04 5.96-.42 6.61-.42 6.39-1.12 6.61-1.63 6.39 1.17 6.61.25 6.6.38 6.4 1.25 6.6.37 6.39.21 6.61-.08 6.61-.04 6.18.04 6.6-.25 6.39-.34 6.61-.75 6.39.34h6.61l6.6.25 6.4.37 6.6.09 6.4.29 6.6.08 6.61-.04 5.96-.04h6.61l6.39-.84 6.61-.12 6.39.12 6.61-1.54 6.6 1.88 6.39.12 6.61.17 6.39.29 6.61-.21 6.6.13 5.97-.21 6.61.08 6.39-.37 6.61-.84 6.39-1.16 6.6-2.42 6.61 1.92 6.39 1.7 6.61.67 6.39.63M.67 188.23h6.6l5.97-.77 6.6-3.46 6.4 1.54 6.6 1.15 6.4-.57 6.6.96 6.61.57 6.39.97 6.61.19 6.39-.19 6.6-.2 6.61.2 5.97-1.54h6.6l6.4.57h6.6l6.39.58 6.61.19 6.61-.19h6.39l6.6.58h13l6.61-.19 5.96-.39h6.61l6.39-.77 6.61-1.15 6.39-.39 6.61 1.16 6.6-.39 6.4.58 6.6.77 6.39.77 6.61-1.16 6.61-1.73 6.18 1.54 6.6-.19 6.39-1.54 6.61.58 6.39 1.92 6.61-1.54 6.6 1.73 6.4.2 6.6.19h6.4l6.6-.58 6.61.39 5.96.38 6.61-.19 6.39-.39 6.61-.77 6.39 1.16 6.61.19h12.99l6.61-.77 6.39.77 6.61-.19 6.6-.96 5.97.96 6.61.19 6.39-.58 6.61-.19 6.39.19 6.6-1.15 6.61.58 6.39.38 6.61.77h6.39" id="Stroke-41" stroke="#000" stroke-width=".38"/><path d="M.67 190.51l6.6.17 5.97-.03 6.6-.16 6.4.07 6.6.19 6.4-.21 6.6-.37 6.61.03 6.39-.07 6.61.2 6.39.23 6.6-.27 6.61.14h5.97l6.6.25 6.4.02 6.6-.51 6.39-.29 6.61.13 6.61.16 6.39-.5 6.6-.05 6.4.46 6.6.12 6.61.46 5.96-.05 6.61.14 6.39-.19 6.61-1.13 6.39-.18 6.61-.48 6.6-.6 6.4.78 6.6.1 6.39.68 6.61.45 6.61-.01 6.18.1 6.6-.42 6.39-.83 6.61-.85 6.39-1.31 6.61-.88 6.6.49 6.4 1.31 6.6.55 6.4 1.11 6.6.83 6.61.13 5.96.19 6.61-.1 6.39.05 6.61-.3 6.39-.71 6.61-1.22 6.6 1.03 6.39-.13 6.61.11 6.39.83 6.61.02 6.6-.13 5.97.02 6.61.28 6.39.11 6.61-.16 6.39-.55 6.6-.6 6.61-.19 6.39-.55 6.61.23 6.39 2M.67 192.96l6.6-.04 5.97-.26 6.6-.38 6.4.04 6.6-.17 6.4.43 6.6.29 6.61.13h19.39l6.6-.04 6.61-.04 5.97.08 6.6-.51 6.4-.72 6.6.21 6.39-.04h6.61l6.61.89 6.39.09 6.6.08 6.4-.04h13.21l5.96-.04 6.61-.47 6.39-.3 6.61.51 6.39.3 6.61.04 6.6-.04 6.4.04H234l6.61-.08 6.18.04 6.6-.04 6.39-.17 6.61-.17h6.39l6.61.34h6.6l6.4.08h19.6l6.61-.13 5.96.13 6.61-.21 6.39-.3 6.61-.89 6.39 1.15 6.61-1.28 6.6.51 6.39-.12 6.61.42 6.39.64 6.61-.05 6.6-.04 5.97-.55 6.61-.17 6.39-1.57 6.61-2.54 6.39 1.1 6.6.68 6.61 1.61 6.39 1.48h6.61l6.39.13" id="Stroke-42" stroke="#000" stroke-width=".38"/><path d="M.67 194.95l6.6-.05 5.97-.03 6.6.06 6.4-.33 6.6-.34 6.4-.07 6.6-.45 6.61.66 6.39-.11 6.61.51 6.39.18 6.6-.08 6.61.05h5.97l6.6-.4 6.4-.44 6.6-.69 6.39.06 6.61.47 6.61.1 6.39-.08 6.6.24 6.4.44 6.6.2 6.61.04 5.96-.02 6.61-.11 6.39-.46 6.61-1.13 6.39.7 6.61.24 6.6.09 6.4.4 6.6.2 6.39.15 6.61-.19 6.61.04 6.18-.05 6.6-.09 6.39-.81 6.61-.66 6.39.18 6.61.32 6.6.55 6.4.02 6.6.18 6.4.54 6.6-.09 6.61.02 5.96-.13 6.61-.16 6.39-.39 6.61-.81 6.39.6 6.61-.21 6.6.54 6.39.03 6.61-.01 6.39.3h6.61l6.6-.1 5.97-.42 6.61.11 6.39-.82 6.61-1.6 6.39-.84 6.6-1 6.61 1.35 6.39 2.07 6.61.94 6.39.64M.67 196.83l6.6-.3 5.97-.25 6.6-.29 6.4-.6 6.6.15 6.4.35 6.6-.85 6.61.01 6.39-.11 6.61.75 6.39.8 6.6-.17 6.61.2 5.97.05 6.6.07 6.4-.19 6.6-.79 6.39-1.09 6.61.65 6.61 1.13 6.39-.05 6.6.08 6.4.19 6.6.29 6.61-.04 5.96-.19 6.61.01 6.39-.53 6.61-1.5 6.39.26 6.61.51 6.6.28 6.4-.21 6.6.57 6.39.1 6.61.01 6.61.17 6.18-.58 6.6.02 6.39-1.03 6.61-2.71 6.39.57 6.61 1.35 6.6 1.01 6.4.73 6.6.5 6.4.58 6.6-.05 6.61.03h5.96l6.61-.2 6.39-.73 6.61.29 6.39-.05 6.61-.01 6.6.21 6.39-.01 6.61-.06 6.39.33 6.61.23 6.6.02 5.97-.11 6.61.24 6.39.02 6.61-.16 6.39-.4 6.6-.44 6.61.34 6.39.16 6.61-.09 6.39.59" id="Stroke-43" stroke="#000" stroke-width=".38"/><path d="M.67 198.62l6.6.01 5.97.06 6.6-.2 6.4-1.16 6.6-.95 6.4-.99 6.6.72 6.61 1.41 6.39.17 6.61.51 6.39.45 6.6-.09 6.61.19 5.97-.02 6.6.03h6.4l6.6-.01 6.39.12 6.61.06h13l6.6-.02 6.4-.06 6.6-.03 6.61.01 5.96-.02 6.61-.04 6.39-.27 6.61.05 6.39.06 6.61.25 6.6.07 6.4-.1h12.99l6.61-.08 6.61-.04 6.18-.04 6.6.06 6.39-.37 6.61-.08 6.39.1 6.61.06 6.6.01 6.4-.07 6.6.16 6.4.07 6.6-.05 6.61.13h5.96l6.61.06 6.39-.29 6.61.17 6.39.08 6.61-.08 6.6.1 6.39.07 6.61-.01 6.39.04 6.61-.24 6.6.06 5.97-.15 6.61-.06 6.39-.61 6.61-.97 6.39-2.86 6.6 1.48 6.61.66 6.39 1.45 6.61.87 6.39.53M.67 201h6.6l5.97-.16 6.6.16 6.4-.32 6.6-1.45 6.4 1.12 6.6.17 6.61.16 6.39.16 6.61.16h6.39l6.6-.16 6.61.16h5.97l6.6-.16 6.4-.32h12.99l6.61-.33 6.61-1.61 6.39 1.45 6.6-.32 6.4 1.13 6.6.16h6.61l5.96-.16 6.61-.49 6.39.49 6.61-1.29 6.39-.16 6.61.8 6.6.33h6.4l6.6.16 6.39.32H234l6.61-.16 6.18.16h6.6l6.39-1.61 6.61-3.23 6.39 1.29 6.61 3.07 6.6-.33 6.4.33 6.6.32h6.4l6.6.16 6.61-.16 5.96.16 6.61-.16 6.39-.81 6.61-.16 6.39-.16h6.61l6.6.81 6.39.16 6.61.32 6.39-.16 6.61.16 6.6-.16 5.97-.16 6.61-.97 6.39-.65 6.61-3.06 6.39 1.45 6.6-1.13 6.61 1.62 6.39.8 6.61 1.61 6.39.49" id="Stroke-44" stroke="#000" stroke-width=".38"/><path id="Stroke-45" stroke="#000" stroke-width=".38" d="M.67 202.82l6.6.02 5.97.09 6.6-.01 6.4-.26 6.6.04 6.4-.09 6.6.13 6.61-.03 6.39.07 6.61.08 6.39.07 6.6.01 6.61-.01h5.97l6.6.02 6.4-.03h6.6l6.39-.03 6.61-.02 6.61.06 6.39-.07 6.6-.07 6.4-.02 6.6.02 6.61.04 5.96-.08 6.61.05 6.39-.5 6.61-.64 6.39-.51 6.61.28 6.6.06 6.4.44 6.6.1 6.39.53 6.61-.04 6.61.1 6.18-.02 6.6.24 6.39-.28 6.61-.26 6.39.08 6.61-.07 6.6.13 6.4.08 6.6.1 6.4.18 6.6-.18 6.61.24 5.96-.07 6.61.1 6.39-.12 6.61-.18 6.39.3 6.61-.05 6.6-.04 6.39-.23 6.61-.09 6.39.23 6.61-.27 6.6.11 5.97.02 6.61-.08 6.39-.39 6.61-1.32 6.39-2.58 6.6-.2 6.61 3.4 6.39-.03 6.61.81 6.39.79"/></g></g></svg>
