<svg viewBox="0 0 546 177" xmlns="http://www.w3.org/2000/svg" xmlns:xlink="http://www.w3.org/1999/xlink"><defs><path id="path-1" d="M.97.05h58.3v87.11H.97V.06z"/></defs><g id="Page-1" stroke="none" stroke-width="1" fill="none" fill-rule="evenodd"><g id="logo" transform="translate(0 -1)"><path d="M54.38 58.97c0-2.17-3.37-.93-4.52-1.73-1.2-.83-.86-3.85-1.13-5.2a69.53 69.53 0 00-1.88-7c-.3-.99-.64-1.96-.98-2.93-.14-.41-.3-1.17-.53-1.5-.68-.96-.34-.38-1.5-.73-2.15-.64-4-1.96-6.26-2.36-2.74-.49-5.74-.39-8.52-.65-5.34-.51-10.05.67-13.9 4.58-3.91 3.98-5.38 9.01-5.22 14.49a26 26 0 00.83 6.75c.3 1 .82 1.7 1.27 2.6.2.4.25 1.38.44 1.69.5.78.78.26 1.71.7 1.03.5 1.1 1.49 1.7 2.45 1.3 2.11 3.53 3.2 5.61 4.4 1.1.63 1.91 1.38 2.92 2.13 1.18.87.36.48 1.6.62.6.07 1.3-.03 1.92 0 2.65.08 5.56 1.02 8.18.25 2.78-.82 4.1-3.26 5.9-5.3 1.56-1.8 3.52-2.9 5.32-4.37 2.3-1.88 1-3.1 1.59-5.66.64-2.84 2.82-4.3 5.33-2.35.06-.29.1-.58.12-.88m5.85-.47c0 1.77-1.45 2.65-1.7 4.1-.18 1.08 2.06 4.11-.93 3.11.09 1.69.51 3.42.33 5.11-.05.44-.05 1.03-.3 1.42-.39.6-1.13.54-1.47 1.06-.47.72-.34 1.47-.93 2.25-.47.63-1.16 1.17-1.76 1.65-.87.68-3.03 2.49-4.25 1.87 0 2.16.38 2.43-1.4 3.52-1.5.9-2.7 2.02-4.1 3.07-1.26.96-2.58 1.97-4.27 1.73-1.69-.24-2.52-1.18-4.35-.71-1.45.36-2.49 1.47-4.05 1.53-1.66.07-3.07-.87-4.54-1.5-1.65-.7-3.29-.87-5-1.31-2.1-.54-2.84-1.69-4.39-3.03-2.87-2.5-6.84-3.4-9.64-5.97-2.46-2.27-4.74-5.73-6.23-8.71-1.62-3.25-1.4-5.96-.64-9.4.33-1.44.93-3.19.74-4.7C1.27 53 0 51.43 0 51.42c.18-1.66.75-3.35 1.29-4.93.55-1.6 1.83-2.64 1.96-4.25.06-.66-.38-1.8.09-2.39.24-.3 1-.18 1.35-.43 1.29-.96 1.84-3.54 3.03-4.78 1.19-1.25 2.77-1.93 4.13-2.96 1.42-1.06 2.71-2.52 4.39-3.2 1.77-.7 3.95-.72 5.82-1.27 2.2-.65 4.52-.9 6.8-1.19 4.45-.55 8.34-.1 12.57 1.44 1.55.57 4.45 1.4 5.58 2.72.64.76.57.78.39 1.87-.08.44-.74 1.92-.4 2.32.36.46 1.93-.15 2.48-.24.33-.06 1.12-.3 1.44-.17.13.06.11.68.3.82 1.28 1.02 2.64 1.3 3.62 2.75a33.45 33.45 0 014.43 9.5c.55 2.24.92 4.68-.4 6.7-.25.37-3.6 4.8-1.02 4.43 1.65-.24-.68-1.94-.02-2.72.66-.77 2.35 1.55 2.35 2.2l.05.87" id="Fill-1" fill="red"/><path d="M139.92 80.48c0 2.88-3.37 6-6.08 6.55-1.68.33-3.5-.16-5.18-.35-1.56-.18-3.22.01-4.76-.29-3.52-.68-3.72-2.65-5.8-5.15-1.25-1.5-1.94-1.13-3.52-.4-1.94.89-3.82 1.9-5.74 2.84a36.52 36.52 0 01-9.04 3.23c-2.52.49-6.32 1.23-8.83.36-1.4-.48-1.61-1.52-2.5-2.57-.88-1.04-1.16-.89-2.43-1.24-1.34-.37-1.27-.4-1.91-1.72a19.39 19.39 0 00-2.69-4.25c-.55-.64-1.5-1.22-1.76-1.95-.24-.71-.01-1.9-.02-2.65-.02-2.2-.05-4.41-.02-6.62.12-7.64 1.18-15.3.64-22.95-.12-1.62-.15-3.9-1.1-5.3-.98-1.43-2.27-1.35-3.92-1.4-3.31-.1-6.42.09-8.52-2.95-4.35-6.3 7.71-8.18 11.66-7.84 2.85.25 6.86 1.18 8.91 3.43 1.5 1.63 1.8 6.31 1.51 8.6-.4 3.1-.16 6.07-.23 9.22-.08 3.71 1.23 6.88.35 10.66-.79 3.38-2.28 6.77-1.67 10.3.56 3.23 2.8 5.99 5.7 7.44 2.52 1.26 5.8 1.6 8.44.49.96-.41 1.76-1.43 2.72-1.73 1.83-.57 2.74.32 4.41-1.09 1.13-.94 1.44-1.24 2.88-1.74.6-.2 1.5-.38 1.93-.89.43-.51.24-1.36.56-1.76.78-1 1.15-.12 1.93-1 .38-.43.51-1.47.85-2 .39-.63.94-1.07 1.22-1.77a21.6 21.6 0 001.16-4.23c.2-1.39-.4-1.82-.77-3.03-.5-1.62.11-2.84.45-4.4.36-1.66-.8-2.25-.8-3.79 0-1.27.77-1.79.44-3.07-.3-1.2-1.44-1.92-1.5-3.26-.04-1.16.64-2 .3-3.22-.56-2.08-2.73-2.86-4.63-3.16-2.92-.46-5.28.04-6.86-2.96-1.94-3.7 1.04-5.35 4.31-6.06 3.7-.8 7.35.08 10.96-.62 4.36-.85 5.93 1.72 6.34 5.87.4 3.97-.42 7.92-.08 11.88.16 1.91.76 3.76.86 5.67.1 1.7-.46 2.57-1.05 4.09-.82 2.1.16 3.6.02 5.75-.17 2.82-.22 5.89-.41 8.86-.26 3.8 2.43 6.3 6.18 6.3.58 0 2.39-.62 2.81-.46.26.1.94 1.32 1.15 1.55 1.36 1.51 3.13 2.5 3.13 4.78" id="Fill-3" fill="red"/><g id="Group-7" transform="translate(141 .95)"><mask id="mask-2" fill="#fff"><use xlink:href="#path-1"/></mask><path d="M59.27 62.42c0 2.93-.97 5.7-1.88 8.45-.91 2.77-1.17 5.99-2.57 8.55-2.8 5.1-9.06 6.29-14.34 6.92-3.08.37-6.18.43-9.28.67-1.52.13-2.39.48-3.5-.66-1.09-1.12-1.72-2.56-3.18-3.29-1.01-.5-1.25-.04-1.78-1.16-.5-1.04-.38-2.53-.63-3.66-.4-1.82-.66-1.23-2.24-1.9a4.04 4.04 0 01-2.08-2.45c-.43-1.18-.31-2.35-.47-3.56-.17-1.26-.74-2.13-1.31-3.24-1.32-2.56-.8-5.09-.62-7.9.16-2.5-.12-5.24 1.11-7.5.43-.78.92-1.22.84-2.2-.12-1.4-.7-1.6-.2-3.04.67-1.88 2.34-6.38 1.12-8.35-1.58-2.53-7.4-1.72-9.8-2.37-2.53-.68-3.52-3.14-5.67-4.37-3.05-1.74-1.93-4.33.94-5.53 1.16-.49 2.43-.66 3.58-1.18 1.1-.49 1.86-1.08 3.1-1.2 2.8-.27 5.49.27 6.59-3.03 1.77-5.34-2.06-11.47 1.58-16.44.8-1.09 2.8-3.64 4.26-3.89 2.52-.44 3.7 2.95 3.7 4.82.02 2.7.87 5.25.9 7.9.04 3.11-1.6 4.49.4 7.42.52.76.83 2.34 1.32 2.87.63.7 2.6.73 3.47.86 3.25.46 6.55.64 9.83.77 2.52.1 4.92-.12 7.27.94 2 .9 5.18.95 4.07 4-1.71 4.71-10.98 2.46-14.67 2.59-5.9.2-11.01 2.72-11.55 9.14-.3 3.42.38 6.8.6 10.2.2 2.93-.31 6.19.4 9.05a98.3 98.3 0 002.6 8.49c.93 2.64 2.41 5 5.41 5.31 2.56.27 7.63-.45 9.2-2.79 1.71-2.52-2.07-5 .12-7.63.86-1.03 2.15-1.33 3.17-2.08 1.46-1.08 2.18-2.4 4.1-2.94a6.44 6.44 0 013.9.19c1.89.67 2.2 1.25 2.2 3.22" id="Fill-5" fill="red" mask="url(#mask-2)"/></g><path d="M260.16 56.45c-.15-1.93-3-1.47-2.87-3.28.02-.42.93-.75.93-.76.07-.39-.39-1.32-.5-1.56-.52-1.2-1.33-2.23-1.78-3.48-.81-2.22-.78-3.95-2.87-5.39-.9-.61-1.82-.9-2.5-1.82-.58-.8-.68-1.87-1.46-2.54-1.28-1.13-4.22-1.39-5.84-1.92-2.51-.81-4.95-1.19-7.59-.97-4.69.39-8.63 2.7-10.81 6.93-2.32 4.48-2.14 9.73-3.33 14.54-.48 1.95-1.47 4.57-1.04 6.6.18.83.72 1.13 1.14 1.89.66 1.17.63 2.46.78 3.75.24 2.05.5 3.1 2.4 4 .85.42 1.44.62 2.06 1.36.67.8.72 1.66 1.7 1.9.89.22 2.43-.52 3.38-.49.28.01 1-.35 1.24-.24-.18-.08.62 1.13.74 1.23 1.74 1.5 5.64 1.25 7.77.98a7.08 7.08 0 005.38-3.1c1.66-2.17 4.04-2.5 6.12-4.1 1.96-1.51 2.43-4.25 3.12-6.5.76-2.5 1.3-5.22.25-7.73.57.28 3.58 2.52 3.58.7m6.03-2.4c0 1.37-.68 2.5-2.1 2.58.43 1.4 1.54 2.46 1.71 3.94.18 1.52-.56 2.96-1.14 4.32-1.17 2.77-2.1 5.53-3.5 8.22-1.46 2.78-2.99 5.9-5.12 8.23-2.03 2.2-5.12 1.66-7.62 3.06-2.94 1.65-3.93 1.86-6.85.37-2.15-1.1-5.24.61-7.7.81-3 .24-5.96.2-8.47-1.67-.66-.49-2.43-2.99-3.04-3.08-1.16-.18-2.17 1.93-3.34 1.93.16-2.75-2.7.71-3.48.9-1.67.4-2.1-.74-1.92-2.07.21-1.53.04-2.71.01-4.28-.02-1.84.43-3.27-.1-5.12-.53-1.82-1.48-3.63-1.19-5.59.25-1.6 1.24-2.86.88-4.55-.28-1.34-.56-2.2-.54-3.65.01-1.63-.38-3.23-.31-4.86.1-2.25.85-4.32.77-6.6-.07-2.08-.53-4.12-.6-6.2-.06-1.92.55-3.4 1.01-5.22 1.04-4.13-.76-8.6-1.03-12.77-.21-3.18.91-7.47-1.44-10.1-2.7-3-7.1-1.05-10.06-3.23-3.1-2.29-.43-6.16 2.4-7.02 4-1.22 8.37-.17 12.39.38 1.26.17 4.18-.2 4.91 1 .66 1.08-.32 3.9-.35 5.11-.08 3.58-.24 7.14-.08 10.71.12 2.82-.16 8.45 1.83 10.7 1.02 1.15 1.95.57 3.06-.27 1.41-1.1 2.27-1.81 4.11-2.21 1.59-.35 3.23-.15 4.7-.81 1.44-.65 2.32-1.55 4.01-1.31 1.92.27 3.54 1.54 5.46 1.87 1.77.3 3.67.17 5.24 1.2 1.38.9 1.91 1.34 3.6 1.67 1.84.35 3.03 1.36 4.43 2.55 1.42 1.2 2.88 2.54 3.61 4.3.73 1.72.9 3.74 1.44 5.54 1.16 3.85 4.41 7.08 4.41 11.22" id="Fill-8" fill="red"/><path d="M338.67 41.4c0 2.79-2.9 4.23-3.34 6.85-3.39-1.5-7.64 1.68-10.58-1.16-2.72-2.64-3-8-1.96-11.38-1.4-.52-1.25.4-2.29.65-1.08.24-1.23-.48-2.18-.6-2.35-.31-5.37 1.89-6.84 3.51-.66.74-1.05 1.94-1.63 2.36-.66.5-2.17.73-2.97 1.2-2.2 1.28-2.82 3.08-3.72 5.37-.9 2.31-2.65 4.1-3.51 6.38-1.03 2.75.16 5.44.65 8.14.71 3.97-2.24 10.65 2.68 12.67 2.16.88 4.8.59 7.07.49 1.06-.05 2.42-.5 2.94.58.49.98-.69 2.04-.33 2.96.48 1.25 1.34.12 2.2-.35.5-.28.35-1.47 1.23-.26.24.33.15.51.11.9-.06.62-.85 1.9-1.05 2.54-.13.4.33.5.03.89-.5.62-1.4.65-2.13.58-1.91-.18-2.88-2.02-4.85-1.72-3.58.55-.49 2.34-2.1 3.68-1.52 1.24-5.68-.09-7.38-.37a16.9 16.9 0 00-3.64-.32c-1.28.07-2.33.75-3.57.88-2.07.22-2.42-1.7-4.44-1.68-2.7.03-5.25 1.45-7.99 1.38-1.57-.03-4.86-.68-4.8-2.8.06-2.14 3.3-4.47 5.2-4.5 4.6-.09 10.64-.36 11.78-6.08.47-2.36-.13-4.87.24-7.3.48-3.12.05-5.75-.35-8.84-.65-5.14.5-10.36-.3-15.5-.24-1.6-.66-4.41-2.42-5.05-2-.73-5.07.61-7.26.44-2-.16-4.92-.6-6.03-2.53-1.09-1.9-.16-4.85 1.83-5.71 2.4-1.03 5.55-.24 8.08-.34 2.74-.11 5.44-.54 8.2-.3 3.11.29 4.18 1.12 5.55 3.85 1.22 2.43 2.63 3.2 4.95 1.52 1.81-1.32 3.9-1.74 5.86-2.91 2.5-1.5 4.32-1.88 7.12-2.3a17 17 0 003.75-1c.94-.37 1.84-1.14 2.73-1.3 2.32-.42 6.26 1.7 8.17 2.9 2.6 1.62 3.72 3.25 4.51 6.1.71 2.54 2.78 4.74 2.78 7.47" id="Fill-10" fill="red"/><path d="M391.64 48.13c0-1.5-.74-2.98-.92-4.48-.22-1.76-.09-3.51-.6-5.24-.27 2.16-2.58.27-3.4-.24-1.87-1.15-4.22-2.04-6.25-2.89-2.07-.87-4.2-1.5-6.42-1.78-.75-.1-4.96-.84-3.91.69-2.48.63-4.47.92-6.54 2.55-.98.77-1.84 1.77-2.95 2.35-.98.51-2.36.58-3.25 1.23-1.27.94-3.27 5.19-2.65 6.91.83 2.34 4.78 2.98 6.87 3.34 5.4.95 10.41-.55 15.8-.35 2.08.07 14.22 1.9 14.22-2.09m8.79 23.8c0 4.31-4.72 8.08-8.4 9.6-1.96.8-3.75 1.65-5.6 2.68-2.16 1.19-4.34 1.45-6.75 1.8-2.42.34-5.1 1.13-7.55.85-1.86-.2-3.55-1.05-5.45-1.23-2.12-.2-2.96-1.29-4.61-2.45-2.1-1.48-4.53-2.31-6.54-3.97-3.9-3.24-6.46-7.69-8.1-12.43-1.63-4.69-3.37-10.23-1.54-15.1.55-1.45.58-1.72.31-3.22a7.99 7.99 0 01-.08-2.33c.26-2.38 1.26-4.8 2.25-6.96.87-1.9 1.98-4.4 3.67-5.69.5-.38 1.56-.55 1.95-1.02.8-.96.23-1.92 1.5-2.74 1.9-1.23 4.84-1.97 6.97-2.81a34.54 34.54 0 018.27-2.2c5.52-.72 9.88.4 14.29 3.5 3.13.42 5.68 2.85 8.06 4.8 1.82 1.5 3.45 3.23 2.96 5.75l.23-.3c.84.64.82 2.05 1.2 2.9.4.87.92 1.13 1.6 1.8.18.17.55.35.66.6.49 1.11-.02.24-.1 1.18-.09 1.27.13 2.07.43 3.3.41 1.7.2 3.48.03 5.22-.26 2.8-2.07 2.2-3.83 3.85-.4.37-.31.9-.75 1.18-.66.4-2.41-.01-3.17-.09-2.41-.24-4.7-1.03-7.13-1.16-4.83-.25-9.6.87-14.46.69-4.43-.16-8.42-.13-12.75 1.03-2.35.63-3.35.79-2.99 3.34a14.62 14.62 0 002.86 6.41c2.34 3.21 5.65 5.8 9.28 7.4 4 1.78 8.56 1.35 12.8 2.06 3.44.57 7.6-4.72 9.95-7 1.83-1.8 3.78-2.02 6.34-2.2.85-.07 1.78-.2 2.62.02 1.59.43 1.57 1.3 1.57 2.93" id="Fill-12" fill="red"/><path d="M453.57 59.32c0-1.2.27-5.03-1.34-5.33-1.11-.2-3.44 1.73-4.4 2.2-4 1.94-7.59 1.68-11.85 2.27-2.08.29-4.15.77-6.2 1.22-1.34.29-3.2.4-4.4 1.17-.84.54-.9 1.39-1.53 2.06-.68.72-1.53.96-2.3 1.53a7.94 7.94 0 00-2.93 4.67c-1.52 8.8 14.45 9.44 19.8 8.7 2.48-.34 5.17-.85 7.35-2.13 1.77-1.04 2.18-2.39 3.32-3.93 1.16-1.56 2.55-2.39 3.38-4.25 1.13-2.57 1.1-5.42 1.1-8.18m19.28 14.6c0 1.85-1.13 5.85-2.63 6.99-2.03 1.55-5.33 3.1-7.89 3.23-2.68.14-4.78-1.28-6.85-2.83-2.2-1.66-3.27-3.05-5.76-1.24-2.1 1.53-4.27 1.52-6.63 2.49a26.4 26.4 0 01-8.76 2.2c-1.93.1-15.6 1.05-14.21-3.11-3.06 3.5-7.05-3.13-8.37-5.34-.91-1.52-1.78-2.89-1.36-4.64.22-.9.56-1.26.48-2.24-.09-1.04-.44-1.97-.32-3.03.37-3.26 3.05-8.67 5.77-10.52 1.6-1.1 3.57-1.81 5.3-2.69.58-.3.7-.59 1.2-.56.2 0 .52.5.77.53 1.13.16 2.05.27 3.2.05 2.17-.4 3.84-.76 6.07-.45 1.76.25 3.32.45 4.87-.55 1.92-1.24 3.38-2.08 5.7-2.54 2.33-.47 5.12-.55 7.16-1.92 3.98-2.67 1.17-8.1-1.22-10.84-2.63-3-5.94-4.92-9.94-4.43-3.34.41-8.63.1-9.31 4.47-.59 3.8 1.8 7.43-2.33 10-2.8 1.73-8.78 2.57-10.98-.45-1.23-1.68-2.5-4.22-2.55-6.34-.05-2.52 1.38-4.81 2.5-6.97.55-1.04.93-2.11 1.42-3.17.55-1.16.39-1.12 1.76-1.57 1.99-.66 4.03-1.06 6-1.79 3.62-1.34 6.98-2.65 10.9-2.66 8.32-.05 18.6 3.45 21.8 11.85 1.88 4.89 1.93 10.25 1.67 15.41-.27 5.29.1 10.3.84 15.52.35 2.46.61 4.9.73 7.4.1 2.12.7 4.03 3.03 2.17 1.64-1.32 2.14-3.87 4.4-4.32 1.37-.27 3.54.17 3.54 1.88" id="Fill-14" fill="red"/><path d="M545.33 81.94c0 1.37-1.07 1.46-1.64 2.46-.14.24-.16.7-.3.88.24.45.12.66-.35.63-.28.07-.57.13-.86.18-2.12.66-5.22.8-7.43.6-.58-.06-1.06-.07-1.6-.32-.5-.25-1.1-1.3-1.35-1.38-.56-.19-2.6.56-3.2.76-.97.32-1.89 1.54-2.66 1.76-.66.18-2.68-.5-3.33-.6-3.89-.6-10.03-1.1-9.18-6.32.1-.61.27-2.18.87-2.54.69-.43 1.36.22 2.05.26.63.03 1.08.24 1.25-.35.4-1.32-1.84-1.3-2.5-1.3 1.76-1.76 1.35-5.02.75-7.2-.36-1.3-.94-2.64-1.8-3.7-.87-1.04-1.93-1.4-2.67-2.41-1.52-2.07-2.76-4.78-5.86-3.75-2.68.9-5.3 3.75-7.09 5.83-1.76 2.04-.87 2.69-1.14 5.1-.14 1.27-1.5 2.34-1.24 3.44.29 1.14 1.94 1.62 2.87 1.84 1.3.32 2.58.22 3.72.9.99.6 2.06 1.63 2.71 2.57 2.28 3.3-3.02 1.48-1.97 4.07-4.22.17-8.17 1.4-12.32 1.92-1.5.2-3.03.1-4.54.15-1.84.07-3.75.71-5.58.45-3.43-.5-6.44-4.31-5.37-7.8.44-1.4 1.62-2.64 3.21-2.17.44.13.53.8 1.1.77.58-.04 1.07-1.34 1.55-1.65 1.2-.78 2.59-.66 3.74-1.71 1.66-1.54 2.15-3.9 2.32-6.07.14-1.7-.2-3.16-.39-4.82-.2-1.83.33-3.31.73-5.07 1-4.42-.34-9.14-.33-13.61.01-4.08.84-7.7-.4-11.65a6.77 6.77 0 01-.01-4.05c.5-2.17.16-3.61-.27-5.76-.65-3.2 1.58-7.3-1.45-9.71-2.76-2.2-7.48-.43-9.88-2.94-2.78-2.92 1.4-6.52 4.11-7.08 3.65-.76 7.59.56 11.07 1.65.93.29 2.26.54 2.9 1.3.96 1.13.87 3.69 1.01 5.1.38 3.66.96 7.7.54 11.38-.22 1.98-.99 3.73-.85 5.76.12 1.87.8 3.64.96 5.51.43 5.1-.14 10.25.22 15.37.14 2-.18 4.7 2.54 3.74 2.01-.72 2.8-3.06 4.43-4.3 1.76-1.33 3.19-2.04 4.58-3.86 1.25-1.64 2.35-3.39 4.14-4.47 2.06-1.25 2.46-2.06 1.78-4.59-.48-1.78-1.41-3.38-1.16-5.29.07.02.6.12.64.06.12-.16.49.03.7-.3.05-.06-.29-.6-.25-.77.41-1.76 1.23-1.77 3.1-1.36 2.03.45 3.45.95 5.52.33 2.23-.67 3.99-1.5 6.38-1.18 2 .26 3.82.85 5.87.63 1.88-.2 3.78-1.16 5.7-.78 1.37.28 2.4 1.01 2.46 2.19.01.4-.52.44-.44 1 .04.33.32.45.46.72.3.58.96.96 1.14 1.62.83 3-6.42 4.1-8.49 4.45a7.9 7.9 0 01-3.9-.2c-2.02-.54-3.23 0-5.12 1.14a37.69 37.69 0 00-8.72 7.42c-1.95 2.23-4.75 7.3-1.96 9.8.84.75 1.99 1.12 2.73 2.01.55.66.87 1.56 1.32 2.3 1.27 2.07 2.83 3.98 4.3 5.91 2.2 2.92 6.23 7.02 6.08 10.95 2.2-.49 4.45-.7 6.7-.63 1.66.04 4.79-.22 6.19.57.79.45.3 1.18.65 2.25.46 1.42 2.51 2.46 2.51 3.96" id="Fill-16" fill="red"/><path d="M67.34 151.25c0 2.36-1.69 4.6-2.32 6.84-.8 2.8-2.38 4.77-4.52 6.72-1.63 1.5-3.63 3.79-5.54 4.85-1.89 1.05-3.94-.25-5.91.7-.82.4-1.43 1.05-2.31 1.36-.97.33-2 .23-2.97.54-2.72.89-3.7.02-6.38-.54-2.13-.44-4.27.14-6.41.04-2.99-.15-5.56-2.29-8.6-1.94-4.34.5-6.16 7-10.45 6.56-2.27-.23-1.55-1.88-2.27-3.48-.42-.97-1.4-1.59-1.79-2.61-.54-1.41-.36-3.12-.28-4.6.31-5.24 2.06-10.17 0-15.26-.78-1.93-.94-3.12.61-4.81 1.66-1.81 2.6-.6 4.32.36.61.34 1.77.36 2.19.62.84.54 1.36 2.95 1.64 3.84.83 2.6 1.51 5.48 3.22 7.68 1.12 1.43 3.16 3.2 4.88 3.86 1.15.44 5.58-.85 4.89 1.23 2.2.02 4.32-.2 6.49-.61 3.49-.66 5.97-.46 9.34.17.92.17.88.46 1.9-.27.6-.43 1.07-.96 1.59-1.5.98-1 1.93-2.16 3.17-2.88.89-.52 2.55-.47 3.06-1.23.6-.9.14-2.4.76-3.45.83-1.38 1.63-1.95 1.38-3.78a7.69 7.69 0 00-1.88-3.79c-1.77-2.1-4.2-3.56-6.67-4.7-5.26-2.4-11.74-3.96-17.23-1.34 0-3.55-4.6-2.05-5.81-4.92-2.5 3.22-7.45 3.67-10.79 1.6a9.24 9.24 0 01-3.85-4.69c-.64-1.8-.5-3.6-1.37-5.37-1.73-3.5-2.32-7.16-1.04-11.02.66-1.97 1.88-2.3 3.3-3.63 1.36-1.28 1.05-3.55 2.62-4.45.83-.48 1.54-.17 2.23-.91.51-.55.5-1.2 1.1-1.74 1.46-1.31 3.94-1.41 5.75-1.44 4.28-.06 8.52-.3 12.8-.45 2.3-.07 4.54.04 6.77.65 1.89.51 3.67 1.7 5.56 2.08 1.82.38 3.48-1.2 5.15-.84 1.08.23 3.57 2.63 3.9 0 5.02 1.44 5.2 6.89 4.68 11.08-.33 2.67-.65 5.36-.27 8.04.24 1.64.75 1.98-.5 3.05-.98.85-2.14 1.11-2.95 2.23-.8-.7-1.57-1.42-2.39-2.08-1.07-.86-2.25-1.14-3.29-1.81-1.2-.79-.8-1.18-.55-2.4.3-1.37.53-1.29-.53-2.56-1.86-2.25-3.7-3.17-6.27-4.3-2.54-1.13-3.89-.74-6.39-.52-1-.11-2.02-.2-3.02-.34-2.62-.35-5.02-1.55-7.63-1.83-2.42-.27-4.1.17-5.51 2.25-1.01 1.5-1.86 4.65-4.35 3.82.76 2.42 1.5 4.96 3.1 6.98 1.65 2.07 4.08 3.54 6.13 5.15 2.27 1.78 4.66-.45 7.35.2 1.57.39 2.36.07 3.9-.16 1.64-.24 3.23.44 4.85.58 3.4.3 6.65-.3 9.89 1.1 2.5 1.1 4.62 2.8 6.39 4.86 1.56 1.82 3.73 3.43 4.93 5.52 1.14 2 2.2 5.4 2.2 7.69" id="Fill-18" fill="#000"/><path d="M138.64 161.91c0-1.87-2.64-.62-2.19.55.32.82 2.2.37 2.2-.55m4.91-3.82c0 .9-.89 1.08-1.5 1.5a7.29 7.29 0 00-2.12 2.15c-1.27 1.97-1.81 3.72-4.13 4.69-2.03.84-4.51.97-6.3 2.35-.82.64-.95 1.33-1.5 2.14-.76 1.12-.13.56-2.02.92-2.56.5-4.74 2.18-7.22 2.94-2.6.8-4.1-.14-6.46-.96-2-.7-13.55 1.07-11.81-4.11-1.53 1.52-4.77 0-6.23-.87a24.09 24.09 0 01-5.29-4.64c-1.44-1.57-3.14-3.06-4.26-4.9-1.25-2.02-2.19-4.31-3.34-6.4-2.31-4.2-2.84-8.73-3-13.46-.04-1.32-.16-2.77.07-4.08.3-1.67.75-1.44 1.92-2.4 1.94-1.58-.45-2.99.04-5.1.35-1.53 1.48-2.92 1.87-4.53.62-2.56.9-5.56 2.26-7.87 1.27-2.14 2.6-1.38 4.71-1.12 1.12.13 3.89-.08 2.05-1.71-.92-.83-4.17-.03-1.91-2.17 1.05-1 2.36-.87 3.31-2.17.97-1.33 1.07-1.97 2.8-2.43 2.5-.65 5.17-.04 7.66-.75-1.66-.92.76-2 1.68-2.26 1.93-.54 4.32-.33 6.25.04 2.13.4 4.16 1.05 6.36.89 2.73-.2 4.27-.62 6.81.74.52.27 1.23.91 1.8.91.69 0 .99-.75 1.5-.82.98-.12.98.56 1.7 1.02.92.6 1.8.93 2.67 1.6.74.58 1.16.92 2.06 1.23.66.22 1.78.12 2.29.69.6.69.26 1.88.85 2.79 1.04 1.6 2.92 2.5 4.14 3.93a8.06 8.06 0 011.86 4.64c.4 3.79.18 8.92-2.74 11.74-2.55 2.47-6.2 2.49-9.52 2.44-.72-.02-2.32.28-2.98-.05-1.16-.57-2.49-3.87-3.16-4.98-1.05-1.76-2.72-3.98-3.06-6.05-.4-2.48 1.02-4.57-.97-6.68-3.05-3.22-9.7-2.2-13.37-.82 0-4.33-7.26 1.37-8.42 2.42-3.07 2.77-4.25 6.78-7.02 9.77-.35.38-1.97 1.28-2.06 1.49-.22.53.54 2.49.63 2.97.4 1.97.7 3.96.96 5.95.28 2.18.37 4.19.96 6.3.65 2.36-.01 4.05-.19 6.35-.19 2.48.94 2 2.45 3.24 1.42 1.16 1.18 3.73 3.04 4.38 1.23.42 1.45-.42 2.34.75.74.98.5 4.8 2.12 3.76.77-.5.35-1.34 1.5-1.54.93-.17 1.4.29 2.04.81 1.78 1.44 1.93 2.14 4.52 1.5 2.3-.57 4.49-1.66 6.69-2.53 2.05-.83 4.19-1.37 6.14-2.43a13.57 13.57 0 005-4.54c.59-.9 1.12-1.76 1.78-2.6.49-.62 1.17-2.06 1.76-2.54.57-.47 5.08-1.08 5.59-.04.71 1.47-2.55 2-2.55 3.58 2.49-.39 8.95 1.87 8.95 4.93" id="Fill-20" fill="#000"/><path d="M195.8 86.38c0 4.05-1.98 8.57-5.51 10.76-3.46 2.15-8.45.9-11.86-.8-4.3-2.12-4.6-4.68-3.92-9.07.13-.82.02-2.37.36-3.08.21-.43 1.24-1.1 1.6-1.53.93-1.12 2.1-3.84 3.74-4l-.35.13c3.16-1.36 6.12-1.02 9.21.4 2.72 1.26 6.72 3.76 6.72 7.19m33.09 83.19a5.89 5.89 0 01-3.49 5.26c-2.67 1.2-3.65-.96-6.13-1.39-2.87-.49-5.37-.36-7.11-2.98-1.67-2.5-3.22-2.52-6.24-2.02-5.77.97-10.68 4.78-16.45 5.75-1.67.27-3.4.31-5.07.1-1.23-.16-2.64-.95-3.8-1-.85-.04-2.04.34-3.09.38-.87.04-1.52.06-2.35.48 1.76 1.67-7.92 3.63-9.16 3.75-4.66.45-6.73-2.4-9.62-5.55-1.4-1.53-2.83-3.71-.77-5.3 1.86-1.46 5.02-1.82 7.3-1.9 1.94-.08 3.65.5 5.55.75 2.57.35 4.85-.65 7.38-.7 3.33-.07 10.74 1.6 11.43-3.22.68-4.74 1.01-9.64.73-14.42-.14-2.41-.61-4.77-.84-7.17-.09-.95-.44-2.36-.17-3.3.24-.87.61-.68.88-1.5.58-1.71-.9-4.59-.79-6.48.15-2.33 1.23-4.55.87-6.91-.86-5.58-6.14-6.47-10.7-5.24-4.97 1.35-8.97 1.73-14.08.9-3.72-.6-9.43-.41-8.38-5.74.91-4.66 5.93-4.6 9.72-4.9 5.4-.43 10.71-.6 16.12-.04 4.53.47 9.64-.34 13.38 2.82 3.4 2.87 4.61 8.23 2.85 12.3-.4.91-1.48 1.86-1.72 2.76-.27 1 .39 1.2 1.12 1.84 1.06.9 1.1.9 1.39 2.27.09.44.04.82.17 1.27.13.47.85.56.92.78.38 1.21-.01 3.45-.03 4.7l-.07 4.64a434.6 434.6 0 00-.03 8.23c.02 3.77-1.14 12.7 4.18 13.17 5.44.49 11.2-2.99 16.34-.16 2.17 1.2 4.12 3.18 6.41 4.1 2.34.93 3.35.66 3.35 3.67" id="Fill-22" fill="#000"/><path d="M288.9 130.13c0-1.98-.97-3.87-1.15-5.86-.17-1.87-.09-3.66-.63-5.5-.56 2.56-3.23.2-4.4-.46a66.1 66.1 0 00-7.17-3.3 27.57 27.57 0 00-7.34-1.98c-.9-.1-5.6-.9-4.4.83-2.36.63-4.62.81-6.7 2.25-1.04.73-1.94 1.66-2.94 2.44-1.34 1.06-2.6 1.41-4.15 2.02-2.26.87-3.93 4.55-4.2 6.97-.36 3.17 3.03 4.19 5.53 4.87a32.8 32.8 0 009.08 1.13c3.64-.06 7.14-1.07 10.8-1.01 2.5.04 17.67 2.4 17.67-2.4m10.25 27.75c0 5.06-5.48 9.42-9.8 11.21-2.3.95-4.38 1.9-6.54 3.12-2.52 1.42-5.13 1.7-7.96 2.11-2.59.38-5.18.96-7.8.98-2.34.02-4.52-1.15-6.86-1.4-2.85-.33-3.64-1.4-5.9-3-2.32-1.63-5.01-2.51-7.26-4.31-4.66-3.75-7.73-9-9.67-14.58-1.85-5.3-3.86-11.57-2.05-17.14.44-1.36.94-2.07.79-3.43-.14-1.28-.45-2.34-.31-3.65.29-2.77 1.47-5.62 2.62-8.12.99-2.15 2.18-4.73 3.96-6.35.7-.63 2.04-.83 2.6-1.48.69-.78.27-1.85 1.03-2.7.98-1.1 2.96-1.29 4.26-1.78 1.35-.5 2.63-1.2 3.96-1.74a41.4 41.4 0 018.95-2.64c3.06-.5 6.6-.94 9.66-.24 2.94.67 6.07 2.51 8.34 4.15 3.47.46 5.97 2.96 8.66 5.03 2.37 1.82 4.84 3.99 4.2 7.27l.27-.34c1.31.99.98 3.17 1.9 4.38.55.72 1.72 1 2.13 1.8.48.9-.29 1.57-.25 2.75.08 2.23.99 4.04.84 6.4-.2 2.88.07 4.18-2.67 5.59-.38.19-1.32.48-1.68.82-.3.27-.57 1-.75 1.16-.6.52-.81.47-1.71.48-2.91.03-5.6-.82-8.45-1.25-5.7-.84-11.4.68-17.12.63-4.8-.05-9.25-.43-14 .5-1.5.29-4.9.56-6.03 1.72-1.42 1.46.14 5.21.9 6.86 2.06 4.4 5.78 8.02 9.9 10.5a21.4 21.4 0 007.28 2.93c2.73.48 5.53.13 8.27.52 1.01.14 2.54 1 3.46.9 1.33-.15 3.12-1.84 4.14-2.64 2.3-1.8 4.32-3.88 6.4-5.9 1.98-1.94 3.94-2.2 6.64-2.5 1.1-.11 2.22-.24 3.33-.12 2.24.25 2.32 1.32 2.32 3.5" id="Fill-24" fill="#000"/><path d="M377.15 157.74c0-.64-.66-1.05-1.16-1.3-.53 1.56-3.77 3.72-.96 4.93.23-1.4 2.12-2.1 2.12-3.63m-1.16-13.12c0-2.9-3.56-2.08-2.87.8.58 2.45 2.76 1.12 2.87-.8m-44.3-1.57c0-1.77-1.04-4.4-3.16-3.92-1.64.36-2.68.84-2.38 2.62l.07-.2c.56 2.05 3.54 2 4.92 3.2.4-.45.55-1.11.55-1.7m59.06 27.34c0 2.55-2.85 3.07-4.85 3.08-1.49 0-3.02-.5-4.46-.3-1.11.16-2.25.73-3.35.99-2.2.52-4.24-.05-6.39.45-2.74.64-4.71.41-7.47-.18-2.29-.5-4.76-.3-6.71-1.8-1.47-1.13-3.04-3.61-2.93-5.55.25-4.07 11.59-3.14 14.56-2.84-.33-8.35-2.19-16.64-1.4-25.02.32-3.45 2.17-7 1.77-10.46-.17-1.5-.95-2.62-1.47-3.99-.67-1.75-.5-3.71-1.3-5.44-1.42-3.11-5.1-3.7-8.2-3.63-3.1.08-7.76.66-10.4 2.45-1.2.8-1.96 2.19-2.99 3.2-1.14 1.11-2.33.81-3.5 1.63-.97.68-1.22 1.9-1.77 2.9-.3.54-.5 1.26-1.16 1.44-.67.2-.95-1.1-1.7-.06-.32.42.25 1.45 0 1.91-.41.71-1.1.25-1.48.68-.58.67-.23.77-.44 1.64-.36 1.48-1.23 2.47-1.78 3.87-.8 2 .2 3.82.37 5.83.25 2.94-2.45 4.48-1.43 7.43.63 1.81 1.86 3.22 1.95 5.23.08 1.91-.81 3.74-.5 5.67.62 3.75 5.42 3.14 7.87 5.26.5.43.97 1.16 1.45 1.4.43.23.98 0 1.48.4 1.6 1.25.74 3.21.34 4.72-.43 1.62-.18 2.07-1.96 2.71-1.56.57-3.3.78-4.93.97-3.49.42-6.98.44-10.49.32-3.49-.13-7.06-.28-10.49-.98-3.44-.7-7.3-3.13-5.72-7.4 1.5-4 5.37-2.81 8.56-3.6 3.53-.88 3.8-5.3 3.85-8.3.05-2.73-1.53-5.97-.45-8.5.57-1.33 1.22-2.2 1.03-3.76-.27-2.15-.91-3.35-.5-5.6.17-.92.45-1.61.24-2.57-.18-.81-.68-1.33-.72-2.2-.07-1.69.64-3.19.45-4.95-.36-3.27-.78-7.73-3.8-9.63-2.82-1.76-6.7-1.3-8.94-4.04-2.24-2.75-1.78-7.01 1.59-8.44 3.22-1.37 7.43-1.02 10.74-.26 1.8.42 4.02.42 5.64 1.3 2.08 1.14 2.71 3.04 3.14 5.19.29 1.47.72 3.05 1.39 4.4 1.04 2.12 1.24 1.22 2.1-.19 1.6-2.65 5.23-3.42 6.93-6.05.86-1.32.84-1.4 2.3-1.95.9-.33 1.41-.42 2.27-1.1 3.1-2.44 5.97-3.15 9.88-3.13 4.52.02 9.27.14 13.17 2.73 1.78 1.18 2.9 2.75 4.08 4.49.92 1.35 2.26 2.63 2.87 4.16.63 1.59.37 3.24.54 4.89.21 2.18 1.65 3.82 2.1 5.93.43 2.01.07 4.24-.12 6.27-.2 2.11-.04 4.36-.44 6.44-.38 1.97-1.46 3.73-1.03 5.81.45 2.2.6 3.36.3 5.63-.27 1.95.63 2.9.84 4.66.2 1.73-1.37 2.3-1.52 3.88-.35 3.82 4.15 6.3 7.28 5.5 3.6-.92 5.71 3.15 5.71 6.46" id="Fill-26" fill="#000"/><path d="M459.52 161.91c0-1.87-2.64-.62-2.19.55.32.82 2.2.37 2.2-.55m4.91-3.82c0 .9-.89 1.08-1.5 1.5a7.29 7.29 0 00-2.12 2.15c-1.27 1.97-1.81 3.72-4.14 4.69-2.02.84-4.5.97-6.28 2.35-.83.64-.96 1.33-1.5 2.14-.77 1.12-.14.56-2.03.92-2.56.5-4.74 2.18-7.23 2.94-2.6.8-4.08-.14-6.45-.96-2-.7-13.55 1.07-11.81-4.11-1.53 1.52-4.77 0-6.23-.87a24.07 24.07 0 01-5.3-4.64c-1.43-1.57-3.13-3.06-4.25-4.9-1.25-2.02-2.19-4.31-3.34-6.4-2.32-4.2-2.84-8.73-3-13.46-.04-1.32-.16-2.77.07-4.08.3-1.67.75-1.44 1.92-2.4 1.94-1.58-.45-2.99.04-5.1.35-1.53 1.48-2.92 1.87-4.53.62-2.56.89-5.56 2.26-7.87 1.27-2.14 2.6-1.38 4.71-1.12 1.12.13 3.88-.08 2.05-1.71-.92-.83-4.17-.03-1.91-2.17 1.05-1 2.36-.87 3.31-2.17.97-1.33 1.07-1.97 2.8-2.43 2.5-.65 5.16-.04 7.66-.75-1.66-.92.76-2 1.68-2.26 1.93-.54 4.32-.33 6.25.04 2.13.4 4.15 1.05 6.36.89 2.73-.2 4.27-.62 6.81.74.52.27 1.23.91 1.8.91.69 0 .99-.75 1.5-.82.98-.12.98.56 1.7 1.02.92.6 1.8.93 2.66 1.6.75.58 1.17.92 2.07 1.23.66.22 1.78.12 2.28.69.61.69.27 1.88.86 2.79 1.03 1.6 2.92 2.5 4.14 3.93a8.05 8.05 0 011.86 4.64c.4 3.79.18 8.92-2.74 11.74-2.55 2.47-6.2 2.49-9.52 2.44-.72-.02-2.32.28-2.99-.05-1.15-.57-2.48-3.87-3.15-4.98-1.06-1.76-2.72-3.98-3.06-6.05-.4-2.48 1.02-4.57-.97-6.68-3.05-3.22-9.7-2.2-13.37-.82 0-4.33-7.26 1.37-8.42 2.42-3.07 2.77-4.25 6.78-7.02 9.77-.35.38-1.97 1.28-2.06 1.49-.22.53.54 2.49.63 2.97.4 1.97.7 3.96.96 5.95.28 2.18.37 4.19.96 6.3.65 2.36-.01 4.05-.19 6.35-.19 2.48.94 2 2.45 3.24 1.41 1.16 1.18 3.73 3.04 4.38 1.23.42 1.44-.42 2.33.75.74.98.5 4.8 2.13 3.76.77-.5.35-1.34 1.5-1.54.93-.17 1.39.29 2.03.81 1.8 1.44 1.94 2.14 4.52 1.5 2.31-.57 4.5-1.66 6.7-2.53 2.05-.83 4.19-1.37 6.14-2.43a13.57 13.57 0 005-4.54c.59-.9 1.12-1.76 1.78-2.6.49-.62 1.17-2.06 1.76-2.54.57-.47 5.08-1.08 5.59-.04.71 1.47-2.55 2-2.55 3.58 2.49-.39 8.95 1.87 8.95 4.93" id="Fill-28" fill="#000"/><path d="M530.2 130.13c0-1.98-.96-3.87-1.14-5.86-.17-1.87-.09-3.66-.63-5.5-.57 2.56-3.24.2-4.4-.46a66 66 0 00-7.17-3.3 27.57 27.57 0 00-7.34-1.98c-.9-.1-5.6-.9-4.4.83-2.36.63-4.62.81-6.7 2.25-1.04.73-1.94 1.66-2.94 2.44-1.34 1.06-2.6 1.41-4.15 2.02-2.26.87-3.93 4.55-4.2 6.97-.36 3.17 3.03 4.19 5.53 4.87a32.8 32.8 0 009.08 1.13c3.64-.06 7.14-1.07 10.8-1.01 2.5.04 17.67 2.4 17.67-2.4m10.25 27.75c0 5.06-5.48 9.42-9.81 11.21-2.29.95-4.37 1.9-6.53 3.12-2.52 1.42-5.13 1.7-7.96 2.11-2.59.38-5.18.96-7.8.98-2.34.02-4.52-1.15-6.86-1.4-2.85-.33-3.64-1.4-5.9-3-2.32-1.63-5.01-2.51-7.26-4.31-4.66-3.75-7.73-9-9.67-14.58-1.85-5.3-3.86-11.57-2.05-17.14.44-1.36.94-2.07.79-3.43-.15-1.28-.45-2.34-.31-3.65.29-2.77 1.47-5.62 2.62-8.12.99-2.15 2.18-4.73 3.96-6.35.7-.63 2.04-.83 2.6-1.48.69-.78.27-1.85 1.03-2.7.98-1.1 2.96-1.29 4.26-1.78 1.35-.5 2.63-1.2 3.96-1.74a41.38 41.38 0 018.95-2.64c3.06-.5 6.6-.94 9.66-.24 2.94.67 6.07 2.51 8.34 4.15 3.47.46 5.97 2.96 8.66 5.03 2.37 1.82 4.84 3.99 4.2 7.27l.27-.34c1.31.99.98 3.17 1.9 4.38.55.72 1.72 1 2.13 1.8.48.9-.29 1.57-.25 2.75.08 2.23.99 4.04.83 6.4-.19 2.88.08 4.18-2.67 5.59-.37.19-1.31.48-1.67.82-.3.27-.57 1-.75 1.16-.6.52-.81.47-1.71.48-2.91.03-5.6-.82-8.45-1.25-5.7-.84-11.4.68-17.12.63-4.8-.05-9.25-.43-14 .5-1.5.29-4.9.56-6.03 1.72-1.42 1.46.14 5.21.9 6.86 2.06 4.4 5.78 8.02 9.9 10.5a21.41 21.41 0 007.28 2.93c2.73.48 5.53.13 8.27.52 1.01.14 2.54 1 3.46.9 1.33-.15 3.12-1.84 4.14-2.64 2.3-1.8 4.32-3.88 6.4-5.9 1.98-1.94 3.94-2.2 6.64-2.5 1.1-.11 2.22-.24 3.33-.12 2.24.25 2.32 1.32 2.32 3.5" id="Fill-30" fill="#000"/></g></g></svg>
