<svg viewBox="0 0 182 182" xmlns="http://www.w3.org/2000/svg" xmlns:xlink="http://www.w3.org/1999/xlink"><defs><path id="path-1" d="M.06 182h181.36V.58H.06z"/></defs><g id="Page-1" stroke="none" stroke-width="1" fill="none" fill-rule="evenodd"><g id="wellcome-logo-black"><mask id="mask-2" fill="#fff"><use xlink:href="#path-1"/></mask><path d="M62.97 152.67c-.5.76-1.56 1.12-2.5 1.12-1.9 0-2.92-1.3-3.07-3.18h10.76v2.06h-5.19zm-2.57-7.87a2.67 2.67 0 012.78 2.79h-5.76c.3-1.82 1.33-2.79 2.98-2.79zm7.76 1.67c-1.05-3.5-3.63-5.42-8.02-5.42a7.92 7.92 0 00-7.29 4.26l1.2-3.87h-6.02l-2.16 9.77h-.12l-2.07-9.77h-5.43l-1.95 9.77h-.09l-2.3-9.77h-6.02l4.78 15.7h5.94l2.3-9.7h.08l2.25 9.7h5.94l2.81-9.07c-.05.42-.1.84-.1 1.27 0 5.23 3.62 8.2 8.51 8.2 3.38 0 6.42-1.4 7.76-4.4v4h5.75v-21.6h-5.75v10.93zm78.68-1.67a2.67 2.67 0 012.77 2.79h-5.75c.3-1.82 1.33-2.79 2.98-2.79zm.06 8.99c-1.9 0-2.92-1.3-3.07-3.18h11.3c-.02-6.08-2.65-9.56-8.56-9.56a7.9 7.9 0 00-7.93 5.97v-.67c0-2.55-1.33-5.3-5.23-5.3-2.27 0-3.66.81-4.46 1.6-.08.1-.18.19-.23.27-.3.31-.45.52-.57.64a4.54 4.54 0 00-4.13-2.5c-2.12 0-3.84.66-5.05 2.5h-.09v-2.12h-5.58v15.7h5.76v-8.5c0-1.66.5-2.9 2.04-2.9 1.86 0 1.97 1.42 1.97 2.9v8.5h5.8v-8.5c0-1.66.5-2.9 2.03-2.9 1.83 0 1.98 1.42 1.98 2.9v8.5h5.76v-5.37c.95 3.7 4.12 5.77 8.2 5.77 3.55 0 6.73-1.54 7.94-4.87h-5.38c-.5.76-1.56 1.12-2.5 1.12zm-41.96-.52c-2.27 0-2.6-2.3-2.6-4 0-1.68.33-3.95 2.6-3.95s2.6 2.27 2.6 3.96c0 1.7-.33 4-2.6 4zm-12.98-2.33c-.15 1.27-.94 2.33-2.45 2.33-1.86 0-2.54-1.45-2.54-3.96 0-1.91.47-4 2.66-4 1.36 0 2.18.91 2.18 2.49h4.88a10.33 10.33 0 00.03 3.14h-4.76zm12.98-9.89c-4.3 0-6.83 2.16-7.84 5.07-.85-3.53-4.08-5.07-7.47-5.07-4.28 0-7.53 2.54-8.27 6.5v-12h-5.75v21.6h5.75v-5.93c.73 4.17 3.88 6.32 8.09 6.32 3.6 0 6.57-1.79 7.66-5.05 1.03 2.9 3.56 5.05 7.83 5.05 5.76 0 8.36-3.9 8.36-8.26 0-4.35-2.6-8.23-8.36-8.23zm21.44-109.38l-12.13 46.08a6543.7 6543.7 0 00-9.58-36.07c-1.85-6.75-6.34-10-12.97-10H79.27l-12.14 46.1L55 31.69l-27.23 3.16s14.96 56.92 17.69 67.25c1.75 6.61 5.25 11.08 11.93 12.9 6.91 1.87 21.14 6.1 21.14 6.1L90.7 74.87c3.69 14 6.5 24.31 7.61 28.36 1.65 6.05 5.62 9.9 12.54 11.93 9.35 2.75 20.07 5.95 20.07 5.95l22.73-86.43-27.26-3zM0 182h181.42V.58H0V182z" id="Fill-1" fill="#000" mask="url(#mask-2)"/></g></g></svg>
