<?xml version="1.0" standalone="no"?>
<!DOCTYPE svg PUBLIC "-//W3C//DTD SVG 20010904//EN"
 "http://www.w3.org/TR/2001/REC-SVG-20010904/DTD/svg10.dtd">
<svg version="1.0" xmlns="http://www.w3.org/2000/svg"
 width="700.000000pt" height="700.000000pt" viewBox="0 0 700.000000 700.000000"
 preserveAspectRatio="xMidYMid meet">
<metadata>
Created by potrace 1.11, written by Peter Selinger 2001-2013
</metadata>
<g transform="translate(0.000000,700.000000) scale(0.100000,-0.100000)"
fill="#000000" stroke="none">
<path d="M2692 5066 c-42 -24 -41 2 -41 -1006 -1 -936 0 -966 19 -990 l19 -25
543 -2 c299 -1 557 -3 574 -3 l30 0 -3 -55 c-1 -30 0 -55 3 -55 10 0 214 124
214 130 0 6 -194 122 -207 124 -4 0 -8 -21 -8 -49 0 -27 -3 -52 -7 -55 -3 -3
-256 -5 -562 -4 -431 0 -559 3 -569 13 -19 19 -18 1918 1 1937 19 20 1596 21
1609 2 4 -7 9 -438 9 -958 1 -520 2 -948 3 -952 0 -4 8 -5 16 -2 13 5 15 121
15 960 l0 953 -22 21 c-12 11 -24 21 -27 21 -33 7 -1595 2 -1609 -5z"/>
<path d="M3040 4540 c0 -15 38 -16 465 -17 372 0 465 3 469 13 3 7 2 15 -2 17
-4 2 -215 4 -469 4 -426 0 -463 -1 -463 -17z"/>
<path d="M3042 4053 c3 -17 33 -18 463 -19 440 0 485 2 469 28 -3 4 -214 8
-470 8 -438 0 -465 -1 -462 -17z"/>
<path d="M3044 3571 c-2 -2 -4 -10 -4 -18 0 -11 84 -13 465 -13 438 0 465 1
465 18 0 16 -26 17 -461 17 -253 0 -462 -2 -465 -4z"/>
<path d="M1770 2140 l0 -197 38 2 c20 1 40 3 43 4 3 0 5 30 4 66 l-3 65 29 1
c16 1 32 2 37 3 4 1 21 5 38 10 46 11 75 47 82 102 11 101 -48 146 -189 143
l-79 -1 0 -198z m173 102 c29 -32 8 -78 -40 -87 -43 -8 -53 3 -53 63 l0 42 38
0 c25 0 45 -7 55 -18z"/>
<path d="M2205 2334 c-6 -3 -10 -77 -9 -196 l0 -193 42 -3 42 -3 0 75 c0 72 1
76 23 76 17 -1 32 -18 66 -75 45 -76 57 -84 113 -77 l27 4 -54 81 -55 81 29
27 c58 52 48 149 -18 183 -26 14 -181 28 -206 20z m161 -85 c36 -30 -3 -89
-60 -89 -27 0 -34 19 -27 79 3 32 5 33 38 28 19 -4 41 -11 49 -18z"/>
<path d="M2637 2332 c-2 -4 -3 -92 -3 -197 l1 -190 112 -1 111 -1 4 28 c3 16
2 32 -1 36 -3 5 -36 8 -73 7 l-68 -1 0 49 0 48 38 1 c20 1 49 0 63 -1 22 -1
27 4 31 29 3 17 2 33 0 36 -3 3 -34 5 -69 5 l-63 0 0 45 0 44 67 -1 c57 -1 67
1 73 18 4 10 5 26 2 36 -3 15 -19 17 -113 17 -59 0 -110 -3 -112 -7z"/>
<path d="M3034 2331 c-2 -2 -4 -91 -4 -198 0 -152 3 -193 13 -193 10 0 13 21
13 83 l0 82 51 3 51 3 49 -85 c33 -59 54 -86 66 -86 20 0 20 1 -59 127 l-33
51 31 13 c18 7 36 25 43 43 34 80 -15 155 -103 157 -26 1 -62 2 -80 3 -18 1
-35 -1 -38 -3z m178 -48 c15 -15 21 -33 20 -59 -2 -57 -28 -77 -107 -82 -58
-4 -65 -2 -66 14 -1 23 -1 148 0 153 1 2 30 1 66 -1 50 -3 71 -9 87 -25z"/>
<path d="M3439 2337 c-6 -11 -3 -387 3 -389 4 0 53 -2 108 -3 77 -1 100 2 100
12 0 10 -23 13 -95 13 l-95 0 0 83 0 82 86 -1 c75 0 106 7 91 22 -2 2 -42 5
-88 7 l-84 2 -3 73 -3 72 96 0 c76 0 95 3 95 14 0 12 -21 15 -105 15 -58 0
-106 0 -106 -2z"/>
<path d="M3760 2334 c0 -15 146 -381 154 -386 15 -10 19 -1 92 195 66 177 72
201 52 195 -12 -4 -21 -29 -93 -235 -22 -62 -42 -110 -46 -105 -4 4 -32 75
-62 157 -31 83 -58 157 -62 166 -5 12 -35 24 -35 13z"/>
<path d="M4210 2144 c0 -161 2 -193 15 -198 13 -5 15 21 15 193 0 169 -2 198
-15 198 -13 0 -15 -28 -15 -193z"/>
<path d="M4430 2142 l0 -198 103 1 c124 0 145 19 25 23 -46 1 -87 4 -93 6 -11
4 -12 136 -2 153 3 5 42 9 87 8 77 -2 110 8 75 21 -9 4 -50 7 -92 8 l-75 1 0
58 c0 31 1 64 1 72 1 11 21 15 94 17 127 4 114 22 -18 25 l-105 3 0 -198z"/>
<path d="M4768 2335 c-9 -9 106 -392 118 -392 7 0 26 48 44 116 50 182 65 231
70 231 3 0 11 -24 18 -52 37 -151 75 -273 88 -287 17 -19 13 -28 74 202 36
141 45 187 35 187 -8 0 -18 -15 -23 -32 -5 -18 -24 -89 -42 -158 -19 -69 -37
-129 -40 -133 -4 -4 -17 30 -29 75 -48 177 -72 248 -86 248 -17 0 -19 -7 -70
-185 -40 -143 -43 -148 -52 -115 -5 19 -25 92 -43 162 -28 110 -46 148 -62
133z"/>
</g>
</svg>
