<svg version="1.1" id="Layer_1" xmlns="http://www.w3.org/2000/svg" x="0" y="0" viewBox="0 0 166.3 207.3" xml:space="preserve"><style>.st0{fill:#010101}</style><path class="st0" d="M109.1 3.9C94.2-4.3 72.7 1.3 60 12.8c-3.7 3.3-7 7.1-9.6 11.4-7.6 12-12.3 26-16.2 39.5-7.3 25-7.3 53.5-19.6 76.7-4.1 7.7-12.4 14.2-14.3 22.9-1.2 5.5 1.6 13.1 8.5 10.2 3.6-1.4 5.6-5.6 7.8-8.6 3.7-5 7.6-9.8 12.1-14 9.7-9.2 20.5-11.6 33.5-12.2 10.3-.5 20.8-1.1 29.6-7.1 18.3-12.5 22-37 27.1-56.9 2.1-8.3 4.8-16.5 6-25 1.7-10.5 1-22-3.3-31.9a28.6 28.6 0 00-12.5-14z"/><path fill="#c09d76" d="M74.6 86.7h31.3v38.4H74.6z"/><path d="M120.2 54.5C118.5 79 99 107 82.5 96.5 62.6 83.7 49.2 74.2 51 49.7s18.5-43.3 37.6-42 33.3 22.3 31.7 46.8z" fill="#d7ae82"/><path d="M96.2 168.4a70.8 70.8 0 0036.3-5.1c2.6-7.6-4.4-20.1-7-26-.9-1.9.1-3.7 1.5-4.6l-.3-1.6c-.5-3.9-.3-8-.2-12-.3-3-.4-6.1-.2-9.3a78.3 78.3 0 00-8.2-4.7c-3.8-2-.4-7.7 3.4-5.8 23.8 12 44.7 38 44.8 65.6 0 36-47.5 30.2-70.8 23.7a3.4 3.4 0 01-2.4-3.2l-.2-13.6c0-1.7 1.5-3.6 3.3-3.4z" fill="#d63633"/><path d="M80.7 173.7a70.8 70.8 0 01-36.3-5.2c-2.6-7.6 4.4-20.1 7-26 .9-1.9-.1-3.7-1.5-4.5 0-.6.2-1 .3-1.7.5-3.8.3-8 .2-12 .3-3 .4-6.1.2-9.3 2.7-1.7 5.4-3.3 8.2-4.7 3.8-2 .4-7.7-3.4-5.8-23.8 12-44.7 38-44.8 65.6 0 36 47.5 30.2 70.8 23.7a3.4 3.4 0 002.4-3.2L84 177c0-1.7-1.5-3.5-3.3-3.3z" fill="#d23532"/><path d="M135.7 160.7l9.1-23.4c2.4-6.2 4.8-11.9 2.5-18.5a31.4 31.4 0 00-15.8-16c-3.4-1.8-7-3.3-10.6-4.1a141 141 0 00-13.9-2.5 19 19 0 01-33.8 2c-1.1-2.2-20.5 5-22.8 6.1-6.8 3.2-15 8.6-17.8 15.8-2.6 6.7 0 12.3 2.7 18.5l10 23.4a7 7 0 004.3 4l3 39.7 85.2-8.5-5-33a7 7 0 003-3.5z" fill="#ef3e3f"/><path class="st0" d="M71.7 63.6a4.1 4.1 0 00.6 4.3c.2.3.6.3.9.2 1-.7 1.1-2 1-3.1-.2-.6-.4-1.3-1-1.6-.3-.3-.9-.2-1.2.1-.4.3-.5 1-.2 1.3.1.1.2.3.4.3h.6c.3-.2.5-.7.3-1 0-.1 0-.1 0 0v.5h-.2l-.1.1h-.3c.1 0-.1-.2 0 0-.1-.2 0-.1 0 0 0 0 0-.2 0 0l.1.5v.3h.1c0 .2 0-.1 0 0v.6c0 .1 0 .2 0 0v.3c0 .2-.1.1 0 0l-.1.2c0 .1 0-.1 0 0-.2.2 0 0 0 0l-.2.1 1 .1c-.1 0 0 0 0 0h-.1l-.1-.2-.2-.3v-.1-.2l-.1-.2v-.1s0-.2 0 0v-.2-.2-.2-.1s0-.1 0 0v-.2-.2-.2s.2-.2.1 0c.2-.4.1-.9-.3-1-.3-.2-.8-.2-1 .2zM100.4 63.3c-.4 1.5-.3 3 .2 4.5.2.5.8.7 1.2.3a4 4 0 00.3-5.2c-.2-.3-.8-.3-1 0-.4.3-.3.7 0 1-.1 0-.1 0 0 0v.2l.1.2.1.1s0-.1 0 0v.2l.1.3v.1s0-.2 0 0v.6c0 .2 0 0 0 0v.3a2.2 2.2 0 01-.1.4l-.2.4s-.1.2 0 0l-.1.1-.2.2 1.2.4-.2-1v-.2c0-.1 0-.1 0 0V66a8.4 8.4 0 010-1.5s0-.2 0 0v-.3-.5c.2-.4 0-.9-.4-1-.5 0-.9.2-1 .6z"/><path d="M87.7 72.9l-3.3 4c-.7.9 0 2.2 1.1 2.1l7.1-.5c1.1 0 1.6-1.4.8-2.2l-3.8-3.6c-.6-.5-1.4-.4-1.9.2z" opacity=".5" fill="#b77f4a"/><path class="st0" d="M86.3 87.4c1.4.1 2.8.6 4.2.6 1.5-.1 2.9-.6 4.3-.8.4 0 .4-.6 0-.6-1.4.2-2.8.7-4.3.8-1.4 0-2.8-.5-4.2-.6-.4 0-.4.6 0 .6zM51.2 40.8C51.3 22.1 67.1 7 86.4 7s35 15.4 34.8 34.2"/><path d="M142.3 207.3H39.8a8.5 8.5 0 01-8.5-8.5V133c0-4.7 3.8-8.5 8.5-8.5h102.5c4.8 0 8.6 3.8 8.6 8.5v65.7c0 4.7-3.8 8.5-8.6 8.5z" fill="#d2d0ce"/><circle cx="90.3" cy="165.8" r="11" fill="#e3ebf6"/></svg>
