<svg version="1.1" id="Layer_1" xmlns="http://www.w3.org/2000/svg" x="0" y="0" viewBox="0 0 242.4 210.6" xml:space="preserve"><style>.st0{fill:#e3ebf6}.st1{fill:#29180d}.st2{fill:#845c32}.st4{fill:#010101}.st7{fill:#d7ae82}.st10{fill:none;stroke:#ef3d39;stroke-width:1.5;stroke-miterlimit:10}.st12{fill:#55958e}.st14{fill:#ef3d39}</style><ellipse class="st0" cx="160.1" cy="37.9" rx="53.5" ry="37.9"/><path class="st0" d="M107.3 74.3l24.7-6.7-18-18z"/><path class="st1" d="M214 75.5c.3-1.4.1-3-.6-4.1 1.1-3-.4-7-4.5-7-4.5 0-5.9 4.9-4 7.8-.3.6-.4 1.2-.4 1.8-3.6.8-4.6 5.2-2.8 7.9v.8l-.5.5a6 6 0 00-.6 0c-6.4 0-6.5 10 0 10 1.8 0 3-.8 3.9-1.9h.6c3.3 0 4.9-2.5 4.8-5.1a5 5 0 001.4-3c3.4-1 4.3-5.1 2.7-7.7zM160 69.5c-.4-2-2-4-4.7-4-5.1 0-6.2 6.3-3.2 9-1.6 3-.2 7.6 4.2 7.6 3.4 0 5-2.9 4.8-5.6 1.4-2.1 1-5.4-1.1-7z"/><path class="st2" d="M236.1 146.8c-1-1.3-2.3-2.6-3.5-3.8a38.7 38.7 0 00-18.9-11.8c-11.2-2.6-16 13.7-4.7 16.3 5.6 1.3 9.4 5.4 13 9.6 1.4 1.6 2.6 2.5 2.1 4.5s-2.8 3.9-4.4 5c-10.6 7.7-25.2 5.6-37.5 7.6-4.8.8-7.4 6.3-6.3 10.5 1.4 4.7 6.3 6.7 11 5.9 11.2-1.9 22.8-2 33.7-5.6 10.2-3.4 21.8-12.1 21.8-24 0-5.8-2.7-10.2-6.3-14.2z"/><path d="M76.3 163.6c7 1 13.9-.2 20.4-4 1.4-6-2.5-15.6-4-20.1-.4-1.5.1-3 .9-3.6l-.2-1.2c-.3-3-.2-6.2-.1-9.3a60 60 0 01-.1-7.3c-1.5-1.3-3-2.5-4.6-3.6-2.1-1.5-.3-6 1.9-4.5a64.6 64.6 0 0125.1 50.8C115.6 188.6 89 184 76 179c-.8-.3-1.4-1.4-1.4-2.5v-10.5c0-1.3.8-2.7 1.8-2.5z" fill="#d63633"/><path class="st4" d="M81.4 34.5a32 32 0 00-30.9 1.7 48 48 0 00-18 21.7 212.5 212.5 0 00-12.3 46.7c-2.1 14.6-3.1 30.1-9.4 43.7-3 6.3-9.4 11.8-10.7 19-.7 4.5 1.7 10.8 7.1 8.3 2.8-1.3 4.3-4.7 6-7.2 2.7-4.2 5.6-8.2 9.1-11.8 7.4-7.6 16-9.8 26.2-10.5 8.1-.6 16.5-1.2 23.3-6.3 14-10.6 16.2-30.8 19.7-47.3 1.3-6.4 3-12.8 3.8-19.3 1-7.6-.2-15.5-2-22.9A24.4 24.4 0 0082.2 35l-.8-.4z"/><path fill="#c09d76" d="M56.1 97.2h24.6v30.1H56.1z"/><path d="M103.6 128.2c-1-11-8-19.4-16.4-19.4h-6.6l.2.5c0 2.1-5.6 3.9-12.6 3.9s-12.5-1.8-12.5-3.9c0-.2 0-.4.2-.6H51c-8.6 0-15.6 8.7-16.4 19.8-.1 1.3 0 2.6.1 3.8l8.6 58.4H93l10.3-58c.3-1.5.4-3 .3-4.5z" fill="#ef3e3f"/><path class="st7" d="M91.8 72c-1.3 19.1-16.5 41.2-29.5 32.8-15.6-10-26.1-17.4-24.8-36.6C38.8 49 52 34.2 67 35.2S93.1 52.8 91.8 72z"/><path class="st4" d="M64.3 71l-.3.8v1c0 .6.3 1.1.7 1.6l.4.2h.5c1-.6 1-1.6.8-2.5 0-.5-.2-1-.7-1.3a1 1 0 00-1.2.1c-.3.3-.4.8-.2 1.2.2.1.3.3.5.3h.6c.1-.2.3-.3.3-.5v-.6h-.1v.1l.1.2v.2l-.1.1-.2.2h-.1-.1-.2-.1V72c-.2-.2 0 0 0 0l-.1-.2.2.9v-.2V72.9l-.1.3V73v.2s.1-.1 0 0c0 0 .1-.1 0 0l.9.1c-.1 0 0 0 0 0l-.1-.1-.2-.3.1.2-.2-.6V72v.2l.2-.6V71.2c0-.2-.1-.4-.3-.5a.8.8 0 00-.6 0c-.2 0-.4.1-.4.3zM83.5 70.8c-.2 1.1-.2 2.3.1 3.4.2.5.9.7 1.3.3a3 3 0 00.2-4c-.1-.2-.4-.3-.5-.3-.2 0-.4 0-.6.2l-.2.5.2.6s0-.2 0 0l.2.2v.4c.1.2 0-.1 0 0v.4c0 .2 0 0 0 0v.4c0 .2 0 0 0 0l-.2.3s-.1.2 0 0l-.2.2 1.3.4-.2-.7v-.2c0-.2 0 .1 0 0v-.4a6 6 0 010-.8c0-.1 0 0 0 0v-.2-.3c.1-.4 0-.9-.5-1-.3 0-.8.2-.9.6zM70.7 94.7c1.1 0 2.2.5 3.4.4 1.1 0 2.2-.4 3.3-.6.4 0 .4-.6 0-.6-1.1.2-2.2.6-3.3.6-1.2 0-2.2-.3-3.4-.4-.4 0-.4.6 0 .6zM37.8 61.2c0-14.7 12.4-26.5 27.5-26.4s27.3 12 27.3 26.7"/><path transform="rotate(-180 179.7 117.3)" fill="#6f4d28" d="M167.4 102.2H192v30.1h-24.6z"/><path class="st2" d="M156.5 80.7c1 16.1 14.8 34.6 26.7 27.5 14.2-8.4 23.8-14.7 22.7-31s-13-28.4-26.7-27.5c-13.7 1-23.8 14.8-22.7 31z"/><path class="st4" d="M182.4 80.2v-.1l.2.7v-.2V81l-.2.6v-.2l-.1.4 1-.2c.1 0 0 0 0 0s-.1-.2 0 0l-.1-.2V81.3 80.7v.2l.1-.7v.2s0-.1 0 0c-.1 0-.1 0 0 0-.2 0-.2.1-.2 0l-.1.2h-.2-.2.1l-.1-.1s-.2-.1-.1 0c0 0-.1-.2 0-.1l-.1-.2V80 80v-.2c-.2.4 0 .9.3 1 .4.3.8.2 1-.2.3-.4.2-.8-.2-1.1a1 1 0 00-1.1-.2c-.5.3-.6.8-.6 1.3v1.3c0 .5.3.9.8 1.1.1.1.4.2.5.1.2 0 .4-.2.5-.3a3.5 3.5 0 00.2-3.2c0-.2-.3-.4-.5-.4h-.5c-.2.2-.4.3-.4.5v.6zM161 80.3l.2.5v-.2 1l-.1.4 1.2-.3v-.1.1a2 2 0 01-.2-.4l.1.2-.1-.5v-.3-.3.2l.1-.2.1-.6c0-.2-.2-.4-.3-.5a.8.8 0 00-.6 0c-.2 0-.4.1-.5.3-.3.4-.4 1-.3 1.5 0 .6.2 1.2.7 1.7.4.4 1.1.2 1.2-.4a5 5 0 000-2.6c0-.3-.5-.6-1-.5-.3.2-.5.5-.4 1z"/><path d="M175 84.5l1.3 4.9c.2.8-.5 1.6-1.4 1.5l-3-.2c-1 0-1.5-1-1.2-1.7l2-4.7c.4-1.2 2-1 2.4.2z" fill="#a27040"/><path class="st4" d="M177.2 98c-.6.1-1.2.4-1.7.7-.5.3-1 .7-1.7.7-.6.1-1.1-.3-1.6-.6-.5-.4-1-.8-1.6-.9-.4 0-.6.6-.2.6 1.3.2 2 1.6 3.3 1.5.6 0 1.2-.3 1.7-.6.6-.3 1.1-.7 1.8-.7.4 0 .4-.7 0-.6z"/><ellipse class="st10" cx="161.4" cy="81.2" rx="6.2" ry="5.6"/><ellipse class="st10" cx="183.4" cy="80.7" rx="6.2" ry="5.6"/><path class="st10" d="M167.6 79.9s3.6-1.4 4.8-1.4c1.4 0 5.4 1.4 5.4 1.4"/><path d="M178.1 182.6a6 6 0 01-2.5-8.2l.7-1.3a6 6 0 018.1-2.4 6 6 0 012.5 8l-.7 1.4a6 6 0 01-8.1 2.5z" fill="#ae8046"/><path class="st12" d="M206 118.2l-15.6 17.4 28.2 24.5 14.2-24.9-23.1-14.7z"/><path class="st12" d="M214.6 198.8l-.3-59.2c.3-1.4.4-2.9.3-4.4-1-11-7.8-19.4-16.2-19.4H192l.2.5c0 2.1-5.5 3.9-12.3 3.9s-12.4-1.8-12.4-3.9c0-.2 0-.4.2-.5h-4.8c-8.7 0-13.5 9.6-18.5 15.4-.8 1-11.8 13.5-11.7 13.6l14.5 13.6.5 39.3 67 1z"/><path class="st0" d="M55.7 136.5h40.9v50.3H55.7z"/><path class="st7" d="M62.1 178.6a6 6 0 01-2.5-8.2l.7-1.3a6 6 0 018.1-2.4 6 6 0 012.5 8l-.7 1.4a6 6 0 01-8.1 2.5z"/><path d="M61.2 165.4a42.3 42.3 0 01-24.7-4c-1.7-6 3-15.8 4.8-20.4a3 3 0 00-1-3.6l.2-1.3c.3-3 .2-6.2.1-9.4.3-2.4.3-4.8.2-7.3a53 53 0 015.5-3.7c2.6-1.5.3-6-2.3-4.5a62.8 62.8 0 00-30.4 51.4c0 7 2.3 14.1 8.5 18.1a32.3 32.3 0 0018.8 4.2c6.7-.2 13.3-1.5 19.7-3.4 1.5-.4 2.7-1.2 2.8-2.9V168c0-1.3-1-2.8-2.2-2.6z" fill="#d23532"/><path class="st14" d="M44.7 110.7c-17.9 2.5-11.2 26.8-7.4 37.6 2.1 6 11.8 3.5 9.7-2.6-2-5.5-9.3-24 .4-25.4 6.3-.9 3.6-10.5-2.7-9.6z"/><path class="st1" d="M215.3 61.4c2-2 1.8-5.6-.8-7.1 0-2-1.4-4-4-4.3 0-2.3-1.5-4.6-4.7-4.7h-.3c-.4-1-1.2-1.8-2.3-2.2.2-2.4-1.3-4.8-4.6-5a5 5 0 00-3 .9c-.8-1.2-2.1-2.1-4-2.2-.6 0-1.2 0-1.6.2-.8-.9-2-1.4-3.5-1.5-1 0-1.8.2-2.4.5-.7-.4-1.5-.6-2.5-.7-1.7 0-3 .6-3.8 1.5h-.5c-.8 0-1.4 0-2 .3-.7-1.2-2-2-4-2.1a4.5 4.5 0 00-5 5c-.5-.3-1.2-.4-2-.5-2.9 0-4.5 1.7-5 3.6-1.3 1-1.9 2.7-1.7 4.2-3.4.3-4.8 3.4-4 6a4.4 4.4 0 00-2.9 3.7c-2.7 2.3-1.9 7.5 2.7 8 .3 1.9 1.8 3.6 4.5 3.7 2.8.1 4.4-1.5 4.9-3.5l1.1.2c2.2 0 3.7-1 4.5-2.4l1 .2a5 5 0 003.4-1c.6.4 1.4.6 2.4.6a5 5 0 003.1-.8 5 5 0 003.1 1 5 5 0 003-.7c.8.8 2 1.3 3.5 1.4 1.4 0 2.6-.4 3.4-1 .5.9 1.4 1.6 2.7 2 .6 1.4 2 2.6 4.3 2.7h.2c0 2.3 1.4 4.7 4.7 4.8h.3c.8.8 2 1.4 3.5 1.4 3.2.2 5-2.1 5-4.4 4.6-.1 5.8-5.3 3.3-7.8z"/><path class="st0" d="M128.7 133.5h40.9v50.3h-40.9z"/><path class="st2" d="M215.6 136.3v1.3-1.3zM215.6 169.3c-7 .8-14.1.9-20.4 2-4.8.7-7.4 6.2-6.2 10.4 1.3 4.7 6.2 6.7 11 5.9 5-.9 10.3-1.4 15.6-2v-16.3z"/><path d="M228 210.6H27a12 12 0 01-12-12V195a12 12 0 0112-12h201a12 12 0 0112 12v3.5a12 12 0 01-12 12z" fill="#d2d0ce"/><ellipse transform="rotate(-15.9 45.1 113.7)" class="st14" cx="45.1" cy="113.8" rx="8.5" ry="4"/><path d="M73.5 81l-1.9 2.2c-.7.9 0 2.2 1.1 2.1l4-.3c1.2 0 1.7-1.4.8-2.2l-2.1-2c-.6-.5-1.5-.5-2 .1z" opacity=".5" fill="#b77f4a"/></svg>
