<svg version="1.1" id="Layer_1" xmlns="http://www.w3.org/2000/svg" x="0" y="0" viewBox="0 0 117.9 217.9" xml:space="preserve"><style>.st2{fill:#845c32}.st3{fill:#29180d}.st4{fill:#fae79c}.st6{fill:#303030}.st7{fill:#010101}</style><path d="M112 47.5c-1-2.6-4-1.1-3 1.4 2.7 7.3 6.8 18.7 4.3 26.4-.8 2.5 2.3 4.3 3 1.9 3-9-1.1-21.3-4.3-29.8z" fill="#7ab76e"/><path d="M115.6 45.1l-3 7.5-8.3-3.2A32.2 32.2 0 0186.4 7.5l3-7.5 8.2 3.3a32.2 32.2 0 0118 41.8z" fill="#446f40"/><path class="st2" d="M105.3 69.7l-.8-.8c-2.5-1.9-2.7-6-.4-9l1.9-2.5c2.3-3.1 6.2-4.1 8.7-2.3l.8.6c2.5 1.9 2.7 6 .4 9l-1.9 2.5c-2.3 3.1-6.2 4.3-8.7 2.5z"/><path class="st3" d="M18 80a5.4 5.4 0 00-6.9-2.2c-5.5 2.3-3.9 9.6.5 11.1-.4 4 3.2 8.4 8 6.4 3.7-1.5 4.2-5.4 2.8-8.1.5-3-1.3-6.4-4.4-7.2z"/><path class="st4" d="M109.4 63.9c-1.7-1.6-5.3-6.6-7.5-3.3-1.3 1.8-2.5 3.6-3.9 5.2-4.1 5-9.2 9.2-13.4 14.1C80 85.3 76 91.2 71.7 97l-.7.8-5.5 6c-3.9 4-8 8-12.9 10.6-4.2 1.2-8.5 1.7-12.6 3.1a19.6 19.6 0 00-10.5 8.6l-1.2 1c-4 3-5.5 6.7-4.8 11h-.1l4 56.7 62.3-5.8-6.8-47.3 11.2-31.3c4.9-13.7 8.8-29.2 18.6-40.3.5-.6 2-1.3 1.8-2-.3-2-3.8-3-5-4.1z"/><path fill="#6f4d28" d="M30.4 101.2h26.3v22.4H30.4z"/><path class="st3" d="M63.5 52.7c-.9-2.4-3-4.2-6.2-3.7-6 1-6 8.4-2.1 10.9-1.3 3.7 1.1 8.8 6.2 8 4-.6 5.4-4.2 4.6-7.3 1.2-2.7.2-6.5-2.5-8z"/><path class="st6" d="M92.5 210l-61.1 8-4-28 61-8z"/><path class="st2" d="M63.6 68.5c7.5 16.3 4.7 41.2-9.7 40.1-17.2-1.3-29.1-2.8-36.5-19.1S14.3 55.2 27 49.4s29.1 2.7 36.5 19z"/><path class="st7" d="M45.8 73.2c-.1 1.2.5 2.3 1.5 2.9h.5l.5-.1c.1-.2.3-.5.3-.8v-.8c0-.4-.3-.8-.5-1.1l-.4-.6c-.3-.2-.7-.4-1-.3a1 1 0 00-.8.7c-.1.4 0 .8.4 1 .4.3.9.1 1-.2.3-.4.2-.8-.2-1h.1l.1.2v.1l.1.2V73.7h-.2v.1H47 47h-.2-.1 0l.2.2-.1-.2.4.8v-.1l.1.4v-.2V75h1l-.4-.3.2.1c-.2 0-.3-.2-.4-.4v.2l-.2-.6v.2l-.1-.6v-.2c0-.4-.4-.8-.8-.8s-.7.3-.8.7zM59.4 68a5.6 5.6 0 00.4 1.6c.2.5.4.9.8 1.3.2.3 1 .2 1.1-.2a2.7 2.7 0 00-1-3.4c-.3-.2-.8-.1-1 .2-.2.4-.1.8.2 1l.2.2-.1-.1.3.3-.1-.2.2.5V69l.1.5v-.2.3l-.1.5v-.2l1.2-.1v-.1.1l-.5-1v.2l-.3-1.1v.2c0-.3 0-.4-.2-.6a.7.7 0 00-1 0l-.3.5zM53.8 93.4c1 0 2 .4 3 .4 1.1 0 2.1-.4 3.2-.6.4 0 .4-.6 0-.6-1 .2-2 .5-3.1.6-1 0-2.1-.3-3.1-.4-.4 0-.4.5 0 .6z"/><path d="M55.3 77.8l.7 4.3c0 .8 1 1.3 1.8 1l2.3-1.3c.8-.4 1-1.4.4-2l-3-3c-1-1-2.4-.2-2.2 1z" fill="#a27040"/><path class="st3" d="M2.7 78.6c.4 1.5 1.3 3 2.5 3.9.4 3.5 3.7 7 7.5 5.2 4.2-2 3-7.6 0-9.8 0-.7-.2-1.3-.5-2 3-2.3 1.7-7.2-1.2-9.2 0-.3-.2-.6-.4-.8l.2-.8c.2 0 .4 0 .6-.2 6-2.8 1.1-13-4.8-10.1a4.5 4.5 0 00-2.7 3.5l-.6.3c-3 1.4-3.2 4.8-2 7.3a6 6 0 00.3 3.8c-2.8 2.3-1.6 7 1 8.9z"/><path class="st3" d="M56.4 41c.2-2.7-2-5.5-4.8-5.4-1.2-1.6-3.3-2.4-5.4-1.3-1.3-1.9-3.7-2.9-6-1.3l-.2.1a4 4 0 00-3-.6c-1.2-2-3.8-3-6.1-1.5a4 4 0 00-1.7 2.3 4 4 0 00-4.1.3c-.4.3-.8.6-1 1a4 4 0 00-3.4.6c-.6.5-1.1 1-1.4 1.7-.7 0-1.4.3-2 .8a4 4 0 00-2 3.2l-.3.2c-.5.4-1 .8-1.2 1.3a4 4 0 00-4.1.4c-2.6 1.8-2.2 4.8-.5 6.7-.6 0-1.2.3-1.8.7-2 1.4-2.2 3.7-1.3 5.5A5 5 0 007.3 60c-2.3 2-1.4 5.3.6 7-.8 1.4-.6 3 .2 4.4-.5 3.3 3 7.1 6.6 5.1 1.4 1.4 3.4 2 5.4.6 2-1.4 2.2-3.6 1.4-5.4.3 0 .6-.2 1-.5a4 4 0 001.7-4.2l.8-.5a4 4 0 001.8-2.5c.7 0 1.4-.3 2-.7a4 4 0 001.8-2.4 4 4 0 002.8-.8 4 4 0 001.7-2.2 4 4 0 003.2-.7 4 4 0 001.8-2.6c1 .5 2 .6 3.2.2 1.3.9 3 1 4.6 0l.2-.2c1.2 2 3.7 3 6.1 1.4l.2-.1a4 4 0 003.3-.7c2.4-1.6 2.2-4.4 1-6.2 3.1-2.5 1-7.3-2.3-8z"/><path class="st6" d="M87.3 104.9c-1.4.4-2.9-.5-3.3-1.9l-5.3-18.8c-.4-1.4.5-2.9 2-3.3 1.3-.4 2.8.4 3.2 1.9l5.3 18.8c.4 1.4-.5 2.9-1.9 3.3z"/><ellipse transform="rotate(-15.9 77.2 69.5)" cx="77.2" cy="69.5" rx="6.2" ry="12.6" fill="none" stroke="#303030" stroke-width="4" stroke-miterlimit="10"/><path class="st4" d="M58.4 114.3l-1 1.1-.8.7a7 7 0 01-2.3 1 35.9 35.9 0 01-12.7 1.4c-4-.3-8-2.5-12-1.1-10.5 3.5-10 17.2-10.7 26.1-.7 9.6-3.6 48.7 14 45.8 2.1-.3 3.5-2.8 3.6-4.8v-.2c0-2.8-1.6-4.3-3.6-4.8-1.4-2-2.2-7-2.6-8.6a67.3 67.3 0 01-1.5-27.5c.9-.8 1.5-2 1.5-3.4 0-4.6.1-9.2 3.1-12.8 5.9 1.6 12 1.8 18 .8 5.2-1 12.7-3.1 15.4-7.5 3-4.8-4.3-10-8.4-6.2z"/><path class="st2" d="M85.9 111.4l-1.1-.1c-3.1.2-5.9-3.2-6.1-7.5l-.2-3.4c-.2-4.3 2.2-8 5.3-8l1-.1c3-.2 5.8 3.2 6 7.4l.2 3.5c.2 4.2-2 8-5.1 8.2z"/><path d="M91.5 103.8h-1.3l-10 .5c-1 0-2 .1-2.7.8-1 1-.9 2.6-.6 4a57 57 0 01-1.4 24.3c-2.2 7.9-13.4 3.1-18.2.2-5.7-3.4-9.4-8.9-14.8-12.5-4.5-3-11.2-5.8-16-2.2-4.5 3.4-4.8 9.7-2.6 14.5 7.6 16.2 29.2 28.4 46.2 30.3 7.2.8 15 0 20.5-4.8 6.7-5.7 8.1-15.4 7.9-24.1a91.4 91.4 0 00-6-29.6c-.1-.4-.3-.9-.6-1.2l-.5-.2z" fill="#f7cc1a"/><path class="st3" d="M12.4 75c-.3 1.5-.1 3.2.6 4.6-1.2 3.3.3 7.9 4.5 8 4.6 0 6-5.5 4.2-8.8.3-.7.4-1.4.4-2 3.7-1 4.7-5.8 3-8.8v-1l.5-.6h.6c6.6.1 6.7-11.1.1-11.2-1.8 0-3.1.9-4 2h-.5c-3.4 0-5 3-5 5.8a6 6 0 00-1.5 3.5c-3.5.9-4.4 5.5-2.9 8.5z"/></svg>
