<svg id="Layer_1" data-name="Layer 1" xmlns="http://www.w3.org/2000/svg" viewBox="0 0 710.4 662.7"><defs><style>.cls-1{fill:#e3ebf6}.cls-2{fill:#845c32}.cls-3{fill:#f7cc1a}.cls-4{fill:#010101}.cls-6{fill:#232323}.cls-7{fill:#614220}.cls-8{fill:#303030}.cls-11{fill:#bebdbb}.cls-13{fill:#ae8046}.cls-14{fill:#55958e}.cls-21{fill:none;stroke:#282828;stroke-miterlimit:10;stroke-width:2px;opacity:.3}</style></defs><path class="cls-1" transform="rotate(-30 126.5 315.6)" d="M108.3 293.2h36.4V338h-36.4z"/><path class="cls-2" d="M108.2 338.6l-.8-.8c-2.5-1.8-2.7-5.9-.4-9l1.8-2.4c2.3-3.1 6.3-4.2 8.8-2.3l.8.6c2.5 1.8 2.6 5.9.3 9l-1.8 2.5c-2.3 3-6.2 4.3-8.7 2.4z"/><path class="cls-3" d="M117.4 336.9c-.4-2-3.8-2.9-5.1-4.1-1.7-1.6-5.3-6.5-7.6-3.3-1.2 1.8-2.4 3.6-3.8 5.3-4.2 5-9.2 9.1-13.4 14-4.6 5.4-8.6 11.4-13 17l-.6.9-5.5 5.9a50 50 0 01-12.9 10.7c-4.2 1.1-8.5 1.6-12.6 3a19.7 19.7 0 00-10.5 8.6l-1.2 1c-4 3.1-5.5 6.7-4.8 11.1h-.1l4 56.6 62.3-5.8-6.8-47.3L97 379.3c4.9-13.8 8.8-29.2 18.6-40.4.5-.6 2-1.2 1.8-2z"/><path class="cls-4" d="M491.8 398.3l1.5 7.2a1.5 1.5 0 001.9 1 1.5 1.5 0 001-1.8l-1.5-7.2a1.5 1.5 0 00-1.8-1 1.5 1.5 0 00-1 1.9z"/><path fill="#6f4d28" d="M33.3 370.1h26.3v22.4H33.3z"/><path class="cls-6" d="M64.8 322c-6.2-7.2-13.3-14.8-25.3-13-7.5 1.2-4.3 10.6 3.2 9.4 5.1-.8 10.6 7 13 9.8 3.2 4.2 6 9.3 3 14.1-3.4 5.6 6.9 10.5 10.3 5 5.4-8.7 2.3-17.8-4.2-25.4z"/><path class="cls-6" d="M58 317.8c-2-1.6-4.7 1.2-2.8 2.7a27.3 27.3 0 0110.3 22.1c0 2.5 3.9 2.5 4 0A31 31 0 0058 317.8z"/><rect class="cls-7" x="85" y="603.5" width="15.3" height="21.8" rx="1.9" transform="rotate(7 92.7 614.6)"/><rect class="cls-7" x="35.3" y="604.5" width="15.3" height="21.8" rx="1.9" transform="rotate(8.2 43 615.7)"/><path class="cls-8" d="M125.8 607.7l-50.6 7-.9-61.5a29.4 29.4 0 00-.6-5.4L58 469.3 91.7 451l17 88.7a24.2 24.2 0 00.5 2.4l8.8 33.1z"/><path class="cls-8" d="M71.3 615.5l-48.7-1 9.3-63.6a34.3 34.3 0 00.3-5.7l-1.8-85.5 31.1 2 4.9 81 .1 2.5 2.8 35.6z"/><path class="cls-8" d="M95.9 482.9l-61.1 7.9-4.6-31.9 61.1-7.9L96 483z"/><path class="cls-1" d="M79 467.1l-11.5-19.8V433a4.7 4.7 0 00-4.7-4.7H58a4.7 4.7 0 00-4.7 4.7v14.6L42 467.1a7.7 7.7 0 006.7 11.6h23.5a7.7 7.7 0 006.7-11.6z"/><path class="cls-2" d="M43.4 449.6v-1c-.2-3.2 3.1-6 7.4-6.3l3.4-.2c4.3-.3 8 2 8.2 5v1c.3 3.1-3 6-7.3 6.3l-3.4.2c-4.3.3-8.1-1.9-8.3-5z"/><path d="M51.2 440.5a51.8 51.8 0 01-26.5-3.8c-1.9-5.6 3.2-14.7 5.1-19a2.6 2.6 0 00-1-3.3 8.8 8.8 0 00.1-1.2 58 58 0 00.2-8.8 41 41 0 00.2-6.8 55.8 55.8 0 016-3.5c2.7-1.4.3-5.6-2.5-4.2C15.4 398.6 0 417.7 0 438c0 27 36.6 21.8 53 17a.7.7 0 00.5-.7l.2-11.3a2.5 2.5 0 00-2.5-2.4z" fill="#dfa942"/><path class="cls-1" d="M287.1 0h423.3v662.3H287.1z"/><path fill="#f3f1f1" d="M348.4 178.4l-1.6-10-8.5 8.4 10 1.6z"/><path class="cls-11" d="M354.7 662.3l-18.7.4-26.7-164.4 18.3-3 27 167zM174.5 662.3l18.7.4 26.7-164.4-18.3-3-27 167z"/><rect x="189.1" y="482.1" width="151.9" height="22.4" rx="7.3" fill="#d2d0ce"/><rect class="cls-13" x="275.9" y="452.6" width="15.3" height="21.8" rx="1.9" transform="rotate(7 283.6 463.5)"/><rect class="cls-13" x="226.2" y="453.5" width="15.3" height="21.8" rx="1.9" transform="rotate(8.2 234 464.7)"/><path class="cls-14" d="M312.2 456.7l-48.2 7-.9-61.5a30.4 30.4 0 00-.6-5.4l-15-78.5 30.7-5.1 17.6 75.5.5 2.4 8.4 33.1z"/><path class="cls-14" d="M262.2 464.6l-48.7-1 9.3-63.6a33.2 33.2 0 00.3-5.7l-1.8-83.6h31.1l4.9 81 .1 2.5 2.8 35.6z"/><path class="cls-13" d="M155 292.2l-.5-1.3a7 7 0 013.4-9.3l2.8-1.4a7 7 0 019.4 3.4l.5 1.1a7 7 0 01-3.4 9.4l-2.8 1.3a7.1 7.1 0 01-9.5-3.2z"/><path d="M241.2 237.7c2.8-3.7-.9-10.5-6.8-8.8-28.1 8.4-40.8 39.6-69 47a5.7 5.7 0 00-3.9 5.8c.4 4.2 2.5 7.2 3.7 11.3 1.2 3.8 5.6 3 8.2 1.5a159.4 159.4 0 0133-14.5c10.8-3.3 21.6-6.4 31-12.6a5 5 0 002.4-5.9 5.6 5.6 0 00.9-2.3 77.9 77.9 0 00.7-20.2 7 7 0 00-.2-1.3z" fill="#2b2c2b"/><path class="cls-14" d="M256.7 486h-30c-2.4 0-4.4-2.4-4.4-5.3V474c0-3.3 2.5-5.8 5.3-5.2l30 6.8a5 5 0 013.6 4.7c.2 3.1-1.8 5.8-4.5 5.8zM306.4 487h-30c-2.5 0-4.4-2.4-4.4-5.3V475c0-3.3 2.5-5.8 5.2-5.2l30 6.8a5 5 0 013.6 4.7c.3 3-1.8 5.8-4.4 5.8z"/><rect x="299.7" y="126.4" width="12.3" height="14.3" rx="2.2" transform="rotate(-40.6 305.8 133.6)" fill="#f37464"/><path transform="rotate(-43.5 325.3 154.6)" fill="#f2b63d" d="M318.9 129.3h12.7v50.6h-12.7z"/><rect class="cls-13" x="318.7" y="154.2" width="15.3" height="17.2" rx="7.2" transform="rotate(28 326.4 162.8)"/><path fill="#333232" d="M348.3 178.1l-.9-5.8-4.9 4.9 5.8 1z"/><path class="cls-8" d="M65.8 637h-30c-2.4 0-4.4-2.4-4.4-5.3V625c0-3.3 2.5-5.8 5.3-5.2l30 6.8a5 5 0 013.6 4.7c.2 3-1.8 5.8-4.5 5.8zM115.5 638h-30c-2.5 0-4.5-2.4-4.5-5.3v-6.9c0-3.3 2.5-5.8 5.3-5.2l30 6.9a5 5 0 013.6 4.6c.3 3.1-1.8 5.9-4.4 5.9z"/><path class="cls-3" d="M59.5 382.1c-8.9 4.6-20 2.5-28.3 8.5-4.8 2.7-9 6.3-10.7 10.7-1.9 4.9 0 9 1.9 13.5l7 17.1c2.3 5.7 11.7 3.2 9.4-2.6l-1.9-4.4a4 4 0 001.2-4.8 54.8 54.8 0 01-3.1-13.9c-.3-3.5.1-5.9 2.1-7.6a42.2 42.2 0 019.8-3.1 4.7 4.7 0 002-.8c5.2-.9 10.5-1.6 15.5-4.1 5.6-3 .7-11.4-4.9-8.5z"/><path class="cls-2" d="M66.6 333.7c7.3 16.4 4.2 41.2-10.1 40-17.3-1.5-29.2-3.1-36.4-19.5s-2.7-34.4 10.2-40 29.1 3 36.3 19.5z"/><path d="M75.8 461.7H45.2L42 467a7.7 7.7 0 006.8 11.6h23.5a7.7 7.7 0 006.7-11.6z" fill="#87c878"/><path class="cls-6" d="M31.6 308l1.2-.2a13.2 13.2 0 013.2-.2 6.4 6.4 0 014.9 2.5 6.7 6.7 0 011 2.2 7 7 0 01-.3 4.8c-.9 1.8-2.5 3-3.8 4.4a30.7 30.7 0 00-3.1 4.3 28.9 28.9 0 00-3.5 9.5 40.8 40.8 0 00-.5 10.3 65.4 65.4 0 001.8 10.6c.8 3.5 2 7 3.1 10.4s2.4 6.5 3.7 9.7l.6 1.4a6.8 6.8 0 00.5 1.3c1.2 1.6 1.6 3.8.4 5.4a37 37 0 01-11.6 10.2 8.6 8.6 0 01-4.2.7 5 5 0 01-3.7-1.3 56.6 56.6 0 01-4.6-4.9 54.3 54.3 0 01-3.8-5.3 52.6 52.6 0 01-3.2-5.6 54 54 0 01-2.4-6 55.8 55.8 0 01-1.7-6 56.4 56.4 0 01-1.4-12.5 60 60 0 01.4-6.3 54.2 54.2 0 011.1-6.2 55.2 55.2 0 011.8-6 53.5 53.5 0 012.5-5.9 52 52 0 013.2-5.5 53.1 53.1 0 013.9-5.2 54.7 54.7 0 014.6-4.8c2.9-2.7 6-5 9.9-5.8z"/><path class="cls-4" d="M46.6 338.2a3.2 3.2 0 001.6 2.8.7.7 0 00.5 0 .7.7 0 00.4-.1 1.8 1.8 0 00.4-.8 2.3 2.3 0 000-.8 3.2 3.2 0 00-.5-1.1 3 3 0 00-.4-.6 1.1 1.1 0 00-1-.3 1 1 0 00-.8.7 1 1 0 00.4 1 .8.8 0 00.8-1.2h.1l.2.2V338.7H48h.1l-.2.1h.1l-.2.1H47.7h.1-.1v-.1a1.8 1.8 0 01.1.2l-.1-.2a3.8 3.8 0 01.5.8v-.1a2.6 2.6 0 010 .4v-.2a1.4 1.4 0 010 .3v-.2a.8.8 0 01-.1.2v-.2a1.3 1.3 0 010 .2v-.1l1-.1-.3-.2h.1a2.7 2.7 0 01-.4-.3l.1.1a2.8 2.8 0 01-.3-.5v.1a3 3 0 010-.6v.2a3 3 0 010-.4.8.8 0 00-.8-.8.8.8 0 00-.8.8zM60.3 333.5a6.7 6.7 0 00.4 1.8 6 6 0 001 1.5.7.7 0 001.1-.2 3 3 0 00.2-2.2 3 3 0 00-1.3-1.7.8.8 0 10-.8 1.3l.2.1s-.1 0 0 0l.1.2c.2.2 0 0 0 0l.3.4c0 .1 0 .2 0 0v.3a1.3 1.3 0 01.1.2.6.6 0 000 .1.5.5 0 010 .3v.1c0 .2 0-.1 0 0v.3c0 .2 0-.1 0 0h1.2v-.2l-.2-.1a2.8 2.8 0 01-.2-.3 5.3 5.3 0 01-.3-.6v-.2l-.2-.4a3.4 3.4 0 010-.3 1 1 0 010-.2s0-.3 0 0a.8.8 0 00-.8-.7.8.8 0 00-.5.2.8.8 0 00-.2.5zM56.7 358.3a21.6 21.6 0 003 .4c1.1 0 2.1-.4 3.2-.5.4 0 .4-.7 0-.6-1 .1-2 .5-3.1.5a21.8 21.8 0 01-3.1-.4c-.4 0-.4.6 0 .6z"/><path d="M58.2 342.8l.6 4.2a1.3 1.3 0 001.9 1l2.3-1.2a1.3 1.3 0 00.3-2l-3-3.2a1.3 1.3 0 00-2.1 1.2z" fill="#a27040"/><path class="cls-21" d="M367.4 115.4h343M367.4 188.7h343M367.4 261.9h343M367.4 335.1h343M367.4 408.4h343M367.4 481.6h343"/><path d="M299 256.6a46 46 0 013.8-21.9l28-62.8-13-11.4-33.2 54.8A19 19 0 01270 225l-8 .6a37 37 0 00-7-.9 37.9 37.9 0 00-14.6 2.4l-6.1.5c-4.5.3-5 2.3-7.2 8a52.7 52.7 0 00-14.5 29.1c-5.1 30.3-36.8 117.4-36.8 117.4a195 195 0 0130.5-16.3c16-6.7 35.4-11.3 43.3-13.7 13-3.9 66.8.7 66.8.7l-14.7-59.1z" fill="#3a3f41"/><path d="M293.9 236.5s-21-.6-31.5 2.6c-6.4 1.9-22.1 5.6-35.1 11.1-13.9 5.8-23 .6-23 .6s23.9-58.1 28-82.8c3.2-18.2 16.2-33 34.6-32.5 18.4.6 31.3 15.8 32.5 34.6 1 16.6-5.5 66.4-5.5 66.4z" fill="#562a16"/></svg>
