<svg version="1.1" id="Layer_1" xmlns="http://www.w3.org/2000/svg" x="0" y="0" viewBox="0 0 1367 679.9" xml:space="preserve"><style>.st0{fill:#e3ebf6}.st1{fill:#845c32}.st2{fill:#f7cc1a}.st3{fill:#010101}.st5{fill:#232323}.st6{fill:#614220}.st7{fill:#303030}.st10{fill:#bebdbb}.st12{fill:#ae8046}.st13{fill:#55958e}.st22{opacity:.3;fill:none;stroke:#282828;stroke-width:2;stroke-miterlimit:10}</style><path transform="rotate(-30 783 315.6)" class="st0" d="M764.9 293.2h36.4V338h-36.4z"/><path class="st1" d="M764.8 338.6l-.8-.8c-2.5-1.8-2.7-5.9-.4-9l1.8-2.4c2.4-3.1 6.3-4.2 8.8-2.3l.8.6c2.5 1.8 2.7 5.9.4 9l-1.9 2.5c-2.3 3-6.2 4.3-8.7 2.4z"/><path class="st2" d="M774 336.9c-.4-2-3.8-2.9-5-4.1-1.8-1.5-5.4-6.5-7.7-3.3-1.2 1.8-2.4 3.6-3.8 5.3-4.2 5-9.2 9.1-13.4 14-4.6 5.4-8.6 11.4-12.9 17l-.7.9-5.5 5.9c-3.9 4.1-8 8.1-12.9 10.7-4.2 1.1-8.5 1.6-12.6 3A19.6 19.6 0 00689 395l-1.2 1c-4 3.1-5.4 6.7-4.8 11.1h-.1l4 56.6 62.3-5.8-6.8-47.3 11.2-31.2c4.9-13.7 8.8-29.2 18.6-40.4.5-.6 2-1.2 1.8-2z"/><path class="st3" d="M1148.4 398.3l1.5 7.2c.2.8 1.1 1.3 1.9 1 .8-.2 1.2-1 1-1.8l-1.5-7.2c-.1-.8-1-1.3-1.8-1-.8.2-1.3 1-1 1.8z"/><path fill="#6f4d28" d="M689.9 370.1h26.3v22.4h-26.3z"/><path class="st5" d="M721.4 322c-6.2-7.2-13.3-14.8-25.2-13-7.6 1.2-4.4 10.6 3.1 9.4 5.2-.8 10.6 7 13 9.8 3.2 4.2 6 9.3 3 14.1-3.4 5.6 6.9 10.5 10.4 5 5.3-8.7 2.2-17.8-4.3-25.4z"/><path class="st5" d="M714.6 317.8c-1.9-1.6-4.7 1.2-2.7 2.7a27.3 27.3 0 0110.3 22.1c0 2.5 3.8 2.5 3.9 0a31 31 0 00-11.5-24.8z"/><path class="st6" d="M753.6 626l-11.4-1.5a2 2 0 01-1.7-2.1l2.2-17.8a2 2 0 012.2-1.7l11.4 1.4a2 2 0 011.6 2.2l-2.1 17.8a2 2 0 01-2.2 1.6zM703.7 627l-11.4-1.6a2 2 0 01-1.6-2.2l2.6-17.8a2 2 0 012.1-1.6l11.4 1.6a2 2 0 011.6 2.2l-2.5 17.8a2 2 0 01-2.2 1.6z"/><path class="st7" d="M782.4 607.7l-50.6 7-.9-61.5c0-1.8-.2-3.6-.6-5.4l-15.8-78.5 33.8-18.4 17 88.8.5 2.3 8.8 33.2 7.8 32.5z"/><path class="st7" d="M727.9 615.5l-48.7-1 9.3-63.6c.3-1.8.4-3.8.3-5.7l-1.8-85.5 31.1 2 4.9 81 .1 2.4 2.8 35.7 2 34.8z"/><path class="st7" d="M752.5 482.9l-61.1 7.9-4.6-31.9L748 451z"/><path class="st0" d="M735.6 467.1l-11.4-19.8V433c0-2.5-2.2-4.7-4.8-4.7h-4.8a4.7 4.7 0 00-4.7 4.7v14.6l-11.2 19.4c-3 5.2.7 11.6 6.7 11.6h23.5c6 0 9.7-6.4 6.7-11.6z"/><path class="st1" d="M700 449.6v-1c-.2-3.2 3.2-6 7.4-6.3l3.4-.2c4.3-.3 8 2 8.2 5v1c.3 3.2-3 6-7.3 6.3l-3.4.2c-4.3.3-8.1-1.9-8.3-5z"/><path d="M707.9 440.5c-9.2 1-18.1-.1-26.6-3.8-1.9-5.6 3.2-14.7 5.1-19 .7-1.4 0-2.7-1.1-3.3l.2-1.2c.4-2.8.3-5.8.2-8.8.2-2.2.3-4.5.2-6.8a55 55 0 015.9-3.5c2.8-1.4.3-5.6-2.5-4.2-17.4 8.7-32.6 27.8-32.7 48 0 27 36.6 21.8 53 17 .3-.2.5-.4.5-.7l.2-11.3c0-1.2-1.1-2.6-2.4-2.4z" fill="#dfa942"/><path class="st0" d="M943.7 0H1367v662.3H943.7z"/><path fill="#f3f1f1" d="M1005 178.4l-1.6-10-8.5 8.4z"/><path class="st10" d="M1011.3 662.3l-18.7.4L966 498.3l18.3-3zM831.1 662.3l18.7.4 26.7-164.4-18.3-3z"/><path d="M990.4 504.5H853c-4 0-7.3-3.3-7.3-7.3v-7.8c0-4 3.3-7.3 7.3-7.3h137.4c4 0 7.3 3.3 7.3 7.3v7.8c0 4-3.3 7.3-7.3 7.3z" fill="#d2d0ce"/><path class="st12" d="M944.5 475l-11.4-1.4a2 2 0 01-1.7-2.2l2.2-17.8a2 2 0 012.2-1.6l11.4 1.4a2 2 0 011.6 2.1l-2.1 17.8a2 2 0 01-2.2 1.7zM894.6 476l-11.4-1.6a2 2 0 01-1.6-2.2l2.6-17.7a2 2 0 012.1-1.7l11.4 1.7a2 2 0 011.6 2.2l-2.5 17.7a2 2 0 01-2.2 1.6z"/><path class="st13" d="M968.8 456.7l-48.2 7-.9-61.4c0-1.9-.2-3.7-.6-5.5l-15-78.5 30.7-5.2 17.6 75.6.6 2.4 8.4 33.1 7.4 32.5z"/><path class="st13" d="M918.8 464.6l-48.7-1 9.3-63.6c.3-2 .4-3.8.3-5.8l-1.8-83.5H909l4.9 81 .1 2.5 2.8 35.6 2 34.8z"/><path class="st12" d="M811.5 292.2l-.4-1.3a7 7 0 013.4-9.3l2.8-1.4a7 7 0 019.4 3.4l.5 1.2a7 7 0 01-3.4 9.3l-2.8 1.3a7.1 7.1 0 01-9.5-3.2z"/><path d="M897.8 237.7c2.8-3.7-.8-10.5-6.8-8.8-28.1 8.4-40.8 39.6-69 47-2.4.7-4 3.5-3.9 5.8.4 4.2 2.5 7.3 3.7 11.3 1.2 3.8 5.7 3 8.2 1.5a160 160 0 0133-14.5c10.8-3.3 21.6-6.4 31.1-12.5a5 5 0 002.3-6c.5-.6.8-1.4 1-2.3a77.9 77.9 0 00.4-21.5z" fill="#2b2c2b"/><path class="st13" d="M913.3 486h-30c-2.5 0-4.5-2.4-4.5-5.3V474c0-3.3 2.6-5.8 5.3-5.2l30 6.8c2 .5 3.5 2.4 3.7 4.7.2 3.1-1.8 5.8-4.5 5.8zM963 487h-30c-2.5 0-4.5-2.4-4.5-5.3v-6.8c0-3.3 2.6-5.8 5.3-5.2l30 6.8c2 .4 3.4 2.3 3.6 4.7.3 3-1.8 5.8-4.4 5.8z"/><path fill="none" stroke="#d2d2ce" stroke-miterlimit="10" d="M811.6 641.9H1061"/><path fill="#d2d2ce" d="M0 632.6h1366v47.3H0z"/><path d="M970 136.5l-5.9 5c-1 .8-2.4.7-3.1-.2l-6.4-7.5c-.8-.9-.7-2.3.2-3.1l6-5c.9-.9 2.3-.8 3 .2l6.5 7.4c.8 1 .7 2.4-.3 3.2z" fill="#f37464"/><path transform="rotate(-43.5 981.9 154.6)" fill="#f2b63d" d="M975.5 129.3h12.7v50.6h-12.7z"/><path class="st12" d="M979.3 170.6l-.7-.4a7.3 7.3 0 01-3-9.8l1.3-2.4a7.3 7.3 0 019.7-3l.8.4a7.3 7.3 0 013 9.8l-1.3 2.4a7.3 7.3 0 01-9.8 3z"/><path fill="#333232" d="M1005 178.1l-1-5.8-4.9 4.9z"/><path class="st7" d="M722.4 637h-30c-2.5 0-4.5-2.4-4.5-5.3v-6.8c0-3.3 2.6-5.8 5.3-5.2l30 6.8c2 .4 3.5 2.3 3.7 4.7.2 3-1.8 5.8-4.5 5.8zM772.1 638h-30c-2.5 0-4.5-2.4-4.5-5.3v-6.9c0-3.3 2.6-5.8 5.3-5.1l30 6.8c2 .4 3.4 2.3 3.6 4.6.3 3.1-1.8 5.9-4.4 5.9z"/><path class="st2" d="M716.1 382.1c-8.9 4.6-20 2.5-28.3 8.5-4.8 2.7-9 6.3-10.7 10.7-1.8 4.9 0 9 1.9 13.5l7 17.1c2.4 5.7 11.8 3.2 9.4-2.6l-1.8-4.4c1.2-1 1.9-2.7 1.1-4.8a54.7 54.7 0 01-3-13.8c-.4-3.6 0-6 2-7.7 3.6-1.7 7.7-2.8 9.8-3.1.8-.2 1.4-.4 2-.8 5.2-.9 10.5-1.6 15.5-4.1 5.6-3 .7-11.4-4.9-8.5z"/><path class="st1" d="M723.3 333.7c7.2 16.4 4.1 41.3-10.2 40-17.2-1.5-29.1-3.1-36.4-19.5s-2.7-34.4 10.2-40c12.9-5.7 29.1 3 36.4 19.5z"/><path d="M732.5 461.7h-30.7l-3.1 5.4c-3 5.2.7 11.6 6.7 11.6h23.5c6 0 9.7-6.4 6.7-11.6l-3.1-5.4z" fill="#87c878"/><path class="st5" d="M688.2 308l1.2-.2c1-.2 2.1-.3 3.2-.2 2 .1 3.8.9 4.9 2.5.5.6.8 1.4 1 2.1a7 7 0 01-.3 4.8c-.8 1.9-2.5 3-3.8 4.5a29 29 0 00-6.6 13.8c-.6 3.4-.7 6.8-.5 10.3.3 3.5 1 7 1.8 10.6a113.7 113.7 0 006.8 20l.6 1.4.5 1.4c1.2 1.5 1.6 3.8.4 5.4a37 37 0 01-11.6 10.2c-1.3.7-2.8.7-4.2.7a5 5 0 01-3.7-1.3 53.7 53.7 0 01-16.8-34 57.2 57.2 0 015.5-30.7 54.8 54.8 0 0111.7-15.5c2.9-2.7 6-5 10-5.8z"/><path class="st3" d="M703.2 338.2c0 1.1.6 2.3 1.6 2.8.2.1.3.2.5.1.2 0 .3 0 .4-.2.2-.2.4-.4.4-.7v-.8c0-.4-.3-.8-.5-1.2l-.4-.5c-.3-.3-.7-.4-1-.4a1 1 0 00-.8.7c-.1.4 0 .9.4 1 .4.3.9.2 1-.2.2-.3.1-.8-.2-1l.1.1.1.1v.7h-.2l-.1.1h-.2-.1-.1.1l-.1-.1.2.2-.1-.1.4.8v-.2l.1.5v-.2V339.8l-.1.2.1-.2h1l-.4-.2h.2c-.2 0-.3-.2-.4-.3v.1l-.2-.5v.1l-.1-.6v-.2c0-.4-.4-.8-.8-.8s-.7.4-.8.8zM716.9 333.5c0 .7.2 1.2.5 1.8.2.6.5 1 .9 1.5.3.3 1 .3 1.2-.2a3 3 0 00-1.2-3.9c-.4-.2-.9 0-1 .3-.3.3-.2.8.2 1l.2.1s-.1 0 0 0l.1.2c.2.1 0 0 0 0l.3.3v.1s0 .1 0 0v.1l.1.2v.2s0-.2 0 0v.4c0 .1 0-.2 0 0V336c0 .1 0-.2 0 0l1.1-.2c0-.1 0-.1 0 0l-.1-.2-.2-.3a6.2 6.2 0 01-.3-.5v-.1l-.1-.2-.1-.3v-.4l-.1-.1s0-.3 0 0c0-.3-.1-.5-.3-.6a.7.7 0 00-1 0c-.1.1-.3.3-.2.5zM713.3 358.3c1 0 2 .5 3 .4 1.1 0 2.1-.4 3.2-.5.4 0 .4-.7 0-.6-1 0-2 .4-3.1.5-1 0-2.1-.3-3.1-.4-.4 0-.4.6 0 .6z"/><path d="M714.8 342.8l.6 4.2c.2.9 1.1 1.3 1.9 1l2.3-1.2c.8-.4 1-1.5.4-2l-3-3.2c-1-.8-2.4 0-2.2 1.2z" fill="#a27040"/><path class="st22" d="M1024 115.4h343M1024 188.7h343M1024 261.9h343M1024 335.1h343M1024 408.4h343M1024 481.6h343"/><path d="M955.7 256.6a46 46 0 013.7-21.9l28-62.8-13-11.4-33.2 54.8a19 19 0 01-14.6 9.7l-8 .6a37.6 37.6 0 00-21.6 1.5l-6.1.5c-4.5.3-5 2.4-7.1 8a52.6 52.6 0 00-14.6 29.1c-5.1 30.3-36.8 117.4-36.8 117.4s13.5-9.2 30.5-16.3c16-6.7 35.4-11.3 43.3-13.7 13-3.9 66.8.8 66.8.8l-14.7-59.2-2.6-37.1z" fill="#3a3f41"/><path d="M950.5 236.5s-21-.6-31.5 2.6c-6.4 1.9-22 5.7-35.1 11.1-13.8 5.8-22.9.6-22.9.6s23.8-58.1 28-82.8c3-18.2 16-33 34.5-32.5 18.4.6 31.3 15.8 32.5 34.5 1 16.7-5.5 66.5-5.5 66.5z" fill="#562a16"/></svg>
